<svg xmlns="http://www.w3.org/2000/svg" viewBox="0 0 64 64">
  <rect width="64" height="64" fill="#050605"/>
  <path d="M0 8h64M0 16h64M0 24h64M0 32h64M0 40h64M0 48h64M0 56h64M8 0v64M16 0v64M24 0v64M32 0v64M40 0v64M48 0v64M56 0v64" stroke="#C4E644" stroke-opacity=".18" stroke-width=".7"/>
  <rect x="8" y="10" width="48" height="30" fill="#010303"/>
  <rect x="12" y="17" width="19" height="6" fill="#DDF6FF"/>
  <rect x="33" y="17" width="19" height="6" fill="#DDF6FF"/>
  <rect x="12" y="27" width="19" height="6" fill="#DDF6FF"/>
  <rect x="33" y="27" width="19" height="6" fill="#DDF6FF"/>
  <path d="M12 43h18v18H12z" fill="#080908"/>
  <path d="M21 45c5 0 9 4 9 8s-4 8-9 8-9-4-9-8 4-8 9-8zm0 3c-3.4 0-6 2.2-6 5s2.6 5 6 5 6-2.2 6-5-2.6-5-6-5z" fill="#fff"/>
  <path d="M21 43c3 0 5 4.5 5 10s-2 10-5 10-5-4.5-5-10 2-10 5-10zm0 3c-1.2 0-2.4 2.8-2.4 7s1.2 7 2.4 7 2.4-2.8 2.4-7-1.2-7-2.4-7z" fill="#fff"/>
  <rect x="45" y="46" width="5" height="5" fill="#151715" stroke="#30342f"/>
  <rect x="39" y="52" width="5" height="5" fill="#151715" stroke="#30342f"/>
  <rect x="51" y="52" width="5" height="5" fill="#151715" stroke="#30342f"/>
  <rect x="45" y="58" width="5" height="5" fill="#151715" stroke="#30342f"/>
</svg>
