<?xml version="1.0" encoding="UTF-8" standalone="no"?>
<svg
   version="1.1"
   viewBox="0 0 83.399962 20.600006"
   id="svg3470"
   sodipodi:docname="Temporal-Logo.svg"
   inkscape:version="1.2.2 (b0a8486541, 2022-12-01)"
   width="83.399963"
   height="20.600006"
   inkscape:export-filename="Temporal-Logo.png"
   inkscape:export-xdpi="500"
   inkscape:export-ydpi="500"
   xml:space="preserve"
   xmlns:inkscape="http://www.inkscape.org/namespaces/inkscape"
   xmlns:sodipodi="http://sodipodi.sourceforge.net/DTD/sodipodi-0.dtd"
   xmlns="http://www.w3.org/2000/svg"
   xmlns:svg="http://www.w3.org/2000/svg"><!-- Generator: Adobe Illustrator 30.1.0, SVG Export Plug-In . SVG Version: 2.1.1 Build 136)  --><defs
     id="defs1937"><style
       id="style1850">
      .st0, .st1, .st2 {
        fill: none;
      }

      .st3, .st4, .st5, .st6, .st7 {
        fill: #141414;
      }

      .st3, .st4, .st8, .st1, .st9, .st10 {
        stroke: #f1f3f5;
        stroke-linecap: square;
        stroke-width: 2px;
      }

      .st3, .st4, .st8, .st1, .st9, .st10, .st7 {
        stroke-miterlimit: 11.3;
      }

      .st3, .st5, .st8, .st9, .st7 {
        fill-rule: evenodd;
      }

      .st11 {
        clip-path: url(#clippath-17);
      }

      .st12 {
        clip-path: url(#clippath-19);
      }

      .st13 {
        clip-path: url(#clippath-11);
      }

      .st14 {
        clip-path: url(#clippath-16);
      }

      .st15 {
        clip-path: url(#clippath-18);
      }

      .st16 {
        clip-path: url(#clippath-10);
      }

      .st17 {
        clip-path: url(#clippath-15);
      }

      .st18 {
        clip-path: url(#clippath-13);
      }

      .st19 {
        clip-path: url(#clippath-14);
      }

      .st20 {
        clip-path: url(#clippath-12);
      }

      .st21 {
        clip-path: url(#clippath-27);
      }

      .st22 {
        clip-path: url(#clippath-29);
      }

      .st23 {
        clip-path: url(#clippath-26);
      }

      .st24 {
        clip-path: url(#clippath-28);
      }

      .st25 {
        clip-path: url(#clippath-20);
      }

      .st26 {
        clip-path: url(#clippath-21);
      }

      .st27 {
        clip-path: url(#clippath-22);
      }

      .st28 {
        clip-path: url(#clippath-23);
      }

      .st29 {
        clip-path: url(#clippath-24);
      }

      .st30 {
        clip-path: url(#clippath-25);
      }

      .st31 {
        clip-path: url(#clippath-1);
      }

      .st32 {
        clip-path: url(#clippath-3);
      }

      .st33 {
        clip-path: url(#clippath-4);
      }

      .st34 {
        clip-path: url(#clippath-2);
      }

      .st35 {
        clip-path: url(#clippath-7);
      }

      .st36 {
        clip-path: url(#clippath-6);
      }

      .st37 {
        clip-path: url(#clippath-9);
      }

      .st38 {
        clip-path: url(#clippath-8);
      }

      .st39 {
        clip-path: url(#clippath-5);
      }

      .st8 {
        fill: #f8fafc;
      }

      .st40 {
        fill: #fff;
      }

      .st2 {
        clip-rule: evenodd;
      }

      .st41 {
        opacity: .5;
      }

      .st9, .st10 {
        fill: #444ce7;
      }

      .st42 {
        fill: #cbb484;
      }

      .st43 {
        clip-path: url(#clippath);
      }

      .st7 {
        stroke: #fff;
      }
    </style></defs><g
     id="svg5"
     style="display:inline"
     transform="translate(-403.00003,-302.1)"><sodipodi:namedview
       id="namedview7"
       bordercolor="#eeeeee"
       borderopacity="1"
       inkscape:current-layer="svg3470"
       inkscape:cx="245.13325"
       inkscape:cy="248.18217"
       inkscape:deskcolor="#505050"
       inkscape:document-units="mm"
       inkscape:pagecheckerboard="0"
       inkscape:pageopacity="0"
       inkscape:showpageshadow="0"
       inkscape:window-height="1011"
       inkscape:window-maximized="1"
       inkscape:window-width="1854"
       inkscape:window-x="0"
       inkscape:window-y="0"
       inkscape:zoom="0.8199622"
       pagecolor="#505050"
       showgrid="false"><sodipodi:guide
         position="-742.10004,-366.4"
         orientation="0,242.3"
         id="guide10043"
         inkscape:locked="false" /><sodipodi:guide
         position="-499.80004,-366.4"
         orientation="198.39999,0"
         id="guide10045"
         inkscape:locked="false" /><sodipodi:guide
         position="-499.80004,-564.79999"
         orientation="0,-242.3"
         id="guide10047"
         inkscape:locked="false" /><sodipodi:guide
         position="-742.10004,-564.79999"
         orientation="-198.39999,0"
         id="guide10049"
         inkscape:locked="false" /></sodipodi:namedview><g
       id="g2481"
       inkscape:export-filename="Temporal-Logo.svg"
       inkscape:export-xdpi="500"
       inkscape:export-ydpi="500"><polygon
         class="st40"
         points="434.1,316.9 434.1,309.1 437,309.1 437,308.1 430,308.1 430,309.1 433,309.1 433,316.9 "
         id="polygon2463" /><path
         class="st40"
         d="m 438.4,313.1 c 0.1,-1.1 1,-1.7 1.9,-1.7 0.9,0 1.9,0.6 2,1.7 z m -1.1,0.6 c 0,1.9 1.3,3.3 3.2,3.3 1.9,0 2.6,-0.9 2.9,-2.2 h -1.1 c -0.2,0.8 -1,1.3 -1.9,1.3 -0.9,0 -2,-0.8 -2.1,-2 v 0 c 0,0 5.1,0 5.1,0 0,-0.2 0,-0.3 0,-0.4 0,-1.9 -1.3,-3.1 -3.1,-3.1 -1.8,0 -3.1,1.3 -3.1,3.3 z"
         id="path2465" /><path
         class="st40"
         d="m 452.6,310.4 c -1.2,0 -1.9,0.5 -2.3,1.2 -0.4,-0.8 -1.2,-1.2 -2.1,-1.2 -0.9,0 -1.6,0.5 -1.9,1 v -0.9 h -1.1 v 6.4 h 1.1 v -3.4 c 0,-1.3 0.7,-2.2 1.7,-2.2 1,0 1.6,0.7 1.6,1.9 v 3.6 h 1.1 v -3.4 c 0,-1.3 0.7,-2.1 1.8,-2.1 1.1,0 1.6,0.7 1.6,1.9 v 3.6 h 1.1 v -3.7 c 0,-2 -1.1,-2.8 -2.5,-2.8 z"
         id="path2467" /><path
         class="st40"
         d="m 460.2,316.1 c -1.3,0 -2.2,-1 -2.2,-2.4 0,-1.4 0.9,-2.4 2.2,-2.4 1.3,0 2.2,1 2.2,2.4 0,1.4 -0.9,2.3 -2.2,2.3 z m 0.1,-5.7 c -1.1,0 -1.8,0.5 -2.2,1.1 v -1 H 457 v 8.9 h 1.1 v -3.5 c 0.4,0.6 1.1,1.1 2.2,1.1 1.8,0 3.1,-1.3 3.1,-3.3 0,-2 -1.4,-3.3 -3.1,-3.3 z"
         id="path2469" /><path
         class="st40"
         d="m 468.2,316.1 c -1.3,0 -2.2,-1 -2.2,-2.3 0,-1.3 0.9,-2.4 2.2,-2.4 1.3,0 2.2,1 2.2,2.4 0,1.4 -0.9,2.3 -2.2,2.3 z m 0,0.9 c 1.9,0 3.2,-1.3 3.2,-3.3 0,-2 -1.3,-3.3 -3.2,-3.3 -1.9,0 -3.2,1.3 -3.2,3.3 0,2 1.3,3.3 3.2,3.3 z"
         id="path2471" /><path
         class="st40"
         d="m 476.2,310.5 c -1.2,0 -1.8,0.5 -2.1,1 v -1 H 473 v 6.4 h 1.1 v -3.2 c 0,-1 0.5,-2.2 1.8,-2.2 h 0.5 v -1 h -0.3 z"
         id="path2473" /><path
         class="st40"
         d="m 482,314.3 c 0,1.1 -0.7,1.8 -2,1.8 -1.3,0 -1.4,-0.4 -1.4,-1.1 0,-0.7 0.5,-1 1.5,-1 h 2 v 0.3 z m 1.5,1.6 c -0.3,0 -0.4,-0.1 -0.4,-0.4 v -2.7 c 0,-1.5 -0.9,-2.3 -2.6,-2.3 -1.7,0 -2.6,0.7 -2.8,2 h 1.1 c 0.1,-0.7 0.7,-1.1 1.7,-1.1 1,0 1.6,0.5 1.6,1.3 v 0.4 h -1.9 c -1.7,0 -2.6,0.7 -2.6,2 0,1.3 1,1.9 2.4,1.9 1.4,0 1.7,-0.5 2.1,-1.1 0,0.6 0.3,1 1.2,1 h 0.6 v -1 h -0.3 z"
         id="path2475" /><rect
         class="st40"
         x="485.29999"
         y="308.10001"
         width="1.1"
         height="8.8000002"
         id="rect2477" /><path
         class="st40"
         d="m 417.3,315 c -0.2,0 -0.9,0.1 -1.1,0.1 0,0.2 -0.1,0.9 -0.1,1.1 -0.5,3.5 -1.7,5.6 -2.6,5.6 -0.9,0 -2.1,-2 -2.6,-5.6 0,-0.2 -0.1,-0.9 -0.1,-1.1 0,-0.8 -0.1,-1.7 -0.1,-2.7 0,-1 0,-1.9 0.1,-2.7 0.8,0 1.7,-0.1 2.7,-0.1 1,0 1.9,0 2.7,0.1 0.2,0 0.9,0.1 1.1,0.1 3.6,0.5 5.6,1.7 5.6,2.6 0,0.9 -2.1,2.1 -5.6,2.6 z m -3.8,-11.9 c 0.9,0 2.1,2 2.6,5.6 -0.9,0 -1.7,-0.1 -2.6,-0.1 -0.9,0 -1.7,0 -2.6,0.1 0.5,-3.5 1.7,-5.6 2.6,-5.6 z m -3.8,11.9 c -3.6,-0.5 -5.6,-1.7 -5.6,-2.6 0,-0.9 2.1,-2.1 5.6,-2.6 0,0.8 -0.1,1.7 -0.1,2.6 0,0.9 0,1.7 0.1,2.6 z m 7.5,-6.2 c -0.5,-3.7 -1.7,-6.7 -3.7,-6.7 -2,0 -3.2,3.1 -3.7,6.7 -3.7,0.5 -6.8,1.7 -6.8,3.6 0,1.9 3.1,3.1 6.8,3.6 0.5,3.7 1.7,6.7 3.7,6.7 2,0 3.2,-3.1 3.7,-6.7 3.7,-0.5 6.8,-1.7 6.8,-3.6 0,-1.9 -3.1,-3.2 -6.8,-3.6 z"
         id="path2479" /></g></g></svg>
