<?xml version="1.0" standalone="no"?>
 <!DOCTYPE svg PUBLIC "-//W3C//DTD SVG 1.1//EN" 
 "http://www.w3.org/Graphics/SVG/1.1/DTD/svg11.dtd"> 
<svg
  xmlns:svg="http://www.w3.org/2000/svg"
  xmlns="http://www.w3.org/2000/svg"
  xmlns:xlink="http://www.w3.org/1999/xlink"
  xmlns:inkscape="http://www.inkscape.org/namespaces/inkscape"
  version="1.1"
  width="101.0920mm" height="86.7918mm" viewBox="0.0000 0.0000 101.0920 86.7918">
<title>SVG Image created as v0-Replay-26_PCB-A-B_Courtyard.svg date 2026-04-06T07:18:33 </title>
  <desc>Image generated by PCBNEW </desc>
<g style="fill:#000000; fill-opacity:1.0000;stroke:#000000; stroke-opacity:1.0000;
stroke-linecap:round; stroke-linejoin:round;"
 transform="translate(0 0) scale(1 1)">
</g>
<g style="fill:none; 
stroke:#26E9FF; stroke-width:0.0500; stroke-opacity:1; 
stroke-linecap:round; stroke-linejoin:round;">
<path d="M21.5840 42.7960
L21.5840 43.7360
" />
<path d="M21.5840 43.7360
L23.4440 43.7360
" />
<path d="M23.4440 42.7960
L21.5840 42.7960
" />
<path d="M23.4440 43.7360
L23.4440 42.7960
" />
<path d="M34.5090 43.5360
L34.5090 45.3960
" />
<path d="M34.5090 45.3960
L35.4490 45.3960
" />
<path d="M35.4490 43.5360
L34.5090 43.5360
" />
<path d="M35.4490 45.3960
L35.4490 43.5360
" />
<path d="M19.3752 33.5046
L19.3752 35.3646
" />
<path d="M19.3752 35.3646
L20.3152 35.3646
" />
<path d="M20.3152 33.5046
L19.3752 33.5046
" />
<path d="M20.3152 35.3646
L20.3152 33.5046
" />
<path d="M19.7240 45.7560
L19.7240 46.6760
" />
<path d="M19.7240 46.6760
L21.5440 46.6760
" />
<path d="M21.5440 45.7560
L19.7240 45.7560
" />
<path d="M21.5440 46.6760
L21.5440 45.7560
" />
<path d="M48.9590 25.2560
L48.9590 27.1160
" />
<path d="M48.9590 27.1160
L49.8990 27.1160
" />
<path d="M49.8990 25.2560
L48.9590 25.2560
" />
<path d="M49.8990 27.1160
L49.8990 25.2560
" />
<path d="M57.3740 21.9760
L57.3740 23.7760
" />
<path d="M57.3740 23.7760
L57.5740 23.7760
" />
<path d="M57.5740 23.7760
L57.5740 24.8060
" />
<path d="M57.5740 24.8060
L60.5740 24.8060
" />
<path d="M58.5240 20.9460
L58.5240 21.9760
" />
<path d="M58.5240 21.9760
L57.3740 21.9760
" />
<path d="M59.6240 20.9460
L58.5240 20.9460
" />
<path d="M59.6240 21.9760
L59.6240 20.9460
" />
<path d="M60.5740 23.7760
L60.7740 23.7760
" />
<path d="M60.5740 24.8060
L60.5740 23.7760
" />
<path d="M60.7740 21.9760
L59.6240 21.9760
" />
<path d="M60.7740 23.7760
L60.7740 21.9760
" />
<path d="M49.2540 44.3710
L49.2540 45.3110
" />
<path d="M49.2540 45.3110
L51.1140 45.3110
" />
<path d="M51.1140 44.3710
L49.2540 44.3710
" />
<path d="M51.1140 45.3110
L51.1140 44.3710
" />
<path d="M53.4946 25.2278
L53.4946 27.0878
" />
<path d="M53.4946 27.0878
L54.4346 27.0878
" />
<path d="M54.4346 25.2278
L53.4946 25.2278
" />
<path d="M54.4346 27.0878
L54.4346 25.2278
" />
<path d="M62.4897 25.8843
L62.4897 28.1843
" />
<path d="M62.4897 28.1843
L66.8897 28.1843
" />
<path d="M66.8897 25.8843
L62.4897 25.8843
" />
<path d="M66.8897 25.8843
L66.8897 28.1843
" />
<path d="M34.5390 41.5510
L34.5390 43.4110
" />
<path d="M34.5390 43.4110
L35.4790 43.4110
" />
<path d="M35.4790 41.5510
L34.5390 41.5510
" />
<path d="M35.4790 43.4110
L35.4790 41.5510
" />
<circle cx="21.2240" cy="38.9110" r="1.0000" /> 
<path d="M56.5550 25.2610
L56.5550 27.0810
" />
<path d="M56.5550 27.0810
L57.4750 27.0810
" />
<path d="M57.4750 25.2610
L56.5550 25.2610
" />
<path d="M57.4750 27.0810
L57.4750 25.2610
" />
<path d="M58.1802 37.1660
L58.1802 39.6660
" />
<path d="M58.1802 39.6660
L59.5802 39.6660
" />
<path d="M59.5802 37.1660
L58.1802 37.1660
" />
<path d="M59.5802 39.6660
L59.5802 37.1660
" />
<path d="M23.6725 43.7775
L23.6725 44.7175
" />
<path d="M23.6725 44.7175
L25.5325 44.7175
" />
<path d="M25.5325 43.7775
L23.6725 43.7775
" />
<path d="M25.5325 44.7175
L25.5325 43.7775
" />
<path d="M71.2540 34.0460
L71.2540 35.9060
" />
<path d="M71.2540 35.9060
L72.1940 35.9060
" />
<path d="M72.1940 34.0460
L71.2540 34.0460
" />
<path d="M72.1940 35.9060
L72.1940 34.0460
" />
<path d="M49.7590 21.1410
L49.7590 22.0610
" />
<path d="M49.7590 22.0610
L51.5790 22.0610
" />
<path d="M51.5790 21.1410
L49.7590 21.1410
" />
<path d="M51.5790 22.0610
L51.5790 21.1410
" />
<path d="M55.5240 39.8824
L55.5240 41.7424
" />
<path d="M55.5240 41.7424
L56.4640 41.7424
" />
<path d="M56.4640 39.8824
L55.5240 39.8824
" />
<path d="M56.4640 41.7424
L56.4640 39.8824
" />
<path d="M42.6740 22.1010
L42.6740 23.9210
" />
<path d="M42.6740 23.9210
L43.5940 23.9210
" />
<path d="M43.5940 22.1010
L42.6740 22.1010
" />
<path d="M43.5940 23.9210
L43.5940 22.1010
" />
<path d="M55.0952 37.1510
L55.0952 39.6510
" />
<path d="M55.0952 39.6510
L56.4952 39.6510
" />
<path d="M56.4952 37.1510
L55.0952 37.1510
" />
<path d="M56.4952 39.6510
L56.4952 37.1510
" />
<path d="M36.0330 49.4660
L36.0330 50.4060
" />
<path d="M36.0330 50.4060
L37.8930 50.4060
" />
<path d="M37.8930 49.4660
L36.0330 49.4660
" />
<path d="M37.8930 50.4060
L37.8930 49.4660
" />
<path d="M46.9490 36.2310
L46.9490 37.1710
" />
<path d="M46.9490 37.1710
L48.8090 37.1710
" />
<path d="M48.8090 36.2310
L46.9490 36.2310
" />
<path d="M48.8090 37.1710
L48.8090 36.2310
" />
<path d="M49.8240 37.2910
L49.8240 39.1110
" />
<path d="M49.8240 39.1110
L50.7440 39.1110
" />
<path d="M50.7440 37.2910
L49.8240 37.2910
" />
<path d="M50.7440 39.1110
L50.7440 37.2910
" />
<path d="M50.0140 25.2660
L50.0140 27.0860
" />
<path d="M50.0140 27.0860
L50.9340 27.0860
" />
<path d="M50.9340 25.2660
L50.0140 25.2660
" />
<path d="M50.9340 27.0860
L50.9340 25.2660
" />
<path d="M20.5340 44.7410
L20.5340 45.6810
" />
<path d="M20.5340 45.6810
L22.3940 45.6810
" />
<path d="M22.3940 44.7410
L20.5340 44.7410
" />
<path d="M22.3940 45.6810
L22.3940 44.7410
" />
<path d="M17.1440 48.8610
L18.0840 48.8610
" />
<path d="M17.1440 47.0010
L17.1440 48.8610
" />
<path d="M18.0840 48.8610
L18.0840 47.0010
" />
<path d="M18.0840 47.0010
L17.1440 47.0010
" />
<path d="M71.2340 36.0460
L71.2340 37.9060
" />
<path d="M71.2340 37.9060
L72.1740 37.9060
" />
<path d="M72.1740 36.0460
L71.2340 36.0460
" />
<path d="M72.1740 37.9060
L72.1740 36.0460
" />
<circle cx="29.8890" cy="42.1260" r="1.0000" /> 
<path d="M68.0915 28.2435
L68.0915 29.1835
" />
<path d="M68.0915 29.1835
L69.9515 29.1835
" />
<path d="M69.9515 28.2435
L68.0915 28.2435
" />
<path d="M69.9515 29.1835
L69.9515 28.2435
" />
<path d="M41.8340 37.4860
L41.8340 38.4260
" />
<path d="M41.8340 38.4260
L43.6940 38.4260
" />
<path d="M43.6940 37.4860
L41.8340 37.4860
" />
<path d="M43.6940 38.4260
L43.6940 37.4860
" />
<path d="M41.8340 38.3660
L41.8340 39.3060
" />
<path d="M41.8340 39.3060
L43.6940 39.3060
" />
<path d="M43.6940 38.3660
L41.8340 38.3660
" />
<path d="M43.6940 39.3060
L43.6940 38.3660
" />
<path d="M66.8290 30.2685
L66.8290 32.3685
" />
<path d="M66.8290 32.3685
L67.0290 32.3685
" />
<path d="M67.0290 29.2685
L67.0290 30.2685
" />
<path d="M67.0290 30.2685
L66.8290 30.2685
" />
<path d="M67.0290 32.3685
L67.0290 33.3685
" />
<path d="M67.0290 33.3685
L70.0290 33.3685
" />
<path d="M70.0290 29.2685
L67.0290 29.2685
" />
<path d="M70.0290 30.2685
L70.0290 29.2685
" />
<path d="M70.0290 32.3685
L70.2290 32.3685
" />
<path d="M70.0290 33.3685
L70.0290 32.3685
" />
<path d="M70.2290 30.2685
L70.0290 30.2685
" />
<path d="M70.2290 32.3685
L70.2290 30.2685
" />
<path d="M13.9102 37.8146
L13.9102 38.7346
" />
<path d="M13.9102 38.7346
L15.7302 38.7346
" />
<path d="M15.7302 37.8146
L13.9102 37.8146
" />
<path d="M15.7302 38.7346
L15.7302 37.8146
" />
<path d="M56.6302 37.1735
L56.6302 39.6735
" />
<path d="M56.6302 39.6735
L58.0302 39.6735
" />
<path d="M58.0302 37.1735
L56.6302 37.1735
" />
<path d="M58.0302 39.6735
L58.0302 37.1735
" />
<path d="M67.2990 35.9510
L67.2990 37.0510
" />
<path d="M67.2990 37.0510
L68.3290 37.0510
" />
<path d="M68.3290 34.8010
L68.3290 35.9510
" />
<path d="M68.3290 38.2010
L70.1290 38.2010
" />
<path d="M68.3290 35.9510
L67.2990 35.9510
" />
<path d="M68.3290 37.0510
L68.3290 38.2010
" />
<path d="M70.1290 35.0010
L70.1290 34.8010
" />
<path d="M70.1290 38.0010
L71.1590 38.0010
" />
<path d="M70.1290 34.8010
L68.3290 34.8010
" />
<path d="M70.1290 38.2010
L70.1290 38.0010
" />
<path d="M71.1590 35.0010
L70.1290 35.0010
" />
<path d="M71.1590 38.0010
L71.1590 35.0010
" />
<path d="M37.1217 46.7244
L37.1217 48.5844
" />
<path d="M37.1217 48.5844
L38.0617 48.5844
" />
<path d="M38.0617 46.7244
L37.1217 46.7244
" />
<path d="M38.0617 48.5844
L38.0617 46.7244
" />
<path d="M15.9302 32.2046
L15.9302 29.0046
" />
<path d="M15.9302 32.2046
L19.3302 32.2046
" />
<path d="M19.3302 29.0046
L15.9302 29.0046
" />
<path d="M19.3302 29.0046
L19.3302 32.2046
" />
<path d="M44.4284 42.0211
L44.4284 43.8811
" />
<path d="M44.4284 43.8811
L45.3684 43.8811
" />
<path d="M45.3684 42.0211
L44.4284 42.0211
" />
<path d="M45.3684 43.8811
L45.3684 42.0211
" />
<path d="M10.5302 51.7746
L10.5302 55.7746
" />
<path d="M10.5302 55.7746
L11.9302 55.7746
" />
<path d="M11.9302 51.7746
L10.5302 51.7746
" />
<path d="M11.9302 55.7746
L11.9302 58.2246
" />
<path d="M11.9302 49.3246
L11.9302 51.7746
" />
<path d="M11.9302 58.2246
L16.3202 58.2246
" />
<path d="M16.3202 49.1746
L16.3202 49.3246
" />
<path d="M16.3202 49.3246
L11.9302 49.3246
" />
<path d="M16.3202 58.2246
L16.3202 58.3746
" />
<path d="M16.3202 58.3746
L20.7302 58.3746
" />
<path d="M20.5302 51.6746
L20.7302 51.6746
" />
<path d="M20.5302 55.8746
L20.5302 51.6746
" />
<path d="M20.7302 49.1746
L16.3202 49.1746
" />
<path d="M20.7302 51.6746
L20.7302 49.1746
" />
<path d="M20.7302 55.8746
L20.5302 55.8746
" />
<path d="M20.7302 58.3746
L20.7302 55.8746
" />
<path d="M16.2440 26.8060
L16.2440 28.6660
" />
<path d="M16.2440 28.6660
L17.1840 28.6660
" />
<path d="M17.1840 26.8060
L16.2440 26.8060
" />
<path d="M17.1840 28.6660
L17.1840 26.8060
" />
<path d="M38.2252 47.7021
L38.2252 50.8021
" />
<path d="M38.2252 50.8021
L38.5752 50.8021
" />
<path d="M38.5752 47.0021
L38.5752 47.7021
" />
<path d="M38.5752 47.7021
L38.2252 47.7021
" />
<path d="M38.5752 50.8021
L38.5752 51.5021
" />
<path d="M38.5752 51.5021
L39.2752 51.5021
" />
<path d="M39.2752 46.6521
L39.2752 47.0021
" />
<path d="M39.2752 47.0021
L38.5752 47.0021
" />
<path d="M39.2752 51.5021
L39.2752 51.8521
" />
<path d="M39.2752 51.8521
L42.3752 51.8521
" />
<path d="M42.3752 46.6521
L39.2752 46.6521
" />
<path d="M42.3752 47.0021
L42.3752 46.6521
" />
<path d="M42.3752 51.5021
L43.0752 51.5021
" />
<path d="M42.3752 51.8521
L42.3752 51.5021
" />
<path d="M43.0752 47.0021
L42.3752 47.0021
" />
<path d="M43.0752 47.7021
L43.0752 47.0021
" />
<path d="M43.0752 50.8021
L43.4252 50.8021
" />
<path d="M43.0752 51.5021
L43.0752 50.8021
" />
<path d="M43.4252 47.7021
L43.0752 47.7021
" />
<path d="M43.4252 50.8021
L43.4252 47.7021
" />
<path d="M18.3065 41.8564
L19.5934 43.1433
" />
<path d="M18.9570 41.2059
L18.3065 41.8564
" />
<path d="M19.5934 43.1433
L20.2439 42.4928
" />
<path d="M20.2439 42.4928
L18.9570 41.2059
" />
<path d="M63.6390 34.9360
L63.6390 35.8560
" />
<path d="M63.6390 35.8560
L65.4590 35.8560
" />
<path d="M65.4590 34.9360
L63.6390 34.9360
" />
<path d="M65.4590 35.8560
L65.4590 34.9360
" />
<path d="M46.3640 25.2910
L46.3640 26.2110
" />
<path d="M46.3640 26.2110
L48.1840 26.2110
" />
<path d="M48.1840 25.2910
L46.3640 25.2910
" />
<path d="M48.1840 26.2110
L48.1840 25.2910
" />
<path d="M62.9802 82.0446
L62.9802 84.8546
" />
<path d="M62.9802 84.8546
L65.1902 84.8546
" />
<path d="M63.3802 79.3946
L63.3802 82.0446
" />
<path d="M63.3802 82.0446
L62.9802 82.0446
" />
<path d="M64.5802 78.2946
L64.5802 79.3946
" />
<path d="M64.5802 79.3946
L63.3802 79.3946
" />
<path d="M65.1902 84.6546
L68.5702 84.6546
" />
<path d="M65.1902 84.8546
L65.1902 84.6546
" />
<path d="M68.5702 84.6546
L68.5702 84.8546
" />
<path d="M68.5702 84.8546
L70.7802 84.8546
" />
<path d="M69.1802 78.2946
L64.5802 78.2946
" />
<path d="M69.1802 79.3946
L69.1802 78.2946
" />
<path d="M70.3802 79.3946
L69.1802 79.3946
" />
<path d="M70.3802 82.0446
L70.3802 79.3946
" />
<path d="M70.7802 82.0446
L70.3802 82.0446
" />
<path d="M70.7802 84.8546
L70.7802 82.0446
" />
<path d="M15.6003 41.4893
L16.9155 42.8045
" />
<path d="M16.2649 40.8247
L15.6003 41.4893
" />
<path d="M16.9155 42.8045
L17.5801 42.1399
" />
<path d="M17.5801 42.1399
L16.2649 40.8247
" />
<path d="M45.5048 56.7820
L56.7048 56.7820
" />
<path d="M45.5048 53.2320
L45.5048 56.7820
" />
<path d="M56.7048 53.2320
L45.5048 53.2320
" />
<path d="M56.7048 56.7820
L56.7048 53.2320
" />
<circle cx="20.4440" cy="30.1260" r="1.0000" /> 
<path d="M48.2784 42.4221
L48.2784 44.2421
" />
<path d="M48.2784 44.2421
L49.1984 44.2421
" />
<path d="M49.1984 42.4221
L48.2784 42.4221
" />
<path d="M49.1984 44.2421
L49.1984 42.4221
" />
<path d="M9.7302 44.1746
L9.7302 46.0346
" />
<path d="M9.7302 46.0346
L10.6702 46.0346
" />
<path d="M10.6702 44.1746
L9.7302 44.1746
" />
<path d="M10.6702 46.0346
L10.6702 44.1746
" />
<path d="M11.9652 44.1796
L11.9652 46.0396
" />
<path d="M11.9652 46.0396
L12.9052 46.0396
" />
<path d="M12.9052 44.1796
L11.9652 44.1796
" />
<path d="M12.9052 46.0396
L12.9052 44.1796
" />
<path d="M54.5356 25.2528
L54.5356 27.0728
" />
<path d="M54.5356 27.0728
L55.4556 27.0728
" />
<path d="M55.4556 25.2528
L54.5356 25.2528
" />
<path d="M55.4556 27.0728
L55.4556 25.2528
" />
<path d="M61.0640 38.3660
L61.0640 43.4660
" />
<path d="M61.0640 43.4660
L72.1640 43.4660
" />
<path d="M72.1640 38.3660
L61.0640 38.3660
" />
<path d="M72.1640 43.2660
L72.3140 43.2660
" />
<path d="M72.1640 43.4660
L72.1640 43.2660
" />
<path d="M72.3140 38.3660
L72.1640 38.3660
" />
<path d="M72.3140 39.7160
L72.3140 38.3660
" />
<path d="M72.3140 42.1160
L72.5640 42.1160
" />
<path d="M72.3140 43.2660
L72.3140 42.1160
" />
<path d="M72.5640 39.7160
L72.3140 39.7160
" />
<path d="M72.5640 42.1160
L72.5640 39.7160
" />
<path d="M13.5390 41.1210
L13.5390 42.9410
" />
<path d="M13.5390 42.9410
L14.4590 42.9410
" />
<path d="M14.4590 41.1210
L13.5390 41.1210
" />
<path d="M14.4590 42.9410
L14.4590 41.1210
" />
<path d="M58.5740 25.2285
L58.5740 26.1685
" />
<path d="M58.5740 26.1685
L60.4340 26.1685
" />
<path d="M60.4340 25.2285
L58.5740 25.2285
" />
<path d="M60.4340 26.1685
L60.4340 25.2285
" />
<path d="M45.3740 21.2760
L50.1740 21.2760
" />
<path d="M45.3740 24.5760
L45.3740 21.2760
" />
<path d="M50.1740 21.2760
L50.1740 24.5760
" />
<path d="M50.1740 24.5760
L45.3740 24.5760
" />
<path d="M9.8490 52.9510
L9.8490 54.7710
" />
<path d="M9.8490 54.7710
L10.7690 54.7710
" />
<path d="M10.7690 52.9510
L9.8490 52.9510
" />
<path d="M10.7690 54.7710
L10.7690 52.9510
" />
<circle cx="46.5640" cy="49.1760" r="1.0000" /> 
<path d="M13.0352 44.2246
L13.0352 46.0446
" />
<path d="M13.0352 46.0446
L13.9552 46.0446
" />
<path d="M13.9552 44.2246
L13.0352 44.2246
" />
<path d="M13.9552 46.0446
L13.9552 44.2246
" />
<path d="M15.6503 44.5421
L16.0887 44.9805
" />
<path d="M15.8200 43.8350
L16.0887 44.1037
" />
<path d="M15.8200 45.2492
L17.4181 46.8473
" />
<path d="M16.0887 44.1037
L15.6503 44.5421
" />
<path d="M16.0887 44.9805
L15.8200 45.2492
" />
<path d="M17.4181 42.2369
L15.8200 43.8350
" />
<path d="M17.4181 46.8473
L17.6868 46.5786
" />
<path d="M17.6868 42.5056
L17.4181 42.2369
" />
<path d="M17.6868 46.5786
L18.1252 47.0170
" />
<path d="M18.1252 42.0672
L17.6868 42.5056
" />
<path d="M18.1252 47.0170
L18.5636 46.5786
" />
<path d="M18.5636 42.5056
L18.1252 42.0672
" />
<path d="M18.5636 46.5786
L18.8323 46.8473
" />
<path d="M18.8323 42.2369
L18.5636 42.5056
" />
<path d="M18.8323 46.8473
L20.4304 45.2492
" />
<path d="M20.1617 44.1037
L20.4304 43.8350
" />
<path d="M20.1617 44.9805
L20.6001 44.5421
" />
<path d="M20.4304 43.8350
L18.8323 42.2369
" />
<path d="M20.4304 45.2492
L20.1617 44.9805
" />
<path d="M20.6001 44.5421
L20.1617 44.1037
" />
<circle cx="20.4440" cy="22.5060" r="1.0000" /> 
<path d="M61.0615 28.5435
L61.0615 34.2435
" />
<path d="M61.0615 34.2435
L62.4115 34.2435
" />
<path d="M62.4115 28.1435
L62.4115 28.5435
" />
<path d="M62.4115 28.5435
L61.0615 28.5435
" />
<path d="M62.4115 34.2435
L62.4115 34.6435
" />
<path d="M62.4115 34.6435
L65.4115 34.6435
" />
<path d="M65.4115 28.1435
L62.4115 28.1435
" />
<path d="M65.4115 28.5435
L65.4115 28.1435
" />
<path d="M65.4115 34.2435
L66.7615 34.2435
" />
<path d="M65.4115 34.6435
L65.4115 34.2435
" />
<path d="M66.7615 28.5435
L65.4115 28.5435
" />
<path d="M66.7615 34.2435
L66.7615 28.5435
" />
<circle cx="47.6640" cy="20.6910" r="1.0000" /> 
<path d="M41.7475 27.2112
L41.7475 28.1512
" />
<path d="M41.7475 28.1512
L43.6075 28.1512
" />
<path d="M43.6075 27.2112
L41.7475 27.2112
" />
<path d="M43.6075 28.1512
L43.6075 27.2112
" />
<path d="M43.8752 48.4046
L43.8752 49.3246
" />
<path d="M43.8752 49.3246
L45.6952 49.3246
" />
<path d="M45.6952 48.4046
L43.8752 48.4046
" />
<path d="M45.6952 49.3246
L45.6952 48.4046
" />
<path d="M36.1602 50.4396
L36.1602 52.2596
" />
<path d="M36.1602 52.2596
L37.0802 52.2596
" />
<path d="M37.0802 50.4396
L36.1602 50.4396
" />
<path d="M37.0802 52.2596
L37.0802 50.4396
" />
<path d="M41.7340 26.2010
L41.7340 27.1410
" />
<path d="M41.7340 27.1410
L43.5940 27.1410
" />
<path d="M43.5940 26.2010
L41.7340 26.2010
" />
<path d="M43.5940 27.1410
L43.5940 26.2010
" />
<path d="M50.8990 24.7160
L50.8990 27.2160
" />
<path d="M50.8990 27.2160
L52.2990 27.2160
" />
<path d="M52.2990 24.7160
L50.8990 24.7160
" />
<path d="M52.2990 27.2160
L52.2990 24.7160
" />
<path d="M20.5540 43.7460
L20.5540 44.6860
" />
<path d="M20.5540 44.6860
L22.4140 44.6860
" />
<path d="M22.4140 43.7460
L20.5540 43.7460
" />
<path d="M22.4140 44.6860
L22.4140 43.7460
" />
<path d="M44.8840 37.3260
L44.8840 39.1460
" />
<path d="M44.8840 39.1460
L45.8040 39.1460
" />
<path d="M45.8040 37.3260
L44.8840 37.3260
" />
<path d="M45.8040 39.1460
L45.8040 37.3260
" />
<circle cx="21.8240" cy="48.4410" r="1.0000" /> 
<path d="M41.6690 22.0710
L41.6690 23.8910
" />
<path d="M41.6690 23.8910
L42.5890 23.8910
" />
<path d="M42.5890 22.0710
L41.6690 22.0710
" />
<path d="M42.5890 23.8910
L42.5890 22.0710
" />
<path d="M20.7940 36.2360
L20.7940 38.0960
" />
<path d="M20.7940 38.0960
L21.7340 38.0960
" />
<path d="M21.7340 36.2360
L20.7940 36.2360
" />
<path d="M21.7340 38.0960
L21.7340 36.2360
" />
<path d="M55.5390 25.2610
L55.5390 27.0810
" />
<path d="M55.5390 27.0810
L56.4590 27.0810
" />
<path d="M56.4590 25.2610
L55.5390 25.2610
" />
<path d="M56.4590 27.0810
L56.4590 25.2610
" />
<path d="M23.6475 44.8225
L23.6475 45.7625
" />
<path d="M23.6475 45.7625
L25.5075 45.7625
" />
<path d="M25.5075 44.8225
L23.6475 44.8225
" />
<path d="M25.5075 45.7625
L25.5075 44.8225
" />
<circle cx="14.0690" cy="40.6160" r="1.0000" /> 
<path d="M54.3390 39.8824
L54.3390 41.7424
" />
<path d="M54.3390 41.7424
L55.2790 41.7424
" />
<path d="M55.2790 39.8824
L54.3390 39.8824
" />
<path d="M55.2790 41.7424
L55.2790 39.8824
" />
<path d="M41.6690 23.9010
L41.6690 25.7610
" />
<path d="M41.6690 25.7610
L42.6090 25.7610
" />
<path d="M42.6090 23.9010
L41.6690 23.9010
" />
<path d="M42.6090 25.7610
L42.6090 23.9010
" />
<path d="M46.9940 34.4935
L46.9940 36.3535
" />
<path d="M46.9940 36.3535
L47.9340 36.3535
" />
<path d="M47.9340 34.4935
L46.9940 34.4935
" />
<path d="M47.9340 36.3535
L47.9340 34.4935
" />
<path d="M19.8301 42.8229
L20.8201 43.8129
" />
<path d="M20.8201 43.8129
L22.5879 42.0451
" />
<path d="M21.5979 41.0551
L19.8301 42.8229
" />
<path d="M22.5879 42.0451
L21.5979 41.0551
" />
<circle cx="16.9240" cy="37.3560" r="1.0000" /> 
<path d="M13.9252 36.8196
L13.9252 37.7396
" />
<path d="M13.9252 37.7396
L15.7452 37.7396
" />
<path d="M15.7452 36.8196
L13.9252 36.8196
" />
<path d="M15.7452 37.7396
L15.7452 36.8196
" />
<path d="M22.5840 43.7960
L22.5840 45.6560
" />
<path d="M22.5840 45.6560
L23.5240 45.6560
" />
<path d="M23.5240 43.7960
L22.5840 43.7960
" />
<path d="M23.5240 45.6560
L23.5240 43.7960
" />
<path d="M9.5202 40.8521
L9.5202 43.8521
" />
<path d="M9.5202 43.8521
L10.5202 43.8521
" />
<path d="M10.5202 40.6521
L10.5202 40.8521
" />
<path d="M10.5202 44.0521
L12.6202 44.0521
" />
<path d="M10.5202 40.8521
L9.5202 40.8521
" />
<path d="M10.5202 43.8521
L10.5202 44.0521
" />
<path d="M12.6202 40.8521
L12.6202 40.6521
" />
<path d="M12.6202 43.8521
L13.6202 43.8521
" />
<path d="M12.6202 40.6521
L10.5202 40.6521
" />
<path d="M12.6202 44.0521
L12.6202 43.8521
" />
<path d="M13.6202 40.8521
L12.6202 40.8521
" />
<path d="M13.6202 43.8521
L13.6202 40.8521
" />
<path d="M49.2134 42.4271
L49.2134 44.2471
" />
<path d="M49.2134 44.2471
L50.1334 44.2471
" />
<path d="M50.1334 42.4271
L49.2134 42.4271
" />
<path d="M50.1334 44.2471
L50.1334 42.4271
" />
<path d="M10.8752 44.1846
L10.8752 46.0446
" />
<path d="M10.8752 46.0446
L11.8152 46.0446
" />
<path d="M11.8152 44.1846
L10.8752 44.1846
" />
<path d="M11.8152 46.0446
L11.8152 44.1846
" />
<path d="M16.4377 38.7296
L16.4377 39.8296
" />
<path d="M16.4377 39.8296
L17.4677 39.8296
" />
<path d="M17.4677 37.5796
L17.4677 38.7296
" />
<path d="M17.4677 40.9796
L19.2677 40.9796
" />
<path d="M17.4677 38.7296
L16.4377 38.7296
" />
<path d="M17.4677 39.8296
L17.4677 40.9796
" />
<path d="M19.2677 37.7796
L19.2677 37.5796
" />
<path d="M19.2677 40.7796
L20.2977 40.7796
" />
<path d="M19.2677 37.5796
L17.4677 37.5796
" />
<path d="M19.2677 40.9796
L19.2677 40.7796
" />
<path d="M20.2977 37.7796
L19.2677 37.7796
" />
<path d="M20.2977 40.7796
L20.2977 37.7796
" />
<path d="M31.4802 82.0446
L31.4802 84.8546
" />
<path d="M31.4802 84.8546
L33.6902 84.8546
" />
<path d="M31.8802 79.3946
L31.8802 82.0446
" />
<path d="M31.8802 82.0446
L31.4802 82.0446
" />
<path d="M33.0802 78.2946
L33.0802 79.3946
" />
<path d="M33.0802 79.3946
L31.8802 79.3946
" />
<path d="M33.6902 84.6546
L37.0702 84.6546
" />
<path d="M33.6902 84.8546
L33.6902 84.6546
" />
<path d="M37.0702 84.6546
L37.0702 84.8546
" />
<path d="M37.0702 84.8546
L39.2802 84.8546
" />
<path d="M37.6802 78.2946
L33.0802 78.2946
" />
<path d="M37.6802 79.3946
L37.6802 78.2946
" />
<path d="M38.8802 79.3946
L37.6802 79.3946
" />
<path d="M38.8802 82.0446
L38.8802 79.3946
" />
<path d="M39.2802 82.0446
L38.8802 82.0446
" />
<path d="M39.2802 84.8546
L39.2802 82.0446
" />
<path d="M53.2690 39.8774
L53.2690 41.6974
" />
<path d="M53.2690 41.6974
L54.1890 41.6974
" />
<path d="M54.1890 39.8774
L53.2690 39.8774
" />
<path d="M54.1890 41.6974
L54.1890 39.8774
" />
<circle cx="69.9490" cy="26.1610" r="1.0000" /> 
<circle cx="33.7190" cy="44.9510" r="1.0000" /> 
<path d="M46.2434 44.5271
L46.2434 46.3871
" />
<path d="M46.2434 46.3871
L47.1834 46.3871
" />
<path d="M47.1834 44.5271
L46.2434 44.5271
" />
<path d="M47.1834 46.3871
L47.1834 44.5271
" />
<path d="M67.0540 26.2860
L67.0540 28.1060
" />
<path d="M67.0540 28.1060
L67.9740 28.1060
" />
<path d="M67.9740 26.2860
L67.0540 26.2860
" />
<path d="M67.9740 28.1060
L67.9740 26.2860
" />
<path d="M68.0965 27.2285
L68.0965 28.1685
" />
<path d="M68.0965 28.1685
L69.9565 28.1685
" />
<path d="M69.9565 27.2285
L68.0965 27.2285
" />
<path d="M69.9565 28.1685
L69.9565 27.2285
" />
<path d="M7.6230 0.0250
L55.6230 0.0250
" />
<path d="M7.6230 21.0250
L7.6230 0.0250
" />
<path d="M21.8730 21.0250
L7.6230 21.0250
" />
<path d="M21.8730 21.0250
L21.8730 41.2250
" />
<path d="M41.3730 41.2250
L21.8730 41.2250
" />
<path d="M41.3730 41.2250
L41.3730 21.0250
" />
<path d="M55.6230 0.0250
L55.6230 21.0250
" />
<path d="M55.6230 21.0250
L41.3730 21.0250
" />
<path d="M60.9340 22.3110
L60.9340 24.1710
" />
<path d="M60.9340 24.1710
L61.8740 24.1710
" />
<path d="M61.8740 22.3110
L60.9340 22.3110
" />
<path d="M61.8740 24.1710
L61.8740 22.3110
" />
<path d="M45.8140 37.0660
L45.8140 39.3660
" />
<path d="M49.8140 37.0660
L45.8140 37.0660
" />
<path d="M49.8140 37.0660
L49.8140 39.3660
" />
<path d="M49.8140 39.3660
L45.8140 39.3660
" />
<path d="M59.0190 39.8810
L59.0190 41.7410
" />
<path d="M59.0190 41.7410
L59.9590 41.7410
" />
<path d="M59.9590 39.8810
L59.0190 39.8810
" />
<path d="M59.9590 41.7410
L59.9590 39.8810
" />
<path d="M33.0340 41.4810
L33.0340 43.9810
" />
<path d="M33.0340 43.9810
L34.4340 43.9810
" />
<path d="M34.4340 41.4810
L33.0340 41.4810
" />
<path d="M34.4340 43.9810
L34.4340 41.4810
" />
<path d="M6.8502 24.8246
L15.7802 24.8246
" />
<path d="M6.8502 35.3646
L6.8502 24.8246
" />
<path d="M15.7802 24.8246
L15.7802 35.3646
" />
<path d="M15.7802 35.3646
L6.8502 35.3646
" />
<circle cx="20.4440" cy="27.5860" r="1.0000" /> 
<circle cx="37.3240" cy="42.1060" r="1.0000" /> 
<circle cx="28.3390" cy="42.1210" r="1.0000" /> 
<path d="M34.0990 49.4860
L34.0990 50.4260
" />
<path d="M34.0990 50.4260
L35.9590 50.4260
" />
<path d="M35.9590 49.4860
L34.0990 49.4860
" />
<path d="M35.9590 50.4260
L35.9590 49.4860
" />
<path d="M37.1052 50.4646
L37.1052 52.2846
" />
<path d="M37.1052 52.2846
L38.0252 52.2846
" />
<path d="M38.0252 50.4646
L37.1052 50.4646
" />
<path d="M38.0252 52.2846
L38.0252 50.4646
" />
<path d="M42.7240 24.8910
L42.7240 25.8110
" />
<path d="M42.7240 25.8110
L44.5440 25.8110
" />
<path d="M44.5440 24.8910
L42.7240 24.8910
" />
<path d="M44.5440 25.8110
L44.5440 24.8910
" />
<path d="M70.1215 27.2735
L70.1215 29.0935
" />
<path d="M70.1215 29.0935
L71.0415 29.0935
" />
<path d="M71.0415 27.2735
L70.1215 27.2735
" />
<path d="M71.0415 29.0935
L71.0415 27.2735
" />
<path d="M49.7690 20.2360
L49.7690 21.1760
" />
<path d="M49.7690 21.1760
L51.6290 21.1760
" />
<path d="M51.6290 20.2360
L49.7690 20.2360
" />
<path d="M51.6290 21.1760
L51.6290 20.2360
" />
<path d="M47.8240 34.4985
L47.8240 36.3585
" />
<path d="M47.8240 36.3585
L48.7640 36.3585
" />
<path d="M48.7640 34.4985
L47.8240 34.4985
" />
<path d="M48.7640 36.3585
L48.7640 34.4985
" />
<path d="M56.6990 39.8674
L56.6990 41.7274
" />
<path d="M56.6990 41.7274
L57.6390 41.7274
" />
<path d="M57.6390 39.8674
L56.6990 39.8674
" />
<path d="M57.6390 41.7274
L57.6390 39.8674
" />
<circle cx="48.9690" cy="46.3710" r="1.0000" /> 
<path d="M14.8515 43.5078
L15.5020 44.1583
" />
<path d="M15.5020 44.1583
L16.7889 42.8714
" />
<path d="M16.1384 42.2209
L14.8515 43.5078
" />
<path d="M16.7889 42.8714
L16.1384 42.2209
" />
<path d="M46.3490 26.2760
L46.3490 27.1960
" />
<path d="M46.3490 27.1960
L48.1690 27.1960
" />
<path d="M48.1690 26.2760
L46.3490 26.2760
" />
<path d="M48.1690 27.1960
L48.1690 26.2760
" />
<path d="M36.1617 46.7194
L36.1617 48.5794
" />
<path d="M36.1617 48.5794
L37.1017 48.5794
" />
<path d="M37.1017 46.7194
L36.1617 46.7194
" />
<path d="M37.1017 48.5794
L37.1017 46.7194
" />
<path d="M45.7409 41.9721
L45.7409 44.4721
" />
<path d="M45.7409 44.4721
L48.2409 44.4721
" />
<path d="M48.2409 41.9721
L45.7409 41.9721
" />
<path d="M48.2409 44.4721
L48.2409 41.9721
" />
<path d="M19.3552 35.4396
L19.3552 37.2996
" />
<path d="M19.3552 37.2996
L20.2952 37.2996
" />
<path d="M20.2952 35.4396
L19.3552 35.4396
" />
<path d="M20.2952 37.2996
L20.2952 35.4396
" />
<path d="M16.1302 32.2346
L16.1302 34.0946
" />
<path d="M16.1302 34.0946
L17.0702 34.0946
" />
<path d="M17.0702 32.2346
L16.1302 32.2346
" />
<path d="M17.0702 34.0946
L17.0702 32.2346
" />
<path d="M44.3140 22.0160
L44.3140 23.8360
" />
<path d="M44.3140 23.8360
L45.2340 23.8360
" />
<path d="M45.2340 22.0160
L44.3140 22.0160
" />
<path d="M45.2340 23.8360
L45.2340 22.0160
" />
<path d="M18.2259 47.0001
L18.2259 48.8601
" />
<path d="M18.2259 48.8601
L19.1659 48.8601
" />
<path d="M19.1659 47.0001
L18.2259 47.0001
" />
<path d="M19.1659 48.8601
L19.1659 47.0001
" />
<path d="M43.8852 47.3996
L43.8852 48.3196
" />
<path d="M43.8852 48.3196
L45.7052 48.3196
" />
<path d="M45.7052 47.3996
L43.8852 47.3996
" />
<path d="M45.7052 48.3196
L45.7052 47.3996
" />
<path d="M53.5402 37.1510
L53.5402 39.6510
" />
<path d="M53.5402 39.6510
L54.9402 39.6510
" />
<path d="M54.9402 37.1510
L53.5402 37.1510
" />
<path d="M54.9402 39.6510
L54.9402 37.1510
" />
<path d="M57.8840 39.8824
L57.8840 41.7424
" />
<path d="M57.8840 41.7424
L58.8240 41.7424
" />
<path d="M58.8240 39.8824
L57.8840 39.8824
" />
<path d="M58.8240 41.7424
L58.8240 39.8824
" />
<circle cx="20.4440" cy="25.0460" r="1.0000" /> 
<path d="M9.5402 36.6046
L9.5402 40.1646
" />
<path d="M9.5402 40.1646
L13.3402 40.1646
" />
<path d="M13.3402 36.6046
L9.5402 36.6046
" />
<path d="M13.3402 40.1646
L13.3402 36.6046
" />
</g> 
</svg>
