<?xml version="1.0" standalone="no"?>
 <!DOCTYPE svg PUBLIC "-//W3C//DTD SVG 1.1//EN" 
 "http://www.w3.org/Graphics/SVG/1.1/DTD/svg11.dtd"> 
<svg
  xmlns:svg="http://www.w3.org/2000/svg"
  xmlns="http://www.w3.org/2000/svg"
  xmlns:xlink="http://www.w3.org/1999/xlink"
  xmlns:inkscape="http://www.inkscape.org/namespaces/inkscape"
  version="1.1"
  width="101.0920mm" height="86.7918mm" viewBox="0.0000 0.0000 101.0920 86.7918">
<title>SVG Image created as v0-Replay-26_PCB-A-B_Silkscreen.svg date 2026-04-06T07:18:33 </title>
  <desc>Image generated by PCBNEW </desc>
<g style="fill:#000000; fill-opacity:1.0000;stroke:#000000; stroke-opacity:1.0000;
stroke-linecap:round; stroke-linejoin:round;"
 transform="translate(0 0) scale(1 1)">
<path style="fill:#E8B2A7; fill-opacity:1.0000; stroke:none;fill-rule:evenodd;"
d="M 37.0118,78.1210
37.0118,77.9754
36.7374,77.9754
36.7374,77.0095
37.0118,77.0095
37.0118,76.8624
36.3076,76.8624
36.3076,77.0095
36.5820,77.0095
36.5820,77.9754
36.3076,77.9754
36.3076,78.1210
Z" /> 
<path style="fill:#E8B2A7; fill-opacity:1.0000; stroke:none;fill-rule:evenodd;"
d="M 36.0326,77.2947
35.8702,77.2947
35.8677,77.2204
35.8583,77.1590
35.8489,77.1300
35.8360,77.1046
35.8216,77.0856
35.8039,77.0692
35.7587,77.0438
35.6925,77.0259
35.5919,77.0161
35.5342,77.0151
35.4535,77.0172
35.3885,77.0246
35.3539,77.0329
35.3254,77.0444
35.3067,77.0563
35.2919,77.0708
35.2741,77.1048
35.2682,77.1507
35.2701,77.1816
35.2757,77.2106
35.2974,77.2642
35.3341,77.3143
35.3890,77.3638
35.4687,77.4158
35.5891,77.4782
35.6258,77.4959
35.7087,77.5364
35.7902,77.5796
35.8671,77.6274
35.9364,77.6817
35.9672,77.7119
35.9950,77.7444
36.0192,77.7795
36.0396,77.8175
36.0557,77.8584
36.0672,77.9027
36.0736,77.9505
36.0746,78.0021
36.0746,78.1210
35.1212,78.1210
35.1212,77.9853
35.8954,77.9853
35.8935,77.9496
35.8879,77.9163
35.8663,77.8558
35.8308,77.8007
35.7794,77.7486
35.7074,77.6968
35.6053,77.6407
35.5088,77.5947
35.3549,77.5190
35.2836,77.4765
35.2194,77.4284
35.1650,77.3731
35.1423,77.3422
35.1230,77.3088
35.1074,77.2728
35.0958,77.2339
35.0887,77.1918
35.0862,77.1465
35.0881,77.1107
35.0939,77.0776
35.1029,77.0481
35.1153,77.0211
35.1494,76.9741
35.1971,76.9350
35.2606,76.9032
35.3436,76.8794
35.4502,76.8653
35.5342,76.8625
35.6058,76.8644
35.6708,76.8702
35.7253,76.8790
35.7746,76.8909
35.8162,76.9050
35.8535,76.9219
35.8853,76.9405
35.9136,76.9616
35.9380,76.9846
35.9593,77.0099
35.9933,77.0684
36.0171,77.1401
36.0303,77.2295
Z" /> 
<path style="fill:#E8B2A7; fill-opacity:1.0000; stroke:none;fill-rule:evenodd;"
d="M 33.7486,77.5882
33.9124,77.5882
33.9143,77.6429
33.9201,77.6933
33.9290,77.7367
33.9412,77.7765
33.9558,77.8109
33.9734,77.8421
33.9932,77.8693
34.0156,77.8936
34.0683,77.9335
34.1330,77.9628
34.2125,77.9815
34.3100,77.9881
34.3565,77.9862
34.4000,77.9804
34.4391,77.9714
34.4754,77.9589
34.5083,77.9436
34.5386,77.9251
34.5914,77.8795
34.6349,77.8214
34.6693,77.7492
34.6939,77.6609
34.7072,77.5542
34.7090,77.4931
34.7070,77.4280
34.7009,77.3664
34.6917,77.3134
34.6789,77.2639
34.6638,77.2215
34.6455,77.1822
34.6255,77.1488
34.6025,77.1184
34.5779,77.0924
34.5505,77.0694
34.5212,77.0501
34.4892,77.0337
34.4172,77.0103
34.3322,76.9999
34.3100,76.9994
34.2567,77.0014
34.2070,77.0073
34.1641,77.0164
34.1244,77.0290
34.0901,77.0440
34.0586,77.0622
34.0312,77.0825
34.0066,77.1059
33.9850,77.1317
33.9662,77.1604
33.9367,77.2272
33.9182,77.3089
33.9124,77.3994
33.7486,77.3994
33.7505,77.3431
33.7563,77.2892
33.7656,77.2391
33.7785,77.1916
33.7943,77.1479
33.8135,77.1066
33.8353,77.0688
33.8602,77.0337
33.8877,77.0017
33.9180,76.9723
33.9509,76.9459
33.9867,76.9223
34.0665,76.8838
34.1581,76.8574
34.2621,76.8440
34.3100,76.8427
34.3623,76.8446
34.4120,76.8503
34.4587,76.8595
34.5029,76.8722
34.5446,76.8881
34.5837,76.9071
34.6552,76.9545
34.7176,77.0143
34.7710,77.0867
34.8146,77.1719
34.8473,77.2699
34.8677,77.3801
34.8742,77.4931
34.8722,77.5559
34.8663,77.6173
34.8569,77.6750
34.8436,77.7308
34.8274,77.7822
34.8076,77.8313
34.7855,77.8758
34.7601,77.9176
34.7327,77.9551
34.7024,77.9898
34.6704,78.0203
34.6356,78.0479
34.5991,78.0717
34.5600,78.0925
34.5191,78.1098
34.4756,78.1237
34.4298,78.1343
34.3815,78.1413
34.3100,78.1449
34.2519,78.1430
34.1968,78.1372
34.1459,78.1280
34.0978,78.1153
34.0537,78.0996
34.0124,78.0808
33.9745,78.0593
33.9394,78.0348
33.9075,78.0077
33.8783,77.9780
33.8285,77.9104
33.7901,77.8317
33.7636,77.7412
33.7501,77.6382
Z" /> 
<path style="fill:#E8B2A7; fill-opacity:1.0000; stroke:none;fill-rule:evenodd;"
d="M 68.2223,76.7740
68.2223,77.4026
68.2243,77.4742
68.2306,77.5414
68.2398,77.5956
68.2527,77.6460
68.2674,77.6875
68.2855,77.7257
68.3050,77.7576
68.3275,77.7865
68.3516,77.8110
68.3787,77.8326
68.4079,77.8509
68.4400,77.8663
68.5139,77.8883
68.6035,77.8979
68.6227,77.8981
68.6732,77.8962
68.7197,77.8905
68.7604,77.8815
68.7977,77.8694
68.8307,77.8545
68.8607,77.8367
68.9118,77.7932
68.9530,77.7378
68.9852,77.6685
69.0083,77.5819
69.0211,77.4733
69.0231,77.4026
69.0231,76.7740
69.1869,76.7740
69.1869,77.4026
69.1849,77.4655
69.1790,77.5269
69.1696,77.5847
69.1563,77.6405
69.1401,77.6919
69.1203,77.7410
69.0982,77.7856
69.0728,77.8275
69.0454,77.8649
69.0151,77.8996
68.9831,77.9302
68.9484,77.9578
68.9119,77.9817
68.8728,78.0024
68.8319,78.0197
68.7884,78.0337
68.7427,78.0442
68.6944,78.0513
68.6227,78.0549
68.5704,78.0530
68.5207,78.0473
68.4740,78.0381
68.4299,78.0255
68.3882,78.0096
68.3491,77.9905
68.2777,77.9431
68.2153,77.8833
68.1619,77.8108
68.1183,77.7255
68.0856,77.6274
68.0651,77.5169
68.0585,77.4026
68.0585,76.7740
Z" /> 
<path style="fill:#E8B2A7; fill-opacity:1.0000; stroke:none;fill-rule:evenodd;"
d="M 67.9124,78.0300
67.7304,78.0300
67.5442,77.4644
67.0514,77.4644
66.8652,78.0300
66.6846,78.0300
66.9209,77.3132
67.0962,77.3132
67.5008,77.3132
67.3553,76.8623
67.2404,76.8623
67.0962,77.3132
66.9209,77.3132
67.0990,76.7727
67.4980,76.7727
Z" /> 
<path style="fill:#E8B2A7; fill-opacity:1.0000; stroke:none;fill-rule:evenodd;"
d="M 66.5383,78.0319
66.3801,78.0319
66.3801,77.4648
65.7557,77.4648
65.7557,78.0319
65.5933,78.0319
65.5933,77.4018
65.7557,77.4018
65.7201,77.3841
65.6860,77.3623
65.6573,77.3391
65.6311,77.3123
65.6102,77.2849
65.5924,77.2546
65.5790,77.2238
65.5691,77.1904
65.5632,77.1560
65.5611,77.1191
65.5611,77.1178
65.7403,77.1178
65.7423,77.1530
65.7480,77.1838
65.7565,77.2085
65.7681,77.2300
65.7991,77.2633
65.8429,77.2877
65.9054,77.3048
65.9983,77.3142
66.0889,77.3160
66.3801,77.3160
66.3801,76.9251
66.0889,76.9251
65.9715,76.9281
65.9208,76.9331
65.8757,76.9416
65.8424,76.9519
65.8135,76.9657
65.7930,76.9801
65.7758,76.9975
65.7628,77.0163
65.7527,77.0381
65.7414,77.0918
65.7403,77.1178
65.5611,77.1178
65.5630,77.0783
65.5687,77.0416
65.5778,77.0084
65.5901,76.9777
65.6242,76.9237
65.6713,76.8778
65.7330,76.8393
65.8119,76.8084
65.9110,76.7864
66.0336,76.7749
66.0889,76.7739
66.5383,76.7739
Z" /> 
<path style="fill:#E8B2A7; fill-opacity:1.0000; stroke:none;fill-rule:evenodd;"
d="M 65.0601,78.0313
64.9047,78.0313
64.9047,76.9197
64.5393,76.9197
64.5393,76.7727
65.4255,76.7727
65.4255,76.9197
65.0601,76.9197
Z" /> 
<path style="fill:#E8B2A7; fill-opacity:1.0000; stroke:none;fill-rule:evenodd;"
d="M 10.8400,36.4769
10.9163,36.4717
10.9920,36.4563
11.0410,36.4401
11.0835,36.4207
11.1201,36.3981
11.0539,36.2681
11.0091,36.2955
10.9563,36.3170
10.9004,36.3305
10.8440,36.3349
10.8023,36.3317
10.7694,36.3230
10.7437,36.3097
10.7230,36.2905
10.7109,36.2677
10.7067,36.2402
10.7105,36.2140
10.7212,36.1922
10.7393,36.1739
10.7625,36.1613
10.7964,36.1527
10.8444,36.1493
10.9212,36.1493
10.9212,36.0377
10.7173,35.8054
10.6978,35.8668
11.0836,35.8668
11.0836,35.7300
10.5688,35.7300
10.5688,35.8398
10.7727,36.0721
10.8583,36.0226
10.8097,36.0226
10.7409,36.0271
10.6852,36.0395
10.6404,36.0585
10.6045,36.0836
10.5741,36.1164
10.5527,36.1527
10.5398,36.1934
10.5353,36.2396
10.5389,36.2803
10.5497,36.3189
10.5679,36.3561
10.5928,36.3892
10.6257,36.4183
10.6679,36.4436
10.7140,36.4613
10.7706,36.4727
Z" /> 
<path style="fill:#E8B2A7; fill-opacity:1.0000; stroke:none;fill-rule:evenodd;"
d="M 10.2001,36.4645
10.5176,35.7300
10.3334,35.7300
10.0571,36.3805
10.1649,36.3805
9.8838,35.7300
9.7151,35.7300
10.0320,36.4645
Z" /> 
<path style="fill:#E8B2A7; fill-opacity:1.0000; stroke:none;fill-rule:evenodd;"
d="M 9.4420,36.4769
9.5182,36.4717
9.5939,36.4563
9.6429,36.4401
9.6854,36.4207
9.7221,36.3981
9.6559,36.2681
9.6110,36.2955
9.5583,36.3170
9.5023,36.3305
9.4459,36.3349
9.4042,36.3317
9.3714,36.3230
9.3456,36.3097
9.3249,36.2905
9.3129,36.2677
9.3087,36.2402
9.3124,36.2140
9.3231,36.1922
9.3413,36.1739
9.3645,36.1613
9.3983,36.1527
9.4464,36.1493
9.5231,36.1493
9.5231,36.0377
9.3193,35.8054
9.2998,35.8668
9.6856,35.8668
9.6856,35.7300
9.1708,35.7300
9.1708,35.8398
9.3746,36.0721
9.4603,36.0226
9.4117,36.0226
9.3428,36.0271
9.2872,36.0395
9.2424,36.0585
9.2065,36.0836
9.1760,36.1164
9.1547,36.1527
9.1417,36.1934
9.1372,36.2396
9.1409,36.2803
9.1517,36.3189
9.1699,36.3561
9.1947,36.3892
9.2276,36.4183
9.2698,36.4436
9.3159,36.4613
9.3726,36.4727
Z" /> 
<path style="fill:#E8B2A7; fill-opacity:1.0000; stroke:none;fill-rule:evenodd;"
d="M 15.2342,39.8043
15.2925,39.8016
15.3487,39.7938
15.4031,39.7808
15.4562,39.7625
15.4991,39.7421
15.5334,39.7199
15.4757,39.5913
15.4257,39.6213
15.3641,39.6464
15.2987,39.6626
15.2333,39.6679
15.1851,39.6651
15.1516,39.6579
15.1238,39.6452
15.1062,39.6300
15.0953,39.6109
15.0917,39.5894
15.0943,39.5710
15.1019,39.5556
15.1150,39.5425
15.1407,39.5271
15.1761,39.5139
15.2594,39.4930
15.3507,39.4687
15.3949,39.4520
15.4343,39.4312
15.4684,39.4043
15.4953,39.3699
15.5078,39.3435
15.5158,39.3116
15.5186,39.2730
15.5148,39.2324
15.5036,39.1946
15.4848,39.1589
15.4592,39.1276
15.4255,39.1000
15.3821,39.0761
15.3352,39.0596
15.2781,39.0489
15.2088,39.0451
15.1405,39.0492
15.0727,39.0615
15.0084,39.0821
14.9540,39.1097
15.0070,39.2385
15.0585,39.2129
15.1096,39.1953
15.1612,39.1848
15.2103,39.1814
15.2574,39.1845
15.2911,39.1928
15.3189,39.2066
15.3362,39.2228
15.3466,39.2427
15.3501,39.2649
15.3475,39.2831
15.3399,39.2983
15.3268,39.3113
15.3011,39.3264
15.2657,39.3392
15.1822,39.3596
15.0909,39.3836
15.0469,39.4001
15.0075,39.4206
14.9734,39.4472
14.9465,39.4813
14.9340,39.5075
14.9260,39.5390
14.9232,39.5769
14.9270,39.6168
14.9383,39.6543
14.9573,39.6901
14.9830,39.7213
15.0169,39.7490
15.0604,39.7730
15.1074,39.7896
15.1647,39.8004
Z" /> 
<path style="fill:#E8B2A7; fill-opacity:1.0000; stroke:none;fill-rule:evenodd;"
d="M 14.6397,39.7919
14.6397,39.4919
14.6007,39.5949
14.9242,39.0574
14.7434,39.0574
14.4963,39.4695
14.5997,39.4695
14.3511,39.0574
14.1847,39.0574
14.5074,39.5949
14.4692,39.4919
14.4692,39.7919
Z" /> 
<path style="fill:#E8B2A7; fill-opacity:1.0000; stroke:none;fill-rule:evenodd;"
d="M 13.8867,39.8043
13.9450,39.8016
14.0012,39.7938
14.0556,39.7808
14.1087,39.7625
14.1516,39.7421
14.1859,39.7199
14.1283,39.5913
14.0782,39.6213
14.0167,39.6464
13.9513,39.6626
13.8859,39.6679
13.8376,39.6651
13.8041,39.6579
13.7763,39.6452
13.7587,39.6300
13.7478,39.6109
13.7442,39.5894
13.7468,39.5710
13.7545,39.5556
13.7675,39.5425
13.7932,39.5271
13.8286,39.5139
13.9119,39.4930
14.0032,39.4687
14.0474,39.4520
14.0868,39.4312
14.1209,39.4043
14.1479,39.3699
14.1603,39.3435
14.1683,39.3116
14.1711,39.2730
14.1673,39.2324
14.1561,39.1946
14.1373,39.1589
14.1117,39.1276
14.0780,39.1000
14.0346,39.0761
13.9877,39.0596
13.9306,39.0489
13.8614,39.0451
13.7930,39.0492
13.7253,39.0615
13.6609,39.0821
13.6065,39.1097
13.6595,39.2385
13.7111,39.2129
13.7621,39.1953
13.8138,39.1848
13.8628,39.1814
13.9099,39.1845
13.9436,39.1928
13.9714,39.2066
13.9887,39.2228
13.9991,39.2427
14.0026,39.2649
14.0000,39.2831
13.9924,39.2983
13.9793,39.3113
13.9536,39.3264
13.9182,39.3392
13.8347,39.3596
13.7434,39.3836
13.6994,39.4001
13.6600,39.4206
13.6259,39.4472
13.5990,39.4813
13.5865,39.5075
13.5785,39.5390
13.5757,39.5769
13.5795,39.6168
13.5908,39.6543
13.6099,39.6901
13.6356,39.7213
13.6695,39.7490
13.7129,39.7730
13.7599,39.7896
13.8172,39.8004
Z" /> 
<path style="fill:#E8B2A7; fill-opacity:1.0000; stroke:none;fill-rule:evenodd;"
d="M 17.7000,36.3629
17.3201,36.3629
17.2458,36.3589
17.1860,36.3480
17.1382,36.3315
17.1005,36.3101
17.0677,36.2808
17.0448,36.2470
17.0309,36.2080
17.0260,36.1623
17.0275,36.1447
17.1979,36.1447
17.2019,36.1740
17.2134,36.1963
17.2323,36.2134
17.2563,36.2248
17.2888,36.2325
17.3323,36.2354
17.5312,36.2354
17.5312,36.0535
17.3323,36.0535
17.2888,36.0564
17.2563,36.0642
17.2323,36.0758
17.2134,36.0930
17.2019,36.1155
17.1979,36.1447
17.0275,36.1447
17.0296,36.1210
17.0398,36.0855
17.0563,36.0549
17.0788,36.0281
17.1064,36.0059
17.1399,35.9880
17.1611,35.9807
17.1378,35.9672
17.1120,35.9454
17.0910,35.9196
17.0754,35.8902
17.0658,35.8573
17.0646,35.8428
17.2344,35.8428
17.2382,35.8699
17.2491,35.8912
17.2671,35.9079
17.2900,35.9192
17.3209,35.9268
17.3620,35.9297
17.5312,35.9297
17.5312,35.7559
17.3620,35.7559
17.3209,35.7587
17.2900,35.7663
17.2671,35.7775
17.2491,35.7941
17.2383,35.8154
17.2344,35.8428
17.0646,35.8428
17.0625,35.8198
17.0670,35.7782
17.0800,35.7419
17.1016,35.7097
17.1327,35.6809
17.1685,35.6596
17.2137,35.6432
17.2704,35.6324
17.3411,35.6284
17.7000,35.6284
Z" /> 
<path style="fill:#E8B2A7; fill-opacity:1.0000; stroke:none;fill-rule:evenodd;"
d="M 16.5707,36.3753
16.6340,36.3714
16.6889,36.3602
16.7368,36.3426
16.7786,36.3187
16.8151,36.2884
16.8456,36.2524
16.8698,36.2106
16.8878,36.1619
16.8992,36.1053
16.9032,36.0394
16.9032,35.6284
16.7328,35.6284
16.7328,36.0339
16.7295,36.0872
16.7206,36.1286
16.7071,36.1605
16.6898,36.1847
16.6668,36.2045
16.6396,36.2189
16.6075,36.2280
16.5693,36.2312
16.5308,36.2280
16.4986,36.2189
16.4715,36.2045
16.4486,36.1847
16.4313,36.1605
16.4179,36.1287
16.4090,36.0872
16.4057,36.0339
16.4057,35.6284
16.2383,35.6284
16.2383,36.0394
16.2423,36.1053
16.2537,36.1619
16.2717,36.2106
16.2959,36.2524
16.3264,36.2884
16.3629,36.3187
16.4047,36.3426
16.4526,36.3602
16.5075,36.3714
Z" /> 
<path style="fill:#E8B2A7; fill-opacity:1.0000; stroke:none;fill-rule:evenodd;"
d="M 15.8281,36.3753
15.8864,36.3726
15.9426,36.3648
15.9970,36.3518
16.0500,36.3335
16.0930,36.3131
16.1273,36.2909
16.0696,36.1623
16.0196,36.1923
15.9580,36.2174
15.8926,36.2336
15.8272,36.2389
15.7790,36.2361
15.7455,36.2289
15.7177,36.2162
15.7001,36.2010
15.6892,36.1819
15.6856,36.1604
15.6882,36.1420
15.6958,36.1266
15.7089,36.1135
15.7346,36.0981
15.7700,36.0849
15.8533,36.0640
15.9446,36.0397
15.9888,36.0230
16.0281,36.0022
16.0623,35.9753
16.0892,35.9409
16.1017,35.9145
16.1097,35.8826
16.1125,35.8440
16.1087,35.8034
16.0975,35.7656
16.0787,35.7299
16.0531,35.6986
16.0194,35.6710
15.9760,35.6471
15.9291,35.6306
15.8720,35.6199
15.8027,35.6161
15.7344,35.6202
15.6666,35.6325
15.6023,35.6531
15.5479,35.6807
15.6009,35.8095
15.6524,35.7839
15.7035,35.7663
15.7551,35.7558
15.8042,35.7524
15.8513,35.7555
15.8849,35.7638
15.9128,35.7776
15.9301,35.7938
15.9405,35.8137
15.9440,35.8359
15.9414,35.8541
15.9337,35.8693
15.9207,35.8823
15.8950,35.8974
15.8596,35.9102
15.7761,35.9306
15.6848,35.9546
15.6408,35.9711
15.6014,35.9916
15.5673,36.0182
15.5404,36.0523
15.5279,36.0785
15.5199,36.1100
15.5171,36.1479
15.5209,36.1878
15.5322,36.2253
15.5512,36.2611
15.5769,36.2923
15.6108,36.3200
15.6543,36.3440
15.7013,36.3606
15.7586,36.3714
Z" /> 
<path style="fill:#E8B2A7; fill-opacity:1.0000; stroke:none;fill-rule:evenodd;"
d="M 22.1185,40.5335
22.1185,39.7990
21.9482,39.7990
21.9482,40.5335
Z" /> 
<path style="fill:#E8B2A7; fill-opacity:1.0000; stroke:none;fill-rule:evenodd;"
d="M 21.4755,39.7899
21.5287,39.7994
21.5784,39.8149
21.6256,39.8366
21.6680,39.8631
21.7059,39.8947
21.7393,39.9309
21.7673,39.9709
21.7900,40.0150
21.8065,40.0618
21.8166,40.1119
21.8200,40.1660
21.8166,40.2202
21.8065,40.2704
21.7900,40.3174
21.7673,40.3617
21.7393,40.4017
21.7060,40.4379
21.6681,40.4693
21.6257,40.4959
21.5783,40.5176
21.5285,40.5331
21.4752,40.5426
21.4179,40.5459
21.3606,40.5426
21.3075,40.5332
21.2581,40.5177
21.2111,40.4962
21.1689,40.4698
21.1311,40.4384
21.0978,40.4023
21.0698,40.3623
21.0471,40.3179
21.0306,40.2708
21.0205,40.2204
21.0171,40.1661
21.0171,40.1660
21.1889,40.1660
21.1934,40.2168
21.2062,40.2616
21.2272,40.3020
21.2547,40.3362
21.2883,40.3640
21.3274,40.3847
21.3704,40.3974
21.4182,40.4018
21.4661,40.3975
21.5094,40.3848
21.5487,40.3641
21.5824,40.3361
21.6100,40.3018
21.6309,40.2613
21.6437,40.2166
21.6482,40.1660
21.6437,40.1156
21.6309,40.0710
21.6099,40.0307
21.5823,39.9965
21.5486,39.9687
21.5093,39.9479
21.4660,39.9351
21.4182,39.9307
21.3704,39.9351
21.3273,39.9479
21.2882,39.9686
21.2545,39.9965
21.2270,40.0306
21.2062,40.0708
21.1933,40.1154
21.1889,40.1660
21.0171,40.1660
21.0205,40.1118
21.0306,40.0615
21.0471,40.0146
21.0698,39.9704
21.0977,39.9304
21.1311,39.8942
21.1689,39.8628
21.2111,39.8363
21.2581,39.8148
21.3075,39.7994
21.3607,39.7899
21.4182,39.7867
Z" /> 
<path style="fill:#E8B2A7; fill-opacity:1.0000; stroke:none;fill-rule:evenodd;"
d="M 20.6784,39.7918
20.7320,39.8066
20.7811,39.8312
20.8246,39.8647
20.8619,39.9073
20.8932,39.9604
20.9152,40.0183
20.9292,40.0863
20.9341,40.1663
20.9292,40.2462
20.9152,40.3142
20.8932,40.3721
20.8619,40.4252
20.8246,40.4679
20.7811,40.5014
20.7320,40.5259
20.6784,40.5408
20.6193,40.5459
20.5602,40.5408
20.5066,40.5259
20.4574,40.5014
20.4140,40.4679
20.3767,40.4252
20.3453,40.3721
20.3233,40.3142
20.3093,40.2462
20.3044,40.1663
20.4758,40.1663
20.4781,40.2216
20.4845,40.2661
20.4941,40.3015
20.5087,40.3350
20.5256,40.3600
20.5446,40.3783
20.5671,40.3917
20.5918,40.3998
20.6193,40.4026
20.6464,40.3999
20.6710,40.3918
20.6937,40.3783
20.7128,40.3600
20.7298,40.3349
20.7444,40.3015
20.7540,40.2662
20.7604,40.2216
20.7627,40.1663
20.7604,40.1106
20.7540,40.0660
20.7444,40.0308
20.7298,39.9975
20.7128,39.9725
20.6937,39.9543
20.6710,39.9408
20.6464,39.9327
20.6193,39.9299
20.5918,39.9327
20.5671,39.9408
20.5446,39.9543
20.5256,39.9725
20.5087,39.9975
20.4941,40.0308
20.4845,40.0660
20.4782,40.1106
20.4758,40.1663
20.3044,40.1663
20.3093,40.0863
20.3233,40.0183
20.3453,39.9604
20.3767,39.9073
20.4140,39.8647
20.4574,39.8312
20.5066,39.8066
20.5602,39.7918
20.6193,39.7867
Z" /> 
<path style="fill:#E8B2A7; fill-opacity:1.0000; stroke:none;fill-rule:evenodd;"
d="M 22.8155,47.5897
22.4357,47.5897
22.3613,47.5857
22.3015,47.5748
22.2538,47.5583
22.2160,47.5369
22.1832,47.5076
22.1603,47.4738
22.1464,47.4348
22.1415,47.3891
22.1430,47.3715
22.3134,47.3715
22.3175,47.4008
22.3289,47.4231
22.3478,47.4402
22.3718,47.4516
22.4043,47.4593
22.4478,47.4622
22.6468,47.4622
22.6468,47.2803
22.4478,47.2803
22.4044,47.2832
22.3718,47.2910
22.3478,47.3026
22.3289,47.3198
22.3175,47.3423
22.3134,47.3715
22.1430,47.3715
22.1451,47.3478
22.1553,47.3123
22.1718,47.2817
22.1943,47.2549
22.2220,47.2327
22.2554,47.2148
22.2767,47.2075
22.2534,47.1940
22.2276,47.1722
22.2065,47.1464
22.1909,47.1170
22.1814,47.0841
22.1801,47.0696
22.3499,47.0696
22.3538,47.0967
22.3646,47.1180
22.3826,47.1347
22.4055,47.1460
22.4364,47.1536
22.4776,47.1565
22.6468,47.1565
22.6468,46.9827
22.4776,46.9827
22.4364,46.9855
22.4055,46.9931
22.3826,47.0043
22.3646,47.0209
22.3538,47.0422
22.3499,47.0696
22.1801,47.0696
22.1781,47.0466
22.1826,47.0050
22.1956,46.9687
22.2171,46.9365
22.2483,46.9077
22.2840,46.8864
22.3292,46.8700
22.3859,46.8592
22.4566,46.8552
22.8155,46.8552
Z" /> 
<path style="fill:#E8B2A7; fill-opacity:1.0000; stroke:none;fill-rule:evenodd;"
d="M 22.1093,47.5897
21.7819,46.8552
21.6138,46.8552
21.2857,47.5897
21.4632,47.5897
21.7327,46.9417
21.6653,46.9417
21.9347,47.5897
Z" /> 
<path style="fill:#E8B2A7; fill-opacity:1.0000; stroke:none;fill-rule:evenodd;"
d="M 21.9449,47.4326
21.9003,47.3036
21.5219,47.3036
21.4767,47.4326
Z" /> 
<path style="fill:#E8B2A7; fill-opacity:1.0000; stroke:none;fill-rule:evenodd;"
d="M 21.0934,47.5897
21.0934,46.9940
21.3281,46.9940
21.3281,46.8552
20.6883,46.8552
20.6883,46.9940
20.9230,46.9940
20.9230,47.5897
Z" /> 
<path style="fill:#E8B2A7; fill-opacity:1.0000; stroke:none;fill-rule:evenodd;"
d="M 25.0104,43.2541
25.0104,43.1404
24.6639,42.6740
24.4854,42.6740
24.8241,43.1404
24.9072,43.1153
24.3290,43.1153
24.3290,43.2541
Z" /> 
<path style="fill:#E8B2A7; fill-opacity:1.0000; stroke:none;fill-rule:evenodd;"
d="M 24.6143,43.4085
24.6143,43.2541
24.6095,43.1153
24.6095,42.9783
24.4487,42.9783
24.4487,43.4085
Z" /> 
<path style="fill:#E8B2A7; fill-opacity:1.0000; stroke:none;fill-rule:evenodd;"
d="M 24.0285,43.4209
24.1048,43.4157
24.1804,43.4003
24.2295,43.3841
24.2719,43.3647
24.3086,43.3421
24.2424,43.2121
24.1976,43.2395
24.1450,43.2610
24.0892,43.2745
24.0329,43.2789
23.9912,43.2757
23.9582,43.2669
23.9323,43.2534
23.9115,43.2341
23.8994,43.2111
23.8952,43.1832
23.8991,43.1557
23.9104,43.1326
23.9297,43.1144
23.9627,43.0993
24.0036,43.0910
24.0666,43.0877
24.2542,43.0877
24.2169,42.6740
23.7682,42.6740
23.7682,42.8108
24.1557,42.8108
24.0676,42.7333
24.0940,43.0278
24.1822,42.9503
24.0270,42.9503
23.9544,42.9541
23.8967,42.9645
23.8514,42.9802
23.8097,43.0034
23.7778,43.0305
23.7543,43.0615
23.7375,43.0969
23.7272,43.1354
23.7237,43.1779
23.7274,43.2200
23.7382,43.2598
23.7564,43.2979
23.7813,43.3317
23.8142,43.3614
23.8563,43.3871
23.9024,43.4050
23.9591,43.4167
Z" /> 
<path style="fill:#E8B2A7; fill-opacity:1.0000; stroke:none;fill-rule:evenodd;"
d="M 28.2521,43.7159
28.3086,43.7127
28.3612,43.7033
28.4105,43.6881
28.4573,43.6667
28.4993,43.6404
28.5368,43.6092
28.5698,43.5731
28.5975,43.5331
28.6201,43.4887
28.6364,43.4416
28.6464,43.3910
28.6499,43.3363
28.6464,43.2815
28.6364,43.2309
28.6201,43.1838
28.5974,43.1394
28.5696,43.0994
28.5365,43.0634
28.4987,43.0321
28.4567,43.0058
28.4098,42.9845
28.3606,42.9692
28.3080,42.9599
28.2514,42.9567
28.1885,42.9605
28.1311,42.9716
28.0786,42.9897
28.0296,43.0153
27.9866,43.0474
27.9492,43.0865
28.0580,43.1874
28.0984,43.1494
28.1419,43.1226
28.1900,43.1063
28.2433,43.1007
28.2932,43.1051
28.3376,43.1177
28.3778,43.1385
28.4119,43.1662
28.4397,43.2003
28.4607,43.2409
28.4736,43.2857
28.4780,43.3363
28.4736,43.3868
28.4607,43.4317
28.4397,43.4722
28.4119,43.5064
28.3778,43.5341
28.3376,43.5548
28.2932,43.5674
28.2433,43.5718
28.1900,43.5662
28.1419,43.5499
28.0984,43.5230
28.0580,43.4845
27.9492,43.5854
27.9866,43.6243
28.0295,43.6565
28.0786,43.6823
28.1312,43.7007
28.1887,43.7120
Z" /> 
<path style="fill:#E8B2A7; fill-opacity:1.0000; stroke:none;fill-rule:evenodd;"
d="M 27.3406,43.7035
27.3406,42.9690
27.1702,42.9690
27.1702,43.7035
Z" /> 
<path style="fill:#E8B2A7; fill-opacity:1.0000; stroke:none;fill-rule:evenodd;"
d="M 27.8442,43.7035
27.8442,42.9690
27.6738,42.9690
27.6738,43.7035
Z" /> 
<path style="fill:#E8B2A7; fill-opacity:1.0000; stroke:none;fill-rule:evenodd;"
d="M 27.6868,43.4024
27.6868,43.2590
27.3282,43.2590
27.3282,43.4024
Z" /> 
<path style="fill:#E8B2A7; fill-opacity:1.0000; stroke:none;fill-rule:evenodd;"
d="M 26.6421,43.7159
26.6994,43.7127
26.7525,43.7033
26.8019,43.6881
26.8490,43.6667
26.8911,43.6404
26.9289,43.6092
26.9620,43.5731
26.9898,43.5331
27.0125,43.4887
27.0288,43.4416
27.0388,43.3910
27.0422,43.3363
27.0388,43.2815
27.0288,43.2309
27.0125,43.1838
26.9898,43.1395
26.9618,43.0995
26.9284,43.0634
26.8903,43.0321
26.8478,43.0058
26.8004,42.9845
26.7507,42.9692
26.6970,42.9599
26.6388,42.9567
26.5743,42.9604
26.5159,42.9713
26.4628,42.9890
26.4131,43.0140
26.3695,43.0453
26.3315,43.0831
26.4399,43.1840
26.4826,43.1466
26.5273,43.1212
26.5761,43.1059
26.6306,43.1007
26.6820,43.1051
26.7277,43.1177
26.7690,43.1385
26.8038,43.1662
26.8320,43.2004
26.8531,43.2407
26.8660,43.2854
26.8704,43.3363
26.8660,43.3859
26.8531,43.4306
26.8320,43.4712
26.8038,43.5056
26.7691,43.5336
26.7285,43.5546
26.6835,43.5674
26.6325,43.5718
26.5825,43.5677
26.5342,43.5554
26.4882,43.5340
26.4410,43.5000
26.3449,43.6225
26.3865,43.6502
26.4328,43.6734
26.4842,43.6921
26.5373,43.7054
26.5899,43.7133
Z" /> 
<path style="fill:#E8B2A7; fill-opacity:1.0000; stroke:none;fill-rule:evenodd;"
d="M 26.3449,43.6225
26.4998,43.6005
26.4998,43.3245
26.3449,43.3245
Z" /> 
<path style="fill:#E8B2A7; fill-opacity:1.0000; stroke:none;fill-rule:evenodd;"
d="M 30.8003,43.7413
30.8576,43.7381
30.9107,43.7287
30.9601,43.7135
31.0072,43.6921
31.0493,43.6658
31.0871,43.6346
31.1202,43.5985
31.1480,43.5585
31.1707,43.5141
31.1870,43.4670
31.1970,43.4164
31.2005,43.3617
31.1970,43.3069
31.1870,43.2563
31.1707,43.2092
31.1480,43.1649
31.1200,43.1249
31.0866,43.0888
31.0485,43.0575
31.0060,43.0312
30.9587,43.0099
30.9089,42.9946
30.8552,42.9853
30.7970,42.9821
30.7325,42.9858
30.6741,42.9967
30.6211,43.0144
30.5713,43.0394
30.5278,43.0707
30.4897,43.1085
30.5982,43.2094
30.6409,43.1720
30.6855,43.1466
30.7343,43.1313
30.7888,43.1261
30.8403,43.1305
30.8859,43.1431
30.9272,43.1639
30.9620,43.1916
30.9902,43.2258
31.0113,43.2661
31.0242,43.3108
31.0286,43.3617
31.0242,43.4113
31.0113,43.4560
30.9902,43.4966
30.9620,43.5310
30.9273,43.5590
30.8867,43.5800
30.8417,43.5928
30.7907,43.5972
30.7407,43.5931
30.6924,43.5808
30.6464,43.5594
30.5992,43.5254
30.5031,43.6479
30.5448,43.6756
30.5910,43.6988
30.6424,43.7175
30.6955,43.7308
30.7481,43.7387
Z" /> 
<path style="fill:#E8B2A7; fill-opacity:1.0000; stroke:none;fill-rule:evenodd;"
d="M 30.5031,43.6479
30.6581,43.6259
30.6581,43.3499
30.5031,43.3499
Z" /> 
<path style="fill:#E8B2A7; fill-opacity:1.0000; stroke:none;fill-rule:evenodd;"
d="M 30.3457,43.7289
30.0122,43.7289
29.9331,43.7235
29.8631,43.7081
29.8008,43.6834
29.7572,43.6579
29.7192,43.6282
29.6864,43.5942
29.6584,43.5555
29.6364,43.5134
29.6205,43.4675
29.6106,43.4172
29.6072,43.3617
29.7791,43.3617
29.7826,43.4072
29.7927,43.4472
29.8091,43.4826
29.8317,43.5142
29.8594,43.5405
29.8929,43.5618
29.9298,43.5769
29.9719,43.5863
30.0202,43.5896
30.1753,43.5896
30.1753,43.1336
30.0202,43.1336
29.9719,43.1370
29.9298,43.1464
29.8929,43.1615
29.8594,43.1828
29.8316,43.2089
29.8091,43.2402
29.7928,43.2753
29.7827,43.3154
29.7791,43.3617
29.6072,43.3617
29.6106,43.3059
29.6205,43.2555
29.6365,43.2096
29.6584,43.1677
29.6864,43.1291
29.7192,43.0951
29.7571,43.0654
29.8008,43.0400
29.8631,43.0152
29.9331,42.9998
30.0122,42.9944
30.3457,42.9944
Z" /> 
<path style="fill:#E8B2A7; fill-opacity:1.0000; stroke:none;fill-rule:evenodd;"
d="M 34.5017,46.0499
34.5549,46.0594
34.6045,46.0749
34.6518,46.0966
34.6941,46.1231
34.7321,46.1547
34.7655,46.1909
34.7934,46.2309
34.8162,46.2750
34.8327,46.3218
34.8427,46.3719
34.8462,46.4260
34.8427,46.4802
34.8327,46.5304
34.8162,46.5774
34.7934,46.6217
34.7655,46.6617
34.7321,46.6979
34.6943,46.7293
34.6518,46.7559
34.6045,46.7776
34.5546,46.7931
34.5013,46.8026
34.4440,46.8059
34.3867,46.8026
34.3337,46.7932
34.2843,46.7777
34.2372,46.7562
34.1950,46.7298
34.1572,46.6984
34.1239,46.6623
34.0960,46.6223
34.0732,46.5779
34.0567,46.5308
34.0467,46.4804
34.0432,46.4261
34.0432,46.4260
34.2151,46.4260
34.2195,46.4768
34.2324,46.5216
34.2533,46.5620
34.2808,46.5962
34.3144,46.6240
34.3535,46.6447
34.3966,46.6574
34.4444,46.6618
34.4923,46.6575
34.5355,46.6448
34.5748,46.6241
34.6086,46.5961
34.6361,46.5618
34.6570,46.5213
34.6699,46.4766
34.6743,46.4260
34.6699,46.3756
34.6570,46.3310
34.6361,46.2907
34.6085,46.2565
34.5747,46.2287
34.5354,46.2079
34.4922,46.1951
34.4444,46.1907
34.3966,46.1951
34.3535,46.2079
34.3143,46.2286
34.2807,46.2565
34.2532,46.2906
34.2323,46.3308
34.2195,46.3754
34.2151,46.4260
34.0432,46.4260
34.0467,46.3718
34.0567,46.3215
34.0732,46.2746
34.0960,46.2304
34.1239,46.1904
34.1572,46.1542
34.1950,46.1228
34.2372,46.0963
34.2843,46.0748
34.3337,46.0594
34.3869,46.0499
34.4444,46.0467
Z" /> 
<path style="fill:#E8B2A7; fill-opacity:1.0000; stroke:none;fill-rule:evenodd;"
d="M 33.9145,46.7935
33.9145,46.0590
33.3599,46.0590
33.3599,46.1958
33.7441,46.1958
33.7441,46.7935
Z" /> 
<path style="fill:#E8B2A7; fill-opacity:1.0000; stroke:none;fill-rule:evenodd;"
d="M 33.7571,46.5261
33.7571,46.3894
33.4042,46.3894
33.4042,46.5261
Z" /> 
<path style="fill:#E8B2A7; fill-opacity:1.0000; stroke:none;fill-rule:evenodd;"
d="M 33.2440,46.7935
33.2440,46.0590
32.6894,46.0590
32.6894,46.1958
33.0736,46.1958
33.0736,46.7935
Z" /> 
<path style="fill:#E8B2A7; fill-opacity:1.0000; stroke:none;fill-rule:evenodd;"
d="M 33.0867,46.5261
33.0867,46.3894
32.7337,46.3894
32.7337,46.5261
Z" /> 
<path style="fill:#E8B2A7; fill-opacity:1.0000; stroke:none;fill-rule:evenodd;"
d="M 38.0521,43.5745
38.0521,43.4608
37.7057,42.9944
37.5271,42.9944
37.8659,43.4608
37.9490,43.4357
37.3708,43.4357
37.3708,43.5745
Z" /> 
<path style="fill:#E8B2A7; fill-opacity:1.0000; stroke:none;fill-rule:evenodd;"
d="M 37.6561,43.7289
37.6561,43.5745
37.6513,43.4357
37.6513,43.2987
37.4905,43.2987
37.4905,43.7289
Z" /> 
<path style="fill:#E8B2A7; fill-opacity:1.0000; stroke:none;fill-rule:evenodd;"
d="M 37.0178,42.9874
37.0824,43.0030
37.1404,43.0281
37.1802,43.0537
37.2153,43.0844
37.2460,43.1204
37.2725,43.1624
37.2926,43.2069
37.3075,43.2571
37.3168,43.3137
37.3201,43.3778
37.3152,43.4559
37.3016,43.5217
37.2803,43.5770
37.2495,43.6272
37.2117,43.6677
37.1666,43.6996
37.1158,43.7222
37.0580,43.7363
36.9916,43.7413
36.9404,43.7378
36.8937,43.7278
36.8509,43.7114
36.8114,43.6884
36.7783,43.6602
36.7510,43.6266
36.7306,43.5885
36.7182,43.5458
36.7146,43.5052
36.8791,43.5052
36.8830,43.5368
36.8945,43.5632
36.9129,43.5849
36.9378,43.6012
36.9669,43.6111
37.0015,43.6145
37.0400,43.6108
37.0707,43.6003
37.0964,43.5831
37.1149,43.5612
37.1263,43.5352
37.1302,43.5059
37.1260,43.4749
37.1139,43.4486
37.0948,43.4266
37.0694,43.4097
37.0396,43.3992
37.0040,43.3955
36.9671,43.3991
36.9373,43.4091
36.9130,43.4251
36.8943,43.4469
36.8830,43.4731
36.8791,43.5052
36.7146,43.5052
36.7139,43.4975
36.7179,43.4519
36.7293,43.4119
36.7478,43.3764
36.7729,43.3449
36.8029,43.3186
36.8386,43.2970
36.8773,43.2815
36.9197,43.2721
36.9663,43.2688
37.0176,43.2724
37.0626,43.2829
37.1036,43.3006
37.1380,43.3248
37.1477,43.3353
37.1446,43.2922
37.1334,43.2460
37.1160,43.2085
37.0927,43.1782
37.0630,43.1533
37.0286,43.1354
36.9887,43.1242
36.9420,43.1203
36.9047,43.1223
36.8696,43.1282
36.8361,43.1392
36.8043,43.1572
36.7417,43.0322
36.7826,43.0109
36.8335,42.9948
36.8880,42.9853
36.9453,42.9821
Z" /> 
<path style="fill:#E8B2A7; fill-opacity:1.0000; stroke:none;fill-rule:evenodd;"
d="M 46.2852,50.5615
45.9579,49.8270
45.7897,49.8270
45.4617,50.5615
45.6392,50.5615
45.9087,49.9135
45.8413,49.9135
46.1107,50.5615
Z" /> 
<path style="fill:#E8B2A7; fill-opacity:1.0000; stroke:none;fill-rule:evenodd;"
d="M 46.1209,50.4044
46.0763,50.2754
45.6979,50.2754
45.6527,50.4044
Z" /> 
<path style="fill:#E8B2A7; fill-opacity:1.0000; stroke:none;fill-rule:evenodd;"
d="M 45.0738,50.5739
45.1370,50.5700
45.1920,50.5588
45.2399,50.5412
45.2817,50.5173
45.3182,50.4870
45.3487,50.4510
45.3729,50.4092
45.3909,50.3605
45.4023,50.3039
45.4063,50.2380
45.4063,49.8270
45.2359,49.8270
45.2359,50.2325
45.2326,50.2858
45.2237,50.3272
45.2102,50.3591
45.1928,50.3833
45.1698,50.4031
45.1427,50.4175
45.1106,50.4266
45.0723,50.4298
45.0339,50.4266
45.0016,50.4175
44.9745,50.4031
44.9517,50.3833
44.9344,50.3591
44.9210,50.3273
44.9121,50.2858
44.9088,50.2325
44.9088,49.8270
44.7413,49.8270
44.7413,50.2380
44.7454,50.3039
44.7568,50.3605
44.7747,50.4092
44.7990,50.4510
44.8294,50.4870
44.8660,50.5173
44.9078,50.5412
44.9556,50.5588
45.0106,50.5700
Z" /> 
<path style="fill:#E8B2A7; fill-opacity:1.0000; stroke:none;fill-rule:evenodd;"
d="M 44.5727,50.5615
44.2392,50.5615
44.1601,50.5561
44.0901,50.5407
44.0278,50.5160
43.9842,50.4905
43.9462,50.4608
43.9134,50.4268
43.8855,50.3881
43.8635,50.3460
43.8475,50.3001
43.8377,50.2498
43.8343,50.1943
44.0061,50.1943
44.0097,50.2398
44.0198,50.2798
44.0361,50.3152
44.0587,50.3468
44.0865,50.3731
44.1199,50.3944
44.1568,50.4095
44.1989,50.4189
44.2472,50.4222
44.4024,50.4222
44.4024,49.9662
44.2472,49.9662
44.1989,49.9696
44.1568,49.9790
44.1199,49.9941
44.0864,50.0154
44.0587,50.0415
44.0361,50.0728
44.0198,50.1079
44.0097,50.1480
44.0061,50.1943
43.8343,50.1943
43.8377,50.1385
43.8475,50.0881
43.8635,50.0422
43.8855,50.0003
43.9134,49.9617
43.9462,49.9277
43.9842,49.8980
44.0278,49.8726
44.0901,49.8478
44.1602,49.8324
44.2392,49.8270
44.5727,49.8270
Z" /> 
<path style="fill:#E8B2A7; fill-opacity:1.0000; stroke:none;fill-rule:evenodd;"
d="M 46.7779,21.0085
46.7779,20.2740
46.2233,20.2740
46.2233,20.4108
46.6092,20.4108
46.6092,20.8718
46.2090,20.8718
46.2090,21.0085
Z" /> 
<path style="fill:#E8B2A7; fill-opacity:1.0000; stroke:none;fill-rule:evenodd;"
d="M 46.6216,20.7018
46.6216,20.5696
46.2676,20.5696
46.2676,20.7018
Z" /> 
<path style="fill:#E8B2A7; fill-opacity:1.0000; stroke:none;fill-rule:evenodd;"
d="M 46.0738,21.0085
46.0738,20.2740
45.9335,20.2740
45.4998,20.8033
45.5677,20.8033
45.5677,20.2740
45.3998,20.2740
45.3998,21.0085
45.5401,21.0085
45.9737,20.4792
45.9059,20.4792
45.9059,21.0085
Z" /> 
<path style="fill:#E8B2A7; fill-opacity:1.0000; stroke:none;fill-rule:evenodd;"
d="M 52.4643,46.6935
52.4643,45.9590
52.2939,45.9590
52.2939,46.6935
Z" /> 
<path style="fill:#E8B2A7; fill-opacity:1.0000; stroke:none;fill-rule:evenodd;"
d="M 52.1199,46.6935
52.1199,45.9590
51.9797,45.9590
51.5460,46.4883
51.6139,46.4883
51.6139,45.9590
51.4459,45.9590
51.4459,46.6935
51.5862,46.6935
52.0199,46.1642
51.9520,46.1642
51.9520,46.6935
Z" /> 
<path style="fill:#E8B2A7; fill-opacity:1.0000; stroke:none;fill-rule:evenodd;"
d="M 51.1203,46.6935
51.1203,46.0978
51.3550,46.0978
51.3550,45.9590
50.7152,45.9590
50.7152,46.0978
50.9499,46.0978
50.9499,46.6935
Z" /> 
<path style="fill:#E8B2A7; fill-opacity:1.0000; stroke:none;fill-rule:evenodd;"
d="M 50.6514,46.6935
50.6514,46.5838
50.3675,46.3161
50.3375,46.2852
50.3186,46.2611
50.3046,46.2373
50.2970,46.2174
50.2915,46.1799
50.2949,46.1526
50.3048,46.1306
50.3211,46.1127
50.3421,46.1001
50.3705,46.0917
50.4084,46.0886
50.4540,46.0933
50.4947,46.1069
50.5305,46.1297
50.5608,46.1625
50.6843,46.0831
50.6532,46.0446
50.6145,46.0115
50.5672,45.9834
50.5158,45.9634
50.4580,45.9510
50.3929,45.9467
50.3387,45.9498
50.2912,45.9588
50.2494,45.9731
50.2107,45.9937
50.1792,46.0187
50.1540,46.0481
50.1354,46.0819
50.1240,46.1199
50.1201,46.1631
50.1224,46.1986
50.1293,46.2342
50.1423,46.2692
50.1652,46.3086
50.1960,46.3476
50.2434,46.3959
50.4782,46.6167
50.5101,46.5546
50.0956,46.5546
50.0956,46.6935
Z" /> 
<path style="fill:#E8B2A7; fill-opacity:1.0000; stroke:none;fill-rule:evenodd;"
d="M 68.9698,26.3285
68.9698,25.6566
68.8961,25.7308
69.1166,25.7308
69.1166,25.5940
68.7995,25.5940
68.7995,26.3285
Z" /> 
<path style="fill:#E8B2A7; fill-opacity:1.0000; stroke:none;fill-rule:evenodd;"
d="M 68.6783,26.3285
68.6783,26.2188
68.3944,25.9511
68.3644,25.9202
68.3455,25.8961
68.3315,25.8723
68.3239,25.8524
68.3184,25.8149
68.3219,25.7876
68.3317,25.7656
68.3480,25.7477
68.3690,25.7351
68.3974,25.7267
68.4353,25.7236
68.4809,25.7283
68.5216,25.7419
68.5575,25.7647
68.5877,25.7975
68.7112,25.7181
68.6801,25.6796
68.6414,25.6465
68.5941,25.6184
68.5427,25.5984
68.4850,25.5860
68.4198,25.5817
68.3656,25.5848
68.3181,25.5938
68.2763,25.6081
68.2376,25.6287
68.2061,25.6536
68.1810,25.6831
68.1623,25.7169
68.1509,25.7549
68.1470,25.7981
68.1493,25.8336
68.1562,25.8692
68.1692,25.9042
68.1921,25.9436
68.2229,25.9826
68.2703,26.0309
68.5051,26.2517
68.5370,26.1896
68.1226,26.1896
68.1226,26.3285
Z" /> 
<path style="fill:#E8B2A7; fill-opacity:1.0000; stroke:none;fill-rule:evenodd;"
d="M 67.7997,26.3285
68.1173,25.5940
67.9331,25.5940
67.6568,26.2445
67.7646,26.2445
67.4835,25.5940
67.3148,25.5940
67.6317,26.3285
Z" /> 
<path style="fill:#E8B2A7; fill-opacity:1.0000; stroke:none;fill-rule:evenodd;"
d="M 15.3554,54.0635
15.3909,54.0737
15.4215,54.0902
15.4483,54.1127
15.4705,54.1404
15.4884,54.1738
15.4957,54.1951
15.5092,54.1718
15.5310,54.1460
15.5568,54.1249
15.5862,54.1093
15.6191,54.0998
15.6566,54.0965
15.6982,54.1010
15.7345,54.1140
15.7667,54.1355
15.7955,54.1667
15.8168,54.2024
15.8332,54.2476
15.8440,54.3043
15.8480,54.3750
15.8480,54.7339
15.1135,54.7339
15.1135,54.3662
15.2410,54.3662
15.2410,54.5652
15.4229,54.5652
15.4229,54.3960
15.5467,54.3960
15.5467,54.5652
15.7205,54.5652
15.7205,54.3960
15.7177,54.3548
15.7101,54.3239
15.6989,54.3010
15.6823,54.2830
15.6610,54.2722
15.6336,54.2683
15.6065,54.2722
15.5852,54.2830
15.5685,54.3010
15.5572,54.3239
15.5496,54.3548
15.5467,54.3960
15.4229,54.3960
15.4229,54.3662
15.4200,54.3228
15.4122,54.2902
15.4006,54.2662
15.3834,54.2473
15.3609,54.2359
15.3317,54.2318
15.3024,54.2359
15.2801,54.2473
15.2630,54.2662
15.2516,54.2902
15.2439,54.3227
15.2410,54.3662
15.1135,54.3662
15.1135,54.3541
15.1175,54.2797
15.1284,54.2199
15.1449,54.1722
15.1663,54.1344
15.1956,54.1016
15.2294,54.0787
15.2684,54.0648
15.3141,54.0599
Z" /> 
<path style="fill:#E8B2A7; fill-opacity:1.0000; stroke:none;fill-rule:evenodd;"
d="M 15.1135,54.0277
15.8480,53.7003
15.8480,53.5322
15.1135,53.2041
15.1135,53.3816
15.7615,53.6511
15.7615,53.5837
15.1135,53.8531
Z" /> 
<path style="fill:#E8B2A7; fill-opacity:1.0000; stroke:none;fill-rule:evenodd;"
d="M 15.2706,53.8633
15.3996,53.8187
15.3996,53.4403
15.2706,53.3951
Z" /> 
<path style="fill:#E8B2A7; fill-opacity:1.0000; stroke:none;fill-rule:evenodd;"
d="M 15.1135,53.0118
15.7092,53.0118
15.7092,53.2465
15.8480,53.2465
15.8480,52.6067
15.7092,52.6067
15.7092,52.8414
15.1135,52.8414
Z" /> 
<path style="fill:#E8B2A7; fill-opacity:1.0000; stroke:none;fill-rule:evenodd;"
d="M 21.2091,22.4691
21.2123,22.5264
21.2217,22.5795
21.2369,22.6289
21.2583,22.6760
21.2846,22.7181
21.3158,22.7559
21.3519,22.7890
21.3919,22.8168
21.4363,22.8395
21.4834,22.8558
21.5340,22.8658
21.5887,22.8693
21.6435,22.8658
21.6941,22.8558
21.7412,22.8395
21.7855,22.8168
21.8255,22.7888
21.8616,22.7554
21.8929,22.7173
21.9192,22.6748
21.9405,22.6274
21.9558,22.5777
21.9651,22.5240
21.9683,22.4658
21.9646,22.4013
21.9537,22.3429
21.9360,22.2898
21.9110,22.2401
21.8797,22.1965
21.8419,22.1585
21.7410,22.2669
21.7784,22.3096
21.8038,22.3543
21.8191,22.4031
21.8243,22.4576
21.8199,22.5091
21.8073,22.5547
21.7865,22.5960
21.7588,22.6308
21.7246,22.6590
21.6843,22.6801
21.6396,22.6930
21.5887,22.6974
21.5391,22.6930
21.4944,22.6801
21.4538,22.6590
21.4194,22.6308
21.3914,22.5961
21.3704,22.5555
21.3576,22.5105
21.3532,22.4595
21.3573,22.4095
21.3696,22.3612
21.3910,22.3152
21.4250,22.2680
21.3025,22.1719
21.2748,22.2136
21.2516,22.2598
21.2329,22.3112
21.2196,22.3643
21.2117,22.4169
Z" /> 
<path style="fill:#E8B2A7; fill-opacity:1.0000; stroke:none;fill-rule:evenodd;"
d="M 21.3025,22.1719
21.3245,22.3268
21.6005,22.3268
21.6005,22.1719
Z" /> 
<path style="fill:#E8B2A7; fill-opacity:1.0000; stroke:none;fill-rule:evenodd;"
d="M 21.2091,25.4643
21.2143,25.5406
21.2297,25.6162
21.2459,25.6653
21.2653,25.7078
21.2879,25.7444
21.4179,25.6782
21.3905,25.6334
21.3690,25.5806
21.3555,25.5247
21.3511,25.4683
21.3543,25.4266
21.3630,25.3937
21.3763,25.3679
21.3955,25.3472
21.4183,25.3352
21.4458,25.3310
21.4720,25.3347
21.4938,25.3455
21.5121,25.3636
21.5247,25.3868
21.5333,25.4207
21.5367,25.4687
21.5367,25.5454
21.6483,25.5454
21.8806,25.3416
21.8192,25.3221
21.8192,25.7079
21.9560,25.7079
21.9560,25.1931
21.8462,25.1931
21.6139,25.3970
21.6634,25.4826
21.6634,25.4340
21.6589,25.3652
21.6465,25.3095
21.6275,25.2647
21.6024,25.2288
21.5696,25.1984
21.5333,25.1770
21.4926,25.1641
21.4464,25.1596
21.4057,25.1632
21.3671,25.1740
21.3299,25.1922
21.2968,25.2171
21.2677,25.2500
21.2424,25.2922
21.2247,25.3382
21.2133,25.3949
Z" /> 
<path style="fill:#E8B2A7; fill-opacity:1.0000; stroke:none;fill-rule:evenodd;"
d="M 21.2215,24.8243
21.9560,25.1419
21.9560,24.9577
21.3055,24.6814
21.3055,24.7892
21.9560,24.5081
21.9560,24.3394
21.2215,24.6563
Z" /> 
<path style="fill:#E8B2A7; fill-opacity:1.0000; stroke:none;fill-rule:evenodd;"
d="M 21.2215,28.0304
21.8172,28.0304
21.8172,28.2651
21.9560,28.2651
21.9560,27.6252
21.8172,27.6252
21.8172,27.8599
21.2215,27.8599
Z" /> 
<path style="fill:#E8B2A7; fill-opacity:1.0000; stroke:none;fill-rule:evenodd;"
d="M 21.2215,27.6487
21.6575,27.3333
21.5331,27.3338
21.9560,27.6355
21.9560,27.4428
21.6616,27.2341
21.6606,27.3147
21.9560,27.1083
21.9560,26.9241
21.5406,27.2245
21.6621,27.2245
21.2215,26.9064
21.2215,27.1024
21.5329,27.3187
21.5333,27.2410
21.2215,27.4538
Z" /> 
<path style="fill:#E8B2A7; fill-opacity:1.0000; stroke:none;fill-rule:evenodd;"
d="M 21.4575,30.3023
21.4580,30.3008
21.4827,30.2560
21.5128,30.2196
21.5488,30.1906
21.5898,30.1694
21.6364,30.1564
21.6898,30.1519
21.7391,30.1555
21.7824,30.1661
21.8207,30.1831
21.8547,30.2065
21.8849,30.2369
21.9145,30.2808
21.9367,30.3339
21.9509,30.3981
21.9560,30.4756
21.9560,30.7889
21.2215,30.7889
21.2215,30.6185
21.4264,30.6185
21.4264,30.4802
21.5619,30.4802
21.5619,30.6185
21.8176,30.6185
21.8176,30.4802
21.8133,30.4292
21.8016,30.3911
21.7841,30.3629
21.7593,30.3415
21.7285,30.3284
21.6898,30.3237
21.6515,30.3284
21.6207,30.3415
21.5958,30.3629
21.5780,30.3911
21.5663,30.4292
21.5619,30.4802
21.4264,30.4802
21.4264,30.4714
21.4269,30.4632
21.2215,30.3214
21.2215,30.1380
Z" /> 
<path style="fill:#E8B2A7; fill-opacity:1.0000; stroke:none;fill-rule:evenodd;"
d="M 21.2215,30.1220
21.6575,29.8067
21.5331,29.8071
21.9560,30.1088
21.9560,29.9162
21.6616,29.7074
21.6606,29.7880
21.9560,29.5816
21.9560,29.3974
21.5406,29.6978
21.6621,29.6978
21.2215,29.3798
21.2215,29.5757
21.5329,29.7920
21.5333,29.7143
21.2215,29.9271
Z" /> 
<path style="fill:#E8B2A7; fill-opacity:1.0000; stroke:none;fill-rule:evenodd;"
d="M 11.8798,51.6180
11.8798,51.2689
11.0877,51.2689
11.0877,51.6180
Z" /> 
<path style="fill:#E8B2A7; fill-opacity:1.0000; stroke:none;fill-rule:evenodd;"
d="M 11.4685,55.6537
11.4685,56.9470
11.8304,56.9470
11.8304,55.6537
Z" /> 
<path style="fill:#E8B2A7; fill-opacity:1.0000; stroke:none;fill-rule:evenodd;"
d="M 10.9832,56.1301
10.9832,56.4707
12.3157,56.4707
12.3157,56.1301
Z" /> 
</g>
<g style="fill:none; 
stroke:#E8B2A7; stroke-width:0.1200; stroke-opacity:1; 
stroke-linecap:round; stroke-linejoin:round;">
<path d="M22.3604 42.8860
L22.6676 42.8860
" />
<path d="M22.3604 43.6460
L22.6676 43.6460
" />
<path d="M34.5990 44.6196
L34.5990 44.3124
" />
<path d="M35.3590 44.6196
L35.3590 44.3124
" />
<path d="M19.4652 34.5882
L19.4652 34.2810
" />
<path d="M20.2252 34.5882
L20.2252 34.2810
" />
<path d="M20.7418 45.8560
L20.5262 45.8560
" />
<path d="M20.7418 46.5760
L20.5262 46.5760
" />
<path d="M49.0490 26.0324
L49.0490 26.3396
" />
<path d="M49.8090 26.0324
L49.8090 26.3396
" />
<path d="M57.5140 22.1160
L57.5140 23.6360
" />
<path d="M57.5140 23.6360
L57.5640 23.6360
" />
<path d="M58.5140 22.1160
L57.5140 22.1160
" />
<path d="M58.6840 23.6360
L59.4640 23.6360
" />
<path d="M60.5840 23.6360
L60.6340 23.6360
" />
<path d="M60.6340 22.1160
L59.6340 22.1160
" />
<path d="M60.6340 23.6360
L60.6340 22.1160
" />
<path style="fill:#E8B2A7; fill-opacity:1.0000; 
stroke:#E8B2A7; stroke-width:0.1200; stroke-opacity:1; 
stroke-linecap:round; stroke-linejoin:round;fill-rule:evenodd;"
d="M 59.4540,24.1760
59.1240,24.4160
59.1240,23.9360
Z" /> 
</g>
<g style="fill:none; 
stroke:#E8B2A7; stroke-width:0.1200; stroke-opacity:1; 
stroke-linecap:round; stroke-linejoin:round;">
<path d="M50.0304 45.2210
L50.3376 45.2210
" />
<path d="M50.0304 44.4610
L50.3376 44.4610
" />
<path d="M53.5846 26.0042
L53.5846 26.3115
" />
<path d="M54.3446 26.0042
L54.3446 26.3115
" />
<path d="M66.8997 26.0343
L63.0397 26.0343
" />
<path d="M66.8997 26.0343
L66.8997 28.0343
" />
<path d="M66.8997 28.0343
L63.0397 28.0343
" />
<path d="M34.6290 42.6346
L34.6290 42.3274
" />
<path d="M35.3890 42.6346
L35.3890 42.3274
" />
<path d="M56.6550 26.0632
L56.6550 26.2788
" />
<path d="M57.3750 26.0632
L57.3750 26.2788
" />
<path d="M58.2802 37.7160
L58.2802 39.6760
" />
<path d="M59.4802 37.7160
L59.4802 39.6760
" />
<path d="M59.4802 39.6760
L58.2802 39.6760
" />
<path d="M24.7562 44.6275
L24.4489 44.6275
" />
<path d="M24.7562 43.8675
L24.4489 43.8675
" />
<path d="M71.3440 35.1296
L71.3440 34.8224
" />
<path d="M72.1040 35.1296
L72.1040 34.8224
" />
<path d="M50.7768 21.2410
L50.5612 21.2410
" />
<path d="M50.7768 21.9610
L50.5612 21.9610
" />
<path d="M55.6140 40.6588
L55.6140 40.9660
" />
<path d="M56.3740 40.6588
L56.3740 40.9660
" />
<path d="M42.7740 23.1188
L42.7740 22.9032
" />
<path d="M43.4940 23.1188
L43.4940 22.9032
" />
<path d="M55.1952 37.7010
L55.1952 39.6610
" />
<path d="M56.3952 37.7010
L56.3952 39.6610
" />
<path d="M56.3952 39.6610
L55.1952 39.6610
" />
<path d="M36.8094 49.5560
L37.1166 49.5560
" />
<path d="M36.8094 50.3160
L37.1166 50.3160
" />
<path d="M47.7254 36.3210
L48.0326 36.3210
" />
<path d="M47.7254 37.0810
L48.0326 37.0810
" />
<path d="M49.9240 38.0932
L49.9240 38.3088
" />
<path d="M50.6440 38.0932
L50.6440 38.3088
" />
<path d="M50.1140 26.0682
L50.1140 26.2838
" />
<path d="M50.8340 26.0682
L50.8340 26.2838
" />
<path d="M21.3104 44.8310
L21.6176 44.8310
" />
<path d="M21.3104 45.5910
L21.6176 45.5910
" />
<path d="M17.2340 48.0846
L17.2340 47.7774
" />
<path d="M17.9940 48.0846
L17.9940 47.7774
" />
<path d="M71.3240 37.1296
L71.3240 36.8224
" />
<path d="M72.0840 37.1296
L72.0840 36.8224
" />
<path d="M69.1751 28.3335
L68.8679 28.3335
" />
<path d="M69.1751 29.0935
L68.8679 29.0935
" />
<path d="M42.6104 37.5760
L42.9176 37.5760
" />
<path d="M42.6104 38.3360
L42.9176 38.3360
" />
<path d="M42.6104 38.4560
L42.9176 38.4560
" />
<path d="M42.6104 39.2160
L42.9176 39.2160
" />
<path d="M66.9690 30.4085
L66.9690 32.2285
" />
<path d="M66.9690 32.2285
L67.0190 32.2285
" />
<path d="M67.0190 30.4085
L66.9690 30.4085
" />
<path d="M68.1390 32.2285
L68.9190 32.2285
" />
<path d="M70.0390 32.2285
L70.0890 32.2285
" />
<path d="M70.0890 30.4085
L70.0390 30.4085
" />
<path d="M70.0890 32.2285
L70.0890 30.4085
" />
<path style="fill:#E8B2A7; fill-opacity:1.0000; 
stroke:#E8B2A7; stroke-width:0.1200; stroke-opacity:1; 
stroke-linecap:round; stroke-linejoin:round;fill-rule:evenodd;"
d="M 67.0190,29.8685
66.6890,30.1085
66.6890,29.6285
Z" /> 
</g>
<g style="fill:none; 
stroke:#E8B2A7; stroke-width:0.1200; stroke-opacity:1; 
stroke-linecap:round; stroke-linejoin:round;">
<path d="M14.7124 37.9146
L14.9280 37.9146
" />
<path d="M14.7124 38.6346
L14.9280 38.6346
" />
<path d="M56.7302 37.7235
L56.7302 39.6835
" />
<path d="M57.9302 37.7235
L57.9302 39.6835
" />
<path d="M57.9302 39.6835
L56.7302 39.6835
" />
<path d="M68.4690 34.9410
L68.4690 35.9410
" />
<path d="M68.4690 37.0610
L68.4690 38.0610
" />
<path d="M68.4690 38.0610
L69.9890 38.0610
" />
<path d="M69.9890 34.9410
L68.4690 34.9410
" />
<path d="M69.9890 34.9910
L69.9890 34.9410
" />
<path d="M69.9890 36.8910
L69.9890 36.1110
" />
<path d="M69.9890 38.0610
L69.9890 38.0110
" />
<path style="fill:#E8B2A7; fill-opacity:1.0000; 
stroke:#E8B2A7; stroke-width:0.1200; stroke-opacity:1; 
stroke-linecap:round; stroke-linejoin:round;fill-rule:evenodd;"
d="M 70.7690,36.4510
70.2890,36.4510
70.5290,36.1210
Z" /> 
</g>
<g style="fill:none; 
stroke:#E8B2A7; stroke-width:0.1200; stroke-opacity:1; 
stroke-linecap:round; stroke-linejoin:round;">
<path d="M37.2117 47.8080
L37.2117 47.5008
" />
<path d="M37.9717 47.8080
L37.9717 47.5008
" />
<path d="M16.0702 31.2546
L16.0702 29.9846
" />
<path d="M19.1902 29.9546
L19.1902 31.2546
" />
<path style="fill:#E8B2A7; fill-opacity:1.0000; 
stroke:#E8B2A7; stroke-width:0.1200; stroke-opacity:1; 
stroke-linecap:round; stroke-linejoin:round;fill-rule:evenodd;"
d="M 16.1202,29.6046
15.7902,29.8446
15.7902,29.3646
Z" /> 
</g>
<g style="fill:none; 
stroke:#E8B2A7; stroke-width:0.1200; stroke-opacity:1; 
stroke-linecap:round; stroke-linejoin:round;">
<path d="M44.5184 42.7974
L44.5184 43.1047
" />
<path d="M45.2784 42.7974
L45.2784 43.1047
" />
<path d="M12.3202 49.7146
L12.3202 50.7346
" />
<path d="M12.3202 50.7346
L13.9202 50.7346
" />
<path d="M12.3202 56.8146
L13.9202 56.8146
" />
<path d="M12.3202 57.8346
L12.3202 56.8146
" />
<path d="M13.9202 52.0146
L11.0302 52.0146
" />
<path d="M13.9202 50.7346
L13.9202 52.0146
" />
<path d="M13.9202 56.8146
L13.9202 55.5346
" />
<path d="M16.5702 49.7146
L12.3202 49.7146
" />
<path d="M16.5702 57.8346
L12.3202 57.8346
" />
<path d="M20.1402 51.4346
L20.1402 56.1146
" />
<path d="M16.3340 27.8896
L16.3340 27.5824
" />
<path d="M17.0940 27.8896
L17.0940 27.5824
" />
<path d="M38.7152 47.1421
L38.7152 47.6921
" />
<path d="M38.7152 50.8121
L38.7152 51.3621
" />
<path d="M38.7152 51.3621
L39.2652 51.3621
" />
<path d="M39.2652 47.1421
L38.7152 47.1421
" />
<path d="M42.3852 51.3621
L42.9352 51.3621
" />
<path d="M42.9352 47.1421
L42.3852 47.1421
" />
<path d="M42.9352 47.6921
L42.9352 47.1421
" />
<path d="M42.9352 51.3621
L42.9352 50.8121
" />
<path style="fill:#E8B2A7; fill-opacity:1.0000; 
stroke:#E8B2A7; stroke-width:0.1200; stroke-opacity:1; 
stroke-linecap:round; stroke-linejoin:round;fill-rule:evenodd;"
d="M 38.2152,50.4621
37.8852,50.7021
37.8852,50.2221
Z" /> 
</g>
<g style="fill:none; 
stroke:#E8B2A7; stroke-width:0.1200; stroke-opacity:1; 
stroke-linecap:round; stroke-linejoin:round;">
<path d="M19.0969 42.5054
L18.9444 42.3529
" />
<path d="M19.6060 41.9963
L19.4535 41.8438
" />
<path d="M64.4412 35.0360
L64.6568 35.0360
" />
<path d="M64.4412 35.7560
L64.6568 35.7560
" />
<path d="M47.1662 25.3910
L47.3818 25.3910
" />
<path d="M47.1662 26.1110
L47.3818 26.1110
" />
<path d="M63.7702 79.7896
L64.8202 79.7896
" />
<path d="M63.7702 82.2896
L63.7702 79.7896
" />
<path d="M68.8202 84.2596
L64.9402 84.2596
" />
<path d="M68.9402 79.7896
L68.9402 78.7996
" />
<path d="M69.9902 79.7896
L68.9402 79.7896
" />
<path d="M69.9902 82.2896
L69.9902 79.7896
" />
<path d="M16.4301 42.1919
L16.2129 41.9747
" />
<path d="M16.9675 41.6545
L16.7503 41.4373
" />
<path d="M48.3784 43.4399
L48.3784 43.2242
" />
<path d="M49.0984 43.4399
L49.0984 43.2242
" />
<path d="M9.8202 45.2582
L9.8202 44.9510
" />
<path d="M10.5802 45.2582
L10.5802 44.9510
" />
<path d="M12.0552 45.2632
L12.0552 44.9560
" />
<path d="M12.8152 45.2632
L12.8152 44.9560
" />
<path d="M54.6356 26.0550
L54.6356 26.2707
" />
<path d="M55.3556 26.0550
L55.3556 26.2707
" />
<path d="M61.2140 38.5160
L61.2140 43.3160
" />
<path d="M61.2140 43.3160
L64.5140 43.3160
" />
<path d="M64.5140 38.5160
L61.2140 38.5160
" />
<path d="M64.5140 39.5160
L64.5140 38.5160
" />
<path d="M64.5140 42.3160
L65.1140 42.3160
" />
<path d="M64.5140 43.3160
L64.5140 42.3160
" />
<path d="M65.1140 38.5160
L65.1140 39.5160
" />
<path d="M65.1140 39.5160
L64.5140 39.5160
" />
<path d="M65.1140 42.3160
L65.1140 43.3160
" />
<path d="M65.1140 43.3160
L72.0140 43.3160
" />
<path d="M72.0140 38.5160
L65.1140 38.5160
" />
<path d="M72.0140 43.3160
L72.3640 43.3160
" />
<path d="M72.3640 38.5160
L72.0140 38.5160
" />
<path d="M72.3640 43.3160
L72.3640 41.9660
" />
<path d="M72.3640 39.8660
L72.3640 38.5160
" />
<path d="M72.3640 41.9660
L72.4140 41.9660
" />
<path d="M72.4140 39.8660
L72.3640 39.8660
" />
<path d="M72.4140 41.9660
L72.4140 39.8660
" />
<path d="M13.6390 41.9232
L13.6390 42.1388
" />
<path d="M14.3590 41.9232
L14.3590 42.1388
" />
<path d="M59.6576 25.3185
L59.3504 25.3185
" />
<path d="M59.6576 26.0785
L59.3504 26.0785
" />
<path d="M46.1240 21.5260
L46.1240 21.8260
" />
<path d="M46.1240 24.3260
L46.1240 24.0260
" />
<path d="M49.4240 21.5260
L46.1240 21.5260
" />
<path d="M49.4240 21.8260
L49.4240 21.5260
" />
<path d="M49.4240 24.0260
L49.4240 24.3260
" />
<path d="M49.4240 24.3260
L46.1240 24.3260
" />
<path d="M9.9490 53.7532
L9.9490 53.9688
" />
<path d="M10.6690 53.7532
L10.6690 53.9688
" />
<path d="M13.1352 45.2424
L13.1352 45.0268
" />
<path d="M13.8552 45.2424
L13.8552 45.0268
" />
<path d="M15.8483 44.5421
L16.1842 44.8780
" />
<path d="M16.1842 44.2062
L15.8483 44.5421
" />
<path d="M17.7893 46.4831
L18.1252 46.8190
" />
<path d="M18.1252 42.2652
L17.7893 42.6011
" />
<path d="M18.1252 46.8190
L18.4611 46.4831
" />
<path d="M18.4611 42.6011
L18.1252 42.2652
" />
<path d="M20.0662 44.8780
L20.4021 44.5421
" />
<path d="M20.4021 44.5421
L20.0662 44.2062
" />
<path style="fill:#E8B2A7; fill-opacity:1.0000; 
stroke:#E8B2A7; stroke-width:0.1200; stroke-opacity:1; 
stroke-linecap:round; stroke-linejoin:round;fill-rule:evenodd;"
d="M 20.5718,45.5886
20.2324,45.9280
20.1687,45.5250
Z" /> 
</g>
<g style="fill:none; 
stroke:#E8B2A7; stroke-width:0.1200; stroke-opacity:1; 
stroke-linecap:round; stroke-linejoin:round;">
<path d="M61.2015 28.6835
L61.2015 34.1035
" />
<path d="M61.2015 34.1035
L62.4015 34.1035
" />
<path d="M62.4015 28.6835
L61.2015 28.6835
" />
<path d="M65.4215 34.1035
L66.6215 34.1035
" />
<path d="M66.6215 28.6835
L65.4215 28.6835
" />
<path d="M66.6215 34.1035
L66.6215 28.6835
" />
<path d="M42.5239 27.3012
L42.8312 27.3012
" />
<path d="M42.5239 28.0612
L42.8312 28.0612
" />
<path d="M44.8930 48.5046
L44.6774 48.5046
" />
<path d="M44.8930 49.2246
L44.6774 49.2246
" />
<path d="M36.2602 51.2418
L36.2602 51.4574
" />
<path d="M36.9802 51.2418
L36.9802 51.4574
" />
<path d="M42.5104 26.2910
L42.8176 26.2910
" />
<path d="M42.5104 27.0510
L42.8176 27.0510
" />
<path d="M50.9990 24.7060
L52.1990 24.7060
" />
<path d="M50.9990 26.6660
L50.9990 24.7060
" />
<path d="M52.1990 26.6660
L52.1990 24.7060
" />
<path d="M21.6376 43.8360
L21.3304 43.8360
" />
<path d="M21.6376 44.5960
L21.3304 44.5960
" />
<path d="M44.9840 38.1282
L44.9840 38.3438
" />
<path d="M45.7040 38.1282
L45.7040 38.3438
" />
<path d="M41.7690 23.0888
L41.7690 22.8732
" />
<path d="M42.4890 23.0888
L42.4890 22.8732
" />
<path d="M20.8840 37.0124
L20.8840 37.3196
" />
<path d="M21.6440 37.0124
L21.6440 37.3196
" />
<path d="M55.6390 26.0632
L55.6390 26.2788
" />
<path d="M56.3590 26.0632
L56.3590 26.2788
" />
<path d="M24.4239 45.6725
L24.7312 45.6725
" />
<path d="M24.4239 44.9125
L24.7312 44.9125
" />
<path d="M54.4290 40.6588
L54.4290 40.9660
" />
<path d="M55.1890 40.6588
L55.1890 40.9660
" />
<path d="M41.7590 24.6774
L41.7590 24.9846
" />
<path d="M42.5190 24.6774
L42.5190 24.9846
" />
<path d="M47.0840 35.5771
L47.0840 35.2699
" />
<path d="M47.8440 35.5771
L47.8440 35.2699
" />
<path d="M20.2898 42.5047
L21.6757 41.1188
" />
<path d="M21.1383 43.3532
L22.5242 41.9673
" />
<path d="M21.6757 41.1188
L22.5242 41.9673
" />
<path d="M14.7274 36.9196
L14.9430 36.9196
" />
<path d="M14.7274 37.6396
L14.9430 37.6396
" />
<path d="M22.6740 44.8796
L22.6740 44.5724
" />
<path d="M23.4340 44.8796
L23.4340 44.5724
" />
<path style="fill:#E8B2A7; fill-opacity:1.0000; 
stroke:#E8B2A7; stroke-width:0.1200; stroke-opacity:1; 
stroke-linecap:round; stroke-linejoin:round;fill-rule:evenodd;"
d="M 10.3602,44.1921
9.8802,44.1921
10.1202,43.8621
Z" /> 
</g>
<g style="fill:none; 
stroke:#E8B2A7; stroke-width:0.1200; stroke-opacity:1; 
stroke-linecap:round; stroke-linejoin:round;">
<path d="M49.3134 43.4449
L49.3134 43.2292
" />
<path d="M50.0334 43.4449
L50.0334 43.2292
" />
<path d="M10.9652 45.2682
L10.9652 44.9610
" />
<path d="M11.7252 45.2682
L11.7252 44.9610
" />
<path d="M17.6077 37.7196
L17.6077 38.7196
" />
<path d="M17.6077 39.8396
L17.6077 40.8396
" />
<path d="M17.6077 40.8396
L19.1277 40.8396
" />
<path d="M19.1277 37.7196
L17.6077 37.7196
" />
<path d="M19.1277 37.7696
L19.1277 37.7196
" />
<path d="M19.1277 39.6696
L19.1277 38.8896
" />
<path d="M19.1277 40.8396
L19.1277 40.7896
" />
<path style="fill:#E8B2A7; fill-opacity:1.0000; 
stroke:#E8B2A7; stroke-width:0.1200; stroke-opacity:1; 
stroke-linecap:round; stroke-linejoin:round;fill-rule:evenodd;"
d="M 19.9077,39.2296
19.4277,39.2296
19.6677,38.8996
Z" /> 
</g>
<g style="fill:none; 
stroke:#E8B2A7; stroke-width:0.1200; stroke-opacity:1; 
stroke-linecap:round; stroke-linejoin:round;">
<path d="M32.2702 79.7896
L33.3202 79.7896
" />
<path d="M32.2702 82.2896
L32.2702 79.7896
" />
<path d="M37.3202 84.2596
L33.4402 84.2596
" />
<path d="M37.4402 79.7896
L37.4402 78.7996
" />
<path d="M38.4902 79.7896
L37.4402 79.7896
" />
<path d="M38.4902 82.2896
L38.4902 79.7896
" />
<path d="M53.3690 40.8952
L53.3690 40.6796
" />
<path d="M54.0890 40.8952
L54.0890 40.6796
" />
<path d="M46.3334 45.3034
L46.3334 45.6107
" />
<path d="M47.0934 45.3034
L47.0934 45.6107
" />
<path d="M67.1540 27.3038
L67.1540 27.0882
" />
<path d="M67.8740 27.3038
L67.8740 27.0882
" />
<path d="M68.8729 27.3185
L69.1801 27.3185
" />
<path d="M68.8729 28.0785
L69.1801 28.0785
" />
<path d="M22.4230 14.8750
L22.4230 21.0750
" />
<path d="M22.4230 40.7250
L22.4230 39.7250
" />
<path d="M22.4230 40.7250
L23.9230 40.7250
" />
<path d="M40.8230 39.7250
L40.8230 40.7250
" />
<path d="M40.8230 14.8750
L22.4230 14.8750
" />
<path d="M40.8230 14.8750
L40.8230 21.0750
" />
<path d="M40.8230 40.7250
L39.3230 40.7250
" />
<path style="fill:#E8B2A7; fill-opacity:1.0000; 
stroke:#E8B2A7; stroke-width:0.1200; stroke-opacity:1; 
stroke-linecap:round; stroke-linejoin:round;fill-rule:evenodd;"
d="M 41.3230,21.7500
40.8230,21.7500
40.8230,21.2500
Z" /> 
</g>
<g style="fill:none; 
stroke:#E8B2A7; stroke-width:0.1200; stroke-opacity:1; 
stroke-linecap:round; stroke-linejoin:round;">
<path d="M61.0240 23.0874
L61.0240 23.3946
" />
<path d="M61.7840 23.0874
L61.7840 23.3946
" />
<path d="M48.4890 37.3410
L47.1390 37.3410
" />
<path d="M48.4890 39.0910
L47.1390 39.0910
" />
<path d="M59.1090 40.9646
L59.1090 40.6574
" />
<path d="M59.8690 40.9646
L59.8690 40.6574
" />
<path d="M33.1340 41.4710
L34.3340 41.4710
" />
<path d="M33.1340 43.4310
L33.1340 41.4710
" />
<path d="M34.3340 43.4310
L34.3340 41.4710
" />
<path d="M7.3502 25.6246
L7.3502 34.5646
" />
<path d="M7.3502 25.6246
L8.8102 25.6246
" />
<path d="M7.3502 34.5646
L8.8102 34.5646
" />
<path d="M12.8602 25.6246
L11.0602 25.6246
" />
<path d="M12.8602 34.5646
L11.0602 34.5646
" />
<path d="M34.8754 49.5760
L35.1826 49.5760
" />
<path d="M34.8754 50.3360
L35.1826 50.3360
" />
<path d="M37.2052 51.2668
L37.2052 51.4824
" />
<path d="M37.9252 51.2668
L37.9252 51.4824
" />
<path d="M43.5262 24.9910
L43.7418 24.9910
" />
<path d="M43.5262 25.7110
L43.7418 25.7110
" />
<path d="M70.2215 28.0757
L70.2215 28.2913
" />
<path d="M70.9415 28.0757
L70.9415 28.2913
" />
<path d="M50.5454 20.3260
L50.8526 20.3260
" />
<path d="M50.5454 21.0860
L50.8526 21.0860
" />
<path d="M47.9140 35.5821
L47.9140 35.2749
" />
<path d="M48.6740 35.5821
L48.6740 35.2749
" />
<path d="M56.7890 40.6438
L56.7890 40.9510
" />
<path d="M57.5490 40.6438
L57.5490 40.9510
" />
<path d="M15.4894 43.0113
L15.6419 42.8588
" />
<path d="M15.9985 43.5204
L16.1510 43.3679
" />
<path d="M47.1512 26.3760
L47.3668 26.3760
" />
<path d="M47.1512 27.0960
L47.3668 27.0960
" />
<path d="M36.2517 47.8030
L36.2517 47.4958
" />
<path d="M37.0117 47.8030
L37.0117 47.4958
" />
<path d="M45.8909 42.1221
L45.8909 42.6221
" />
</g>
<g style="fill:#E8B2A7; fill-opacity:1.0000; stroke:none;">
<circle cx="45.8909" cy="42.6221" r="0.0600" /> 
</g>
<g style="fill:none; 
stroke:#E8B2A7; stroke-width:0.1200; stroke-opacity:1; 
stroke-linecap:round; stroke-linejoin:round;">
<path d="M45.8909 43.8221
L45.8909 44.1221
" />
</g>
<g style="fill:#E8B2A7; fill-opacity:1.0000; stroke:none;">
<circle cx="45.8909" cy="44.3221" r="0.0600" /> 
</g>
<g style="fill:none; 
stroke:#E8B2A7; stroke-width:0.1200; stroke-opacity:1; 
stroke-linecap:round; stroke-linejoin:round;">
<path d="M46.3909 42.1221
L45.8909 42.1221
" />
<path d="M46.3909 44.3221
L46.0909 44.3221
" />
</g>
<g style="fill:#E8B2A7; fill-opacity:1.0000; stroke:none;">
<circle cx="47.5909" cy="42.1221" r="0.0600" /> 
</g>
<g style="fill:none; 
stroke:#E8B2A7; stroke-width:0.1200; stroke-opacity:1; 
stroke-linecap:round; stroke-linejoin:round;">
<path d="M47.5909 44.3221
L48.0909 44.3221
" />
<path d="M48.0909 42.1221
L47.5909 42.1221
" />
<path d="M48.0909 42.6221
L48.0909 42.1221
" />
</g>
<g style="fill:#E8B2A7; fill-opacity:1.0000; stroke:none;">
<circle cx="48.0909" cy="43.8221" r="0.0600" /> 
</g>
<g style="fill:none; 
stroke:#E8B2A7; stroke-width:0.1200; stroke-opacity:1; 
stroke-linecap:round; stroke-linejoin:round;">
<path d="M48.0909 44.3221
L48.0909 43.8221
" />
<path style="fill:#E8B2A7; fill-opacity:1.0000; 
stroke:#E8B2A7; stroke-width:0.1200; stroke-opacity:1; 
stroke-linecap:round; stroke-linejoin:round;fill-rule:evenodd;"
d="M 45.8909,44.6821
45.5309,44.3221
45.8909,44.3221
Z" /> 
</g>
<g style="fill:none; 
stroke:#E8B2A7; stroke-width:0.1200; stroke-opacity:1; 
stroke-linecap:round; stroke-linejoin:round;">
<path d="M19.4452 36.2160
L19.4452 36.5232
" />
<path d="M20.2052 36.2160
L20.2052 36.5232
" />
<path d="M16.2202 33.0110
L16.2202 33.3182
" />
<path d="M16.9802 33.0110
L16.9802 33.3182
" />
<path d="M44.4140 23.0338
L44.4140 22.8182
" />
<path d="M45.1340 23.0338
L45.1340 22.8182
" />
<path d="M18.3159 47.7765
L18.3159 48.0838
" />
<path d="M19.0759 47.7765
L19.0759 48.0838
" />
<path d="M44.6874 47.4996
L44.9030 47.4996
" />
<path d="M44.6874 48.2196
L44.9030 48.2196
" />
<path style="fill:none; 
stroke:#E8B2A7; stroke-width:0.1500; stroke-opacity:1; 
stroke-linecap:round; stroke-linejoin:round;fill:none"
d="M 54.6302,18.0246
47.8302,18.0246
47.8302,15.5246
54.6302,15.5246
Z" /> 
</g>
<g style="fill:none; 
stroke:#E8B2A7; stroke-width:0.1200; stroke-opacity:1; 
stroke-linecap:round; stroke-linejoin:round;">
<path d="M53.6402 37.7010
L53.6402 39.6610
" />
<path d="M54.8402 37.7010
L54.8402 39.6610
" />
<path d="M54.8402 39.6610
L53.6402 39.6610
" />
<path d="M57.9740 40.6588
L57.9740 40.9660
" />
<path d="M58.7340 40.6588
L58.7340 40.9660
" />
</g> 
</svg>
