<?xml version="1.0" standalone="no"?>
 <!DOCTYPE svg PUBLIC "-//W3C//DTD SVG 1.1//EN" 
 "http://www.w3.org/Graphics/SVG/1.1/DTD/svg11.dtd"> 
<svg
  xmlns:svg="http://www.w3.org/2000/svg"
  xmlns="http://www.w3.org/2000/svg"
  xmlns:xlink="http://www.w3.org/1999/xlink"
  xmlns:inkscape="http://www.inkscape.org/namespaces/inkscape"
  version="1.1"
  width="101.0920mm" height="86.7918mm" viewBox="0.0000 0.0000 101.0920 86.7918">
<title>SVG Image created as v0-Replay-26_PCB-A-F_Silkscreen.svg date 2026-04-06T07:18:33 </title>
  <desc>Image generated by PCBNEW </desc>
<g style="fill:#000000; fill-opacity:1.0000;stroke:#000000; stroke-opacity:1.0000;
stroke-linecap:round; stroke-linejoin:round;"
 transform="translate(0 0) scale(1 1)">
<path style="fill:none; 
stroke:#F2EDA1; stroke-width:0.1000; stroke-opacity:1; 
stroke-linecap:round; stroke-linejoin:round;fill:none"
d="M 21.3802,19.0246
80.8802,19.0246
80.8802,55.0246
21.3802,55.0246
Z" /> 
<path style="fill:#F2EDA1; fill-opacity:1.0000; 
stroke:#F2EDA1; stroke-width:0.1500; stroke-opacity:1; 
stroke-linecap:round; stroke-linejoin:round;fill-rule:evenodd;"
d="M 44.9787,80.3550
44.3195,80.2137
44.8373,79.6958
Z" /> 
<path style="fill:#F2EDA1; fill-opacity:1.0000; 
stroke:#F2EDA1; stroke-width:0.1500; stroke-opacity:1; 
stroke-linecap:round; stroke-linejoin:round;fill-rule:evenodd;"
d="M 47.5187,65.1150
46.8595,64.9737
47.3773,64.4558
Z" /> 
<path style="fill:#F2EDA1; fill-opacity:1.0000; 
stroke:#F2EDA1; stroke-width:0.1500; stroke-opacity:1; 
stroke-linecap:round; stroke-linejoin:round;fill-rule:evenodd;"
d="M 55.1387,62.5750
54.4795,62.4337
54.9973,61.9158
Z" /> 
<path style="fill:#F2EDA1; fill-opacity:1.0000; 
stroke:#F2EDA1; stroke-width:0.1500; stroke-opacity:1; 
stroke-linecap:round; stroke-linejoin:round;fill-rule:evenodd;"
d="M 57.6787,62.5750
57.0195,62.4337
57.5373,61.9158
Z" /> 
<path style="fill:#F2EDA1; fill-opacity:1.0000; 
stroke:#F2EDA1; stroke-width:0.1500; stroke-opacity:1; 
stroke-linecap:round; stroke-linejoin:round;fill-rule:evenodd;"
d="M 52.5987,77.8150
51.9395,77.6737
52.4573,77.1558
Z" /> 
<path style="fill:#F2EDA1; fill-opacity:1.0000; 
stroke:#F2EDA1; stroke-width:0.1500; stroke-opacity:1; 
stroke-linecap:round; stroke-linejoin:round;fill-rule:evenodd;"
d="M 44.9787,77.8150
44.3195,77.6737
44.8373,77.1558
Z" /> 
<path style="fill:#F2EDA1; fill-opacity:1.0000; 
stroke:#F2EDA1; stroke-width:0.1500; stroke-opacity:1; 
stroke-linecap:round; stroke-linejoin:round;fill-rule:evenodd;"
d="M 52.5987,67.6550
51.9395,67.5137
52.4573,66.9958
Z" /> 
</g>
<g style="fill:none; 
stroke:#F2EDA1; stroke-width:0.1200; stroke-opacity:1; 
stroke-linecap:round; stroke-linejoin:round;">
<path d="M63.9886 68.4614
L66.8170 65.6330
" />
<path d="M64.0020 70.1012
L63.9886 68.4614
" />
<path d="M64.4836 70.5827
L64.0020 70.1012
" />
<path d="M66.3221 72.4212
L66.8170 72.9162
" />
<path d="M66.8170 65.6330
L68.4434 65.6330
" />
<path d="M66.8170 72.9162
L68.4434 72.9162
" />
<path d="M68.4434 65.6330
L68.9383 66.1280
" />
<path d="M68.4434 72.9162
L71.2718 70.0878
" />
<path d="M71.2718 68.4614
L70.7768 67.9665
" />
<path d="M71.2718 70.0878
L71.2718 68.4614
" />
<path style="fill:#F2EDA1; fill-opacity:1.0000; 
stroke:#F2EDA1; stroke-width:0.1500; stroke-opacity:1; 
stroke-linecap:round; stroke-linejoin:round;fill-rule:evenodd;"
d="M 55.1387,80.3550
54.4795,80.2137
54.9973,79.6958
Z" /> 
<path style="fill:#F2EDA1; fill-opacity:1.0000; 
stroke:#F2EDA1; stroke-width:0.1500; stroke-opacity:1; 
stroke-linecap:round; stroke-linejoin:round;fill-rule:evenodd;"
d="M 60.2187,75.2750
59.5595,75.1337
60.0773,74.6158
Z" /> 
<path style="fill:#F2EDA1; fill-opacity:1.0000; 
stroke:#F2EDA1; stroke-width:0.1500; stroke-opacity:1; 
stroke-linecap:round; stroke-linejoin:round;fill-rule:evenodd;"
d="M 42.4387,70.1950
41.7795,70.0537
42.2973,69.5358
Z" /> 
<path style="fill:#F2EDA1; fill-opacity:1.0000; 
stroke:#F2EDA1; stroke-width:0.1500; stroke-opacity:1; 
stroke-linecap:round; stroke-linejoin:round;fill-rule:evenodd;"
d="M 52.5987,65.1150
51.9395,64.9737
52.4573,64.4558
Z" /> 
<path style="fill:#F2EDA1; fill-opacity:1.0000; 
stroke:#F2EDA1; stroke-width:0.1500; stroke-opacity:1; 
stroke-linecap:round; stroke-linejoin:round;fill-rule:evenodd;"
d="M 55.1387,70.1950
54.4795,70.0537
54.9973,69.5358
Z" /> 
<path style="fill:#F2EDA1; fill-opacity:1.0000; 
stroke:#F2EDA1; stroke-width:0.1500; stroke-opacity:1; 
stroke-linecap:round; stroke-linejoin:round;fill-rule:evenodd;"
d="M 57.6787,80.3550
57.0195,80.2137
57.5373,79.6958
Z" /> 
<path style="fill:#F2EDA1; fill-opacity:1.0000; 
stroke:#F2EDA1; stroke-width:0.1500; stroke-opacity:1; 
stroke-linecap:round; stroke-linejoin:round;fill-rule:evenodd;"
d="M 52.5987,80.3550
51.9395,80.2137
52.4573,79.6958
Z" /> 
<path style="fill:#F2EDA1; fill-opacity:1.0000; 
stroke:#F2EDA1; stroke-width:0.1500; stroke-opacity:1; 
stroke-linecap:round; stroke-linejoin:round;fill-rule:evenodd;"
d="M 55.1387,75.2750
54.4795,75.1337
54.9973,74.6158
Z" /> 
<path style="fill:#F2EDA1; fill-opacity:1.0000; 
stroke:#F2EDA1; stroke-width:0.1500; stroke-opacity:1; 
stroke-linecap:round; stroke-linejoin:round;fill-rule:evenodd;"
d="M 42.4387,80.3550
41.7795,80.2137
42.2973,79.6958
Z" /> 
</g>
<g style="fill:none; 
stroke:#F2EDA1; stroke-width:0.1200; stroke-opacity:1; 
stroke-linecap:round; stroke-linejoin:round;">
<path d="M43.7769 16.0396
L44.2311 16.0396
" />
<path d="M43.7769 17.5096
L44.2311 17.5096
" />
<path style="fill:#F2EDA1; fill-opacity:1.0000; 
stroke:#F2EDA1; stroke-width:0.1500; stroke-opacity:1; 
stroke-linecap:round; stroke-linejoin:round;fill-rule:evenodd;"
d="M 47.5187,70.1950
46.8595,70.0537
47.3773,69.5358
Z" /> 
</g>
<g style="fill:none; 
stroke:#F2EDA1; stroke-width:0.1200; stroke-opacity:1; 
stroke-linecap:round; stroke-linejoin:round;">
<path d="M53.7107 16.0396
L54.1649 16.0396
" />
<path d="M53.7107 17.5096
L54.1649 17.5096
" />
<path style="fill:#F2EDA1; fill-opacity:1.0000; 
stroke:#F2EDA1; stroke-width:0.1500; stroke-opacity:1; 
stroke-linecap:round; stroke-linejoin:round;fill-rule:evenodd;"
d="M 60.2187,67.6550
59.5595,67.5137
60.0773,66.9958
Z" /> 
<path style="fill:#F2EDA1; fill-opacity:1.0000; 
stroke:#F2EDA1; stroke-width:0.1500; stroke-opacity:1; 
stroke-linecap:round; stroke-linejoin:round;fill-rule:evenodd;"
d="M 50.0587,67.6550
49.3995,67.5137
49.9173,66.9958
Z" /> 
<path style="fill:#F2EDA1; fill-opacity:1.0000; 
stroke:#F2EDA1; stroke-width:0.1500; stroke-opacity:1; 
stroke-linecap:round; stroke-linejoin:round;fill-rule:evenodd;"
d="M 44.9787,62.5750
44.3195,62.4337
44.8373,61.9158
Z" /> 
<path style="fill:#F2EDA1; fill-opacity:1.0000; 
stroke:#F2EDA1; stroke-width:0.1500; stroke-opacity:1; 
stroke-linecap:round; stroke-linejoin:round;fill-rule:evenodd;"
d="M 57.6787,75.2750
57.0195,75.1337
57.5373,74.6158
Z" /> 
<path style="fill:#F2EDA1; fill-opacity:1.0000; 
stroke:#F2EDA1; stroke-width:0.1500; stroke-opacity:1; 
stroke-linecap:round; stroke-linejoin:round;fill-rule:evenodd;"
d="M 44.9787,70.1950
44.3195,70.0537
44.8373,69.5358
Z" /> 
<path style="fill:#F2EDA1; fill-opacity:1.0000; 
stroke:#F2EDA1; stroke-width:0.1500; stroke-opacity:1; 
stroke-linecap:round; stroke-linejoin:round;fill-rule:evenodd;"
d="M 42.4387,67.6550
41.7795,67.5137
42.2973,66.9958
Z" /> 
<path style="fill:#F2EDA1; fill-opacity:1.0000; 
stroke:#F2EDA1; stroke-width:0.1500; stroke-opacity:1; 
stroke-linecap:round; stroke-linejoin:round;fill-rule:evenodd;"
d="M 50.0587,70.1950
49.3995,70.0537
49.9173,69.5358
Z" /> 
<path style="fill:#F2EDA1; fill-opacity:1.0000; 
stroke:#F2EDA1; stroke-width:0.1500; stroke-opacity:1; 
stroke-linecap:round; stroke-linejoin:round;fill-rule:evenodd;"
d="M 55.1387,67.6550
54.4795,67.5137
54.9973,66.9958
Z" /> 
<path style="fill:#F2EDA1; fill-opacity:1.0000; 
stroke:#F2EDA1; stroke-width:0.1500; stroke-opacity:1; 
stroke-linecap:round; stroke-linejoin:round;fill-rule:evenodd;"
d="M 55.1387,77.8150
54.4795,77.6737
54.9973,77.1558
Z" /> 
<path style="fill:#F2EDA1; fill-opacity:1.0000; 
stroke:#F2EDA1; stroke-width:0.1500; stroke-opacity:1; 
stroke-linecap:round; stroke-linejoin:round;fill-rule:evenodd;"
d="M 60.2187,70.1950
59.5595,70.0537
60.0773,69.5358
Z" /> 
<path style="fill:#F2EDA1; fill-opacity:1.0000; 
stroke:#F2EDA1; stroke-width:0.1500; stroke-opacity:1; 
stroke-linecap:round; stroke-linejoin:round;fill-rule:evenodd;"
d="M 50.0587,62.5750
49.3995,62.4337
49.9173,61.9158
Z" /> 
<path style="fill:#F2EDA1; fill-opacity:1.0000; 
stroke:#F2EDA1; stroke-width:0.1500; stroke-opacity:1; 
stroke-linecap:round; stroke-linejoin:round;fill-rule:evenodd;"
d="M 44.9787,72.7350
44.3195,72.5937
44.8373,72.0758
Z" /> 
<path style="fill:#F2EDA1; fill-opacity:1.0000; 
stroke:#F2EDA1; stroke-width:0.1500; stroke-opacity:1; 
stroke-linecap:round; stroke-linejoin:round;fill-rule:evenodd;"
d="M 52.5987,75.2750
51.9395,75.1337
52.4573,74.6158
Z" /> 
<path style="fill:#F2EDA1; fill-opacity:1.0000; 
stroke:#F2EDA1; stroke-width:0.1500; stroke-opacity:1; 
stroke-linecap:round; stroke-linejoin:round;fill-rule:evenodd;"
d="M 57.6787,72.7350
57.0195,72.5937
57.5373,72.0758
Z" /> 
<path style="fill:#F2EDA1; fill-opacity:1.0000; 
stroke:#F2EDA1; stroke-width:0.1500; stroke-opacity:1; 
stroke-linecap:round; stroke-linejoin:round;fill-rule:evenodd;"
d="M 50.0587,65.1150
49.3995,64.9737
49.9173,64.4558
Z" /> 
<path style="fill:#F2EDA1; fill-opacity:1.0000; 
stroke:#F2EDA1; stroke-width:0.1500; stroke-opacity:1; 
stroke-linecap:round; stroke-linejoin:round;fill-rule:evenodd;"
d="M 57.6787,77.8150
57.0195,77.6737
57.5373,77.1558
Z" /> 
<path style="fill:#F2EDA1; fill-opacity:1.0000; 
stroke:#F2EDA1; stroke-width:0.1500; stroke-opacity:1; 
stroke-linecap:round; stroke-linejoin:round;fill-rule:evenodd;"
d="M 55.1387,72.7350
54.4795,72.5937
54.9973,72.0758
Z" /> 
<path style="fill:#F2EDA1; fill-opacity:1.0000; 
stroke:#F2EDA1; stroke-width:0.1500; stroke-opacity:1; 
stroke-linecap:round; stroke-linejoin:round;fill-rule:evenodd;"
d="M 42.4387,75.2750
41.7795,75.1337
42.2973,74.6158
Z" /> 
<path style="fill:#F2EDA1; fill-opacity:1.0000; 
stroke:#F2EDA1; stroke-width:0.1500; stroke-opacity:1; 
stroke-linecap:round; stroke-linejoin:round;fill-rule:evenodd;"
d="M 52.5987,70.1950
51.9395,70.0537
52.4573,69.5358
Z" /> 
<path style="fill:#F2EDA1; fill-opacity:1.0000; 
stroke:#F2EDA1; stroke-width:0.1500; stroke-opacity:1; 
stroke-linecap:round; stroke-linejoin:round;fill-rule:evenodd;"
d="M 57.6787,70.1950
57.0195,70.0537
57.5373,69.5358
Z" /> 
<path style="fill:#F2EDA1; fill-opacity:1.0000; 
stroke:#F2EDA1; stroke-width:0.1500; stroke-opacity:1; 
stroke-linecap:round; stroke-linejoin:round;fill-rule:evenodd;"
d="M 47.5187,67.6550
46.8595,67.5137
47.3773,66.9958
Z" /> 
<path style="fill:#F2EDA1; fill-opacity:1.0000; 
stroke:#F2EDA1; stroke-width:0.1500; stroke-opacity:1; 
stroke-linecap:round; stroke-linejoin:round;fill-rule:evenodd;"
d="M 47.5187,80.3550
46.8595,80.2137
47.3773,79.6958
Z" /> 
<path style="fill:#F2EDA1; fill-opacity:1.0000; 
stroke:#F2EDA1; stroke-width:0.1500; stroke-opacity:1; 
stroke-linecap:round; stroke-linejoin:round;fill-rule:evenodd;"
d="M 42.4387,77.8150
41.7795,77.6737
42.2973,77.1558
Z" /> 
<path style="fill:#F2EDA1; fill-opacity:1.0000; 
stroke:#F2EDA1; stroke-width:0.1500; stroke-opacity:1; 
stroke-linecap:round; stroke-linejoin:round;fill-rule:evenodd;"
d="M 60.2187,72.7350
59.5595,72.5937
60.0773,72.0758
Z" /> 
<path style="fill:#F2EDA1; fill-opacity:1.0000; stroke:none;fill-rule:evenodd;"
d="M 12.9424,59.3986
13.0094,59.4284
13.3019,59.6355
13.4882,59.9050
13.5600,60.2133
13.5089,60.5370
13.4494,60.6707
13.2431,60.9271
12.9704,61.0855
12.6635,61.1375
12.3545,61.0745
12.2083,60.9966
11.9473,60.7543
11.8006,60.4666
11.7712,60.1582
11.8621,59.8542
12.0386,59.6154
12.3223,59.4102
12.6263,59.3374
Z" /> 
<path style="fill:#F2EDA1; fill-opacity:1.0000; stroke:none;fill-rule:evenodd;"
d="M 17.6265,54.5209
17.8704,54.6933
18.0262,54.9104
18.1159,55.2101
18.0947,55.5088
17.9808,55.7831
17.7920,56.0095
17.5467,56.1648
17.2627,56.2256
17.0332,56.1944
16.6973,56.0415
16.4737,55.8123
16.3610,55.5052
16.3460,55.2923
16.4073,54.9784
16.5642,54.7307
16.7906,54.5552
17.0605,54.4578
17.3479,54.4444
Z" /> 
<path style="fill:#F2EDA1; fill-opacity:1.0000; stroke:none;fill-rule:evenodd;"
d="M 88.2119,50.4768
88.4587,50.6306
88.6338,50.8549
88.7305,51.1236
88.7418,51.4107
88.6610,51.6898
88.4812,51.9350
88.3270,52.0525
88.0427,52.1577
87.7226,52.1735
87.4928,52.1198
87.2570,51.9573
87.0815,51.7066
86.9940,51.4115
86.9890,51.3249
87.0447,50.9661
87.2053,50.6898
87.4611,50.5057
87.8024,50.4233
87.9004,50.4198
Z" /> 
<path style="fill:#F2EDA1; fill-opacity:1.0000; stroke:none;fill-rule:evenodd;"
d="M 83.7115,55.4125
83.9624,55.5996
84.1098,55.8257
84.1901,56.1679
84.1507,56.4848
84.0080,56.7564
83.7780,56.9622
83.4770,57.0820
83.1211,57.0957
83.0984,57.0927
82.9008,57.0112
82.6944,56.8454
82.5207,56.6369
82.4216,56.4275
82.4181,56.4120
82.4188,56.0978
82.5292,55.7954
82.7269,55.5405
82.9898,55.3690
83.0896,55.3361
83.4082,55.3188
Z" /> 
<path style="fill:#F2EDA1; fill-opacity:1.0000; stroke:none;fill-rule:evenodd;"
d="M 12.9614,50.1618
13.2679,51.0558
14.0489,51.3151
14.3614,51.4196
14.6324,51.5116
14.8325,51.5812
14.9318,51.6179
14.9120,51.6540
14.7767,51.7215
14.5406,51.8141
14.2187,51.9255
14.1508,51.9477
13.2679,52.2340
12.9841,53.0417
12.8741,53.3541
12.7795,53.6213
12.7099,53.8163
12.6747,53.9123
12.6736,53.9151
12.6435,53.8793
12.5792,53.7356
12.4894,53.5052
12.3825,53.2092
12.3461,53.1045
12.0454,52.2281
11.1965,51.9397
10.8386,51.8139
10.6031,51.7206
10.4816,51.6557
10.4656,51.6154
10.4834,51.6064
10.6012,51.5663
10.8145,51.4928
11.0907,51.3972
11.3323,51.3132
12.0454,51.0650
12.3502,50.1664
12.6549,49.2678
Z" /> 
<path style="fill:#F2EDA1; fill-opacity:1.0000; stroke:none;fill-rule:evenodd;"
d="M 20.8924,35.5384
20.9044,35.5655
20.9050,35.5966
20.8449,35.6804
20.6686,35.8300
20.3780,36.0441
19.9749,36.3212
19.6316,36.5489
17.4744,38.0436
15.3790,39.6587
13.3469,41.3931
11.3793,43.2457
9.4775,45.2153
8.8990,45.8522
8.6392,46.1368
8.4560,46.3233
8.3408,46.4194
8.2849,46.4326
8.2762,46.4036
8.3052,46.3104
8.3959,46.1631
8.5539,45.9552
8.7847,45.6801
9.0939,45.3313
9.4871,44.9022
9.9697,44.3864
10.1356,44.2107
11.5981,42.7343
13.1740,41.2734
14.8407,39.8468
16.5759,38.4734
18.3571,37.1719
19.4142,36.4494
19.8631,36.1508
20.2118,35.9204
20.4727,35.7509
20.6586,35.6352
20.7821,35.5661
20.8558,35.5362
Z" /> 
<path style="fill:#F2EDA1; fill-opacity:1.0000; stroke:none;fill-rule:evenodd;"
d="M 81.4063,37.2929
81.4808,37.3306
81.6047,37.4114
81.7902,37.5433
82.0498,37.7342
82.3959,37.9921
82.7444,38.2528
84.8751,39.9311
86.9141,41.7087
88.8638,43.5878
90.7263,45.5705
92.0949,47.1599
92.5394,47.7024
92.9372,48.2009
93.2812,48.6459
93.5647,49.0281
93.7807,49.3381
93.9223,49.5666
93.9825,49.7043
93.9842,49.7196
93.9780,49.8403
93.9672,49.8745
93.9222,49.8228
93.8190,49.6883
93.6785,49.4981
93.6557,49.4667
92.6073,48.0901
91.4476,46.6905
90.1946,45.2858
88.8664,43.8941
87.4813,42.5333
86.0573,41.2213
84.6125,39.9762
83.1651,38.8160
82.1529,38.0587
81.8091,37.8007
81.5558,37.5920
81.4016,37.4402
81.3549,37.3586
81.3557,37.3149
81.3687,37.2903
Z" /> 
<path style="fill:#F2EDA1; fill-opacity:1.0000; stroke:none;fill-rule:evenodd;"
d="M 81.4519,33.4277
81.5669,33.4860
81.7463,33.5965
82.0041,33.7666
82.3544,34.0039
82.5067,34.1078
84.7589,35.7271
86.9365,37.4578
89.0424,39.3026
90.8299,41.0136
91.4090,41.5968
91.9476,42.1510
92.4385,42.6682
92.8748,43.1404
93.2491,43.5595
93.5543,43.9176
93.7833,44.2066
93.9289,44.4185
93.9839,44.5452
93.9842,44.5511
93.9793,44.6769
93.9492,44.6942
93.8714,44.6019
93.8292,44.5443
93.7416,44.4357
93.5823,44.2492
93.3709,44.0075
93.1272,43.7331
93.0191,43.6126
91.0980,41.5745
89.0907,39.6304
87.0091,37.7917
85.4949,36.5581
85.0956,36.2486
84.6454,35.9077
84.1640,35.5497
83.6711,35.1887
83.1863,34.8388
82.7292,34.5143
82.3196,34.2293
81.9770,33.9981
81.7211,33.8347
81.7087,33.8272
81.4924,33.6769
81.3711,33.5472
81.3521,33.4908
81.3585,33.4377
81.3871,33.4141
Z" /> 
<path style="fill:#F2EDA1; fill-opacity:1.0000; stroke:none;fill-rule:evenodd;"
d="M 83.5963,46.1235
83.8945,47.0226
84.7796,47.3210
85.0906,47.4308
85.3390,47.5279
85.5050,47.6039
85.5685,47.6502
85.5628,47.6578
85.4605,47.6920
85.2578,47.7564
84.9844,47.8419
84.6783,47.9364
83.8957,48.1766
83.6040,49.0605
83.4968,49.3815
83.4048,49.6505
83.3360,49.8440
83.2987,49.9387
83.2949,49.9444
83.2694,49.8835
83.2121,49.7171
83.1309,49.4694
83.0341,49.1647
83.0177,49.1124
82.9138,48.7918
82.8172,48.5160
82.7382,48.3125
82.6868,48.2086
82.6832,48.2043
82.5887,48.1527
82.3963,48.0766
82.1387,47.9884
81.9771,47.9380
81.6825,47.8455
81.4972,47.7750
81.3987,47.7146
81.3649,47.6524
81.3659,47.6120
81.4061,47.5353
81.5166,47.4585
81.7185,47.3703
82.0095,47.2671
82.2823,47.1725
82.5052,47.0891
82.6474,47.0290
82.6807,47.0094
82.7184,46.9300
82.7883,46.7467
82.8812,46.4849
82.9877,46.1699
83.0132,46.0926
83.2981,45.2243
Z" /> 
<path style="fill:#F2EDA1; fill-opacity:1.0000; stroke:none;fill-rule:evenodd;"
d="M 78.4523,55.1473
78.6423,55.3056
78.9021,55.5648
79.0904,55.7680
80.5735,57.5057
81.9486,59.3230
83.2130,61.2143
84.3643,63.1739
85.3999,65.1960
86.3174,67.2749
87.1142,69.4048
87.7878,71.5800
88.3356,73.7947
88.7552,76.0433
89.0440,78.3199
89.0574,78.4602
89.1029,79.0116
89.1410,79.6058
89.1717,80.2283
89.1950,80.8647
89.2110,81.5007
89.2196,82.1217
89.2209,82.7135
89.2147,83.2616
89.2013,83.7516
89.1804,84.1691
89.1523,84.4997
89.1168,84.7290
89.0739,84.8426
89.0555,84.8524
89.0276,84.8323
89.0070,84.7625
88.9935,84.6293
88.9865,84.4186
88.9859,84.1165
88.9910,83.7092
89.0015,83.1827
89.0041,83.0697
88.9936,80.7747
88.8555,78.5178
88.5888,76.2871
88.1923,74.0709
88.0782,73.5422
87.5192,71.3448
86.8311,69.1831
86.0173,67.0639
85.0816,64.9941
84.0273,62.9807
82.8582,61.0305
81.5778,59.1503
80.1897,57.3471
78.8923,55.8410
78.6702,55.5935
78.4857,55.3824
78.3558,55.2277
78.2975,55.1494
78.2960,55.1449
78.3357,55.0928
Z" /> 
<path style="fill:#F2EDA1; fill-opacity:1.0000; 
stroke:#F2EDA1; stroke-width:0.1500; stroke-opacity:1; 
stroke-linecap:round; stroke-linejoin:round;fill-rule:evenodd;"
d="M 44.9787,75.2750
44.3195,75.1337
44.8373,74.6158
Z" /> 
<path style="fill:#F2EDA1; fill-opacity:1.0000; 
stroke:#F2EDA1; stroke-width:0.1500; stroke-opacity:1; 
stroke-linecap:round; stroke-linejoin:round;fill-rule:evenodd;"
d="M 60.2187,77.8150
59.5595,77.6737
60.0773,77.1558
Z" /> 
<path style="fill:#F2EDA1; fill-opacity:1.0000; 
stroke:#F2EDA1; stroke-width:0.1500; stroke-opacity:1; 
stroke-linecap:round; stroke-linejoin:round;fill-rule:evenodd;"
d="M 42.4387,72.7350
41.7795,72.5937
42.2973,72.0758
Z" /> 
<path style="fill:#F2EDA1; fill-opacity:1.0000; 
stroke:#F2EDA1; stroke-width:0.1500; stroke-opacity:1; 
stroke-linecap:round; stroke-linejoin:round;fill-rule:evenodd;"
d="M 50.0587,77.8150
49.3995,77.6737
49.9173,77.1558
Z" /> 
<path style="fill:#F2EDA1; fill-opacity:1.0000; 
stroke:#F2EDA1; stroke-width:0.1500; stroke-opacity:1; 
stroke-linecap:round; stroke-linejoin:round;fill-rule:evenodd;"
d="M 57.6787,65.1150
57.0195,64.9737
57.5373,64.4558
Z" /> 
<path style="fill:#F2EDA1; fill-opacity:1.0000; 
stroke:#F2EDA1; stroke-width:0.1500; stroke-opacity:1; 
stroke-linecap:round; stroke-linejoin:round;fill-rule:evenodd;"
d="M 47.5187,62.5750
46.8595,62.4337
47.3773,61.9158
Z" /> 
<path style="fill:#F2EDA1; fill-opacity:1.0000; 
stroke:#F2EDA1; stroke-width:0.1500; stroke-opacity:1; 
stroke-linecap:round; stroke-linejoin:round;fill-rule:evenodd;"
d="M 60.2187,65.1150
59.5595,64.9737
60.0773,64.4558
Z" /> 
<path style="fill:#F2EDA1; fill-opacity:1.0000; 
stroke:#F2EDA1; stroke-width:0.1500; stroke-opacity:1; 
stroke-linecap:round; stroke-linejoin:round;fill-rule:evenodd;"
d="M 60.2718,62.4082
59.6126,62.2668
60.1305,61.7490
Z" /> 
<path style="fill:#F2EDA1; fill-opacity:1.0000; 
stroke:#F2EDA1; stroke-width:0.1500; stroke-opacity:1; 
stroke-linecap:round; stroke-linejoin:round;fill-rule:evenodd;"
d="M 47.5187,75.2750
46.8595,75.1337
47.3773,74.6158
Z" /> 
<path style="fill:#F2EDA1; fill-opacity:1.0000; 
stroke:#F2EDA1; stroke-width:0.1500; stroke-opacity:1; 
stroke-linecap:round; stroke-linejoin:round;fill-rule:evenodd;"
d="M 55.1387,65.1150
54.4795,64.9737
54.9973,64.4558
Z" /> 
<path style="fill:#F2EDA1; fill-opacity:1.0000; 
stroke:#F2EDA1; stroke-width:0.1500; stroke-opacity:1; 
stroke-linecap:round; stroke-linejoin:round;fill-rule:evenodd;"
d="M 44.9787,67.6550
44.3195,67.5137
44.8373,66.9958
Z" /> 
</g>
<g style="fill:none; 
stroke:#F2EDA1; stroke-width:0.1500; stroke-opacity:1; 
stroke-linecap:round; stroke-linejoin:round;">
<path d="M46.5140 16.2746
L46.5140 17.2746
" />
<path d="M46.5140 16.2746
L47.2040 16.2746
" />
<path d="M46.5140 17.2746
L49.2140 17.2746
" />
<path d="M48.5240 16.2746
L49.2140 16.2746
" />
<path d="M49.2140 17.2746
L49.2140 16.2746
" />
<path d="M48.5140 16.2746 A0.6500 0.6500 0.0 0 0 47.2140 16.2746" />
<path style="fill:#F2EDA1; fill-opacity:1.0000; 
stroke:#F2EDA1; stroke-width:0.1500; stroke-opacity:1; 
stroke-linecap:round; stroke-linejoin:round;fill-rule:evenodd;"
d="M 48.3972,16.5078
47.6390,16.9996
47.6390,16.0246
Z" /> 
</g>
<g style="fill:none; 
stroke:#F2EDA1; stroke-width:0.1200; stroke-opacity:1; 
stroke-linecap:round; stroke-linejoin:round;">
<path d="M75.9886 68.4614
L75.9886 70.0878
" />
<path d="M75.9886 70.0878
L76.4836 70.5827
" />
<path d="M78.8170 65.6330
L75.9886 68.4614
" />
<path d="M78.8170 72.9162
L78.3221 72.4212
" />
<path d="M80.4434 65.6330
L78.8170 65.6330
" />
<path d="M80.4434 72.9162
L78.8170 72.9162
" />
<path d="M80.9383 66.1280
L80.4434 65.6330
" />
<path d="M82.7768 67.9665
L83.2584 68.4480
" />
<path d="M83.2584 68.4480
L83.2718 70.0878
" />
<path d="M83.2718 70.0878
L80.4434 72.9162
" />
<path style="fill:#F2EDA1; fill-opacity:1.0000; 
stroke:#F2EDA1; stroke-width:0.1500; stroke-opacity:1; 
stroke-linecap:round; stroke-linejoin:round;fill-rule:evenodd;"
d="M 52.5987,62.5750
51.9395,62.4337
52.4573,61.9158
Z" /> 
<path style="fill:#F2EDA1; fill-opacity:1.0000; 
stroke:#F2EDA1; stroke-width:0.1500; stroke-opacity:1; 
stroke-linecap:round; stroke-linejoin:round;fill-rule:evenodd;"
d="M 50.0587,72.7350
49.3995,72.5937
49.9173,72.0758
Z" /> 
<path style="fill:#F2EDA1; fill-opacity:1.0000; 
stroke:#F2EDA1; stroke-width:0.1500; stroke-opacity:1; 
stroke-linecap:round; stroke-linejoin:round;fill-rule:evenodd;"
d="M 47.5187,77.8150
46.8595,77.6737
47.3773,77.1558
Z" /> 
<path style="fill:#F2EDA1; fill-opacity:1.0000; 
stroke:#F2EDA1; stroke-width:0.1500; stroke-opacity:1; 
stroke-linecap:round; stroke-linejoin:round;fill-rule:evenodd;"
d="M 57.6787,67.6550
57.0195,67.5137
57.5373,66.9958
Z" /> 
</g>
<g style="fill:none; 
stroke:#F2EDA1; stroke-width:0.1200; stroke-opacity:1; 
stroke-linecap:round; stroke-linejoin:round;">
<path d="M69.9886 73.9614
L69.9886 75.5878
" />
<path d="M69.9886 75.5878
L72.8170 78.4162
" />
<path d="M70.4836 73.4665
L69.9886 73.9614
" />
<path d="M72.3221 71.6280
L72.8036 71.1464
" />
<path d="M72.8036 71.1464
L74.4434 71.1330
" />
<path d="M72.8170 78.4162
L74.4434 78.4162
" />
<path d="M74.4434 71.1330
L77.2718 73.9614
" />
<path d="M74.4434 78.4162
L74.9383 77.9212
" />
<path d="M77.2718 73.9614
L77.2718 75.5878
" />
<path d="M77.2718 75.5878
L76.7768 76.0827
" />
<path style="fill:#F2EDA1; fill-opacity:1.0000; 
stroke:#F2EDA1; stroke-width:0.1500; stroke-opacity:1; 
stroke-linecap:round; stroke-linejoin:round;fill-rule:evenodd;"
d="M 60.2187,80.3550
59.5595,80.2137
60.0773,79.6958
Z" /> 
<path style="fill:#F2EDA1; fill-opacity:1.0000; 
stroke:#F2EDA1; stroke-width:0.1500; stroke-opacity:1; 
stroke-linecap:round; stroke-linejoin:round;fill-rule:evenodd;"
d="M 50.0587,75.2750
49.3995,75.1337
49.9173,74.6158
Z" /> 
<path style="fill:#F2EDA1; fill-opacity:1.0000; 
stroke:#F2EDA1; stroke-width:0.1500; stroke-opacity:1; 
stroke-linecap:round; stroke-linejoin:round;fill-rule:evenodd;"
d="M 52.5987,72.7350
51.9395,72.5937
52.4573,72.0758
Z" /> 
<path style="fill:#F2EDA1; fill-opacity:1.0000; 
stroke:#F2EDA1; stroke-width:0.1500; stroke-opacity:1; 
stroke-linecap:round; stroke-linejoin:round;fill-rule:evenodd;"
d="M 42.4387,65.1150
41.7795,64.9737
42.2973,64.4558
Z" /> 
<path style="fill:#F2EDA1; fill-opacity:1.0000; 
stroke:#F2EDA1; stroke-width:0.1500; stroke-opacity:1; 
stroke-linecap:round; stroke-linejoin:round;fill-rule:evenodd;"
d="M 44.9787,65.1150
44.3195,64.9737
44.8373,64.4558
Z" /> 
<path style="fill:#F2EDA1; fill-opacity:1.0000; 
stroke:#F2EDA1; stroke-width:0.1500; stroke-opacity:1; 
stroke-linecap:round; stroke-linejoin:round;fill-rule:evenodd;"
d="M 50.0587,80.3550
49.3995,80.2137
49.9173,79.6958
Z" /> 
<path style="fill:#F2EDA1; fill-opacity:1.0000; 
stroke:#F2EDA1; stroke-width:0.1500; stroke-opacity:1; 
stroke-linecap:round; stroke-linejoin:round;fill-rule:evenodd;"
d="M 47.5187,72.7350
46.8595,72.5937
47.3773,72.0758
Z" /> 
</g>
<g style="fill:none; 
stroke:#F2EDA1; stroke-width:0.1200; stroke-opacity:1; 
stroke-linecap:round; stroke-linejoin:round;">
<path d="M69.9886 62.9614
L69.9886 64.5878
" />
<path d="M69.9886 64.5878
L72.8170 67.4162
" />
<path d="M70.4836 62.4665
L69.9886 62.9614
" />
<path d="M72.3221 60.6280
L72.8036 60.1464
" />
<path d="M72.8036 60.1464
L74.4434 60.1330
" />
<path d="M72.8170 67.4162
L74.4434 67.4162
" />
<path d="M74.4434 60.1330
L77.2718 62.9614
" />
<path d="M74.4434 67.4162
L74.9383 66.9212
" />
<path d="M77.2718 62.9614
L77.2718 64.5878
" />
<path d="M77.2718 64.5878
L76.7768 65.0827
" />
<path style="fill:#F2EDA1; fill-opacity:1.0000; 
stroke:#F2EDA1; stroke-width:0.1500; stroke-opacity:1; 
stroke-linecap:round; stroke-linejoin:round;fill-rule:evenodd;"
d="M 42.4387,62.5750
41.7795,62.4337
42.2973,61.9158
Z" /> 
</g>
<g style="fill:none; 
stroke:#F2EDA1; stroke-width:0.1500; stroke-opacity:1; 
stroke-linecap:round; stroke-linejoin:round;">
<path d="M56.4990 16.2746
L56.4990 17.2746
" />
<path d="M56.4990 16.2746
L57.1890 16.2746
" />
<path d="M56.4990 17.2746
L59.1990 17.2746
" />
<path d="M58.5090 16.2746
L59.1990 16.2746
" />
<path d="M59.1990 17.2746
L59.1990 16.2746
" />
<path d="M58.4990 16.2746 A0.6500 0.6500 0.0 0 0 57.1990 16.2746" />
<path style="fill:#F2EDA1; fill-opacity:1.0000; 
stroke:#F2EDA1; stroke-width:0.1500; stroke-opacity:1; 
stroke-linecap:round; stroke-linejoin:round;fill-rule:evenodd;"
d="M 58.3822,16.5078
57.6240,16.9996
57.6240,16.0246
Z" /> 
</g> 
</svg>
