<?xml version="1.0" standalone="no"?>
 <!DOCTYPE svg PUBLIC "-//W3C//DTD SVG 1.1//EN" 
 "http://www.w3.org/Graphics/SVG/1.1/DTD/svg11.dtd"> 
<svg
  xmlns:svg="http://www.w3.org/2000/svg"
  xmlns="http://www.w3.org/2000/svg"
  xmlns:xlink="http://www.w3.org/1999/xlink"
  xmlns:inkscape="http://www.inkscape.org/namespaces/inkscape"
  version="1.1"
  width="101.0920mm" height="86.7918mm" viewBox="0.0000 0.0000 101.0920 86.7918">
<title>SVG Image created as v0-Replay-26_PCB-A-Edge_Cuts.svg date 2026-04-06T07:18:33 </title>
  <desc>Image generated by PCBNEW </desc>
<g style="fill:#000000; fill-opacity:1.0000;stroke:#000000; stroke-opacity:1.0000;
stroke-linecap:round; stroke-linejoin:round;"
 transform="translate(0 0) scale(1 1)">
</g>
<g style="fill:none; 
stroke:#D0D2CD; stroke-width:0.2000; stroke-opacity:1; 
stroke-linecap:round; stroke-linejoin:round;">
<path d="M8.3802 20.7746
L8.3802 78.7746
" />
<path d="M14.3802 14.7746 A6.0000 6.0000 0.0 0 0 8.3802 20.7746" />
<circle cx="10.8802" cy="68.7746" r="1.1000" /> 
<circle cx="12.8802" cy="19.2746" r="1.1500" /> 
<circle cx="12.8802" cy="80.2746" r="1.1500" /> 
<path d="M8.3802 78.7746 A6.0000 6.0000 0.0 0 0 14.3802 84.7746" />
<path d="M14.3802 84.7746
L87.8802 84.7746
" />
<circle cx="25.1302" cy="82.2746" r="1.1000" /> 
<path d="M44.1302 56.7746 A1.0000 1.0000 0.0 0 0 44.1302 58.7746" />
<path d="M58.1302 56.7746
L44.1302 56.7746
" />
<path d="M58.1302 58.7746 A1.0000 1.0000 0.0 0 0 58.1302 56.7746" />
<path d="M58.1302 58.7746
L44.1302 58.7746
" />
<circle cx="77.1302" cy="82.2746" r="1.1000" /> 
<path d="M87.8802 14.7746
L14.3802 14.7746
" />
<path d="M93.8802 20.7746 A6.0000 6.0000 0.0 0 0 87.8802 14.7746" />
<circle cx="89.3802" cy="19.2746" r="1.1500" /> 
<circle cx="89.3802" cy="80.2746" r="1.1500" /> 
<circle cx="91.3802" cy="30.7746" r="1.1000" /> 
<circle cx="91.3802" cy="68.7746" r="1.1000" /> 
<path d="M87.8802 84.7746 A6.0000 6.0000 0.0 0 0 93.8802 78.7746" />
<path d="M93.8802 78.7746
L93.8802 20.7746
" />
</g> 
</svg>
