<?xml version="1.0" standalone="no"?>
 <!DOCTYPE svg PUBLIC "-//W3C//DTD SVG 1.1//EN" 
 "http://www.w3.org/Graphics/SVG/1.1/DTD/svg11.dtd"> 
<svg
  xmlns:svg="http://www.w3.org/2000/svg"
  xmlns="http://www.w3.org/2000/svg"
  xmlns:xlink="http://www.w3.org/1999/xlink"
  xmlns:inkscape="http://www.inkscape.org/namespaces/inkscape"
  version="1.1"
  width="101.0920mm" height="86.7918mm" viewBox="0.0000 0.0000 101.0920 86.7918">
<title>SVG Image created as v0-Replay-26_PCB-A-F_Mask.svg date 2026-04-06T07:18:33 </title>
  <desc>Image generated by PCBNEW </desc>
<g style="fill:#000000; fill-opacity:1.0000;stroke:#000000; stroke-opacity:1.0000;
stroke-linecap:round; stroke-linejoin:round;"
 transform="translate(0 0) scale(1 1)">
<path style="fill:#D864FF; fill-opacity:0.4000; stroke:none;fill-rule:evenodd;"
d="M 20.8915,43.7229
20.8987,43.7390
20.8622,43.8639
20.7289,43.9970
20.1237,44.4539
19.4502,44.9980
18.7266,45.6124
17.9716,46.2799
17.2035,46.9834
16.4408,47.7059
15.7021,48.4302
15.0057,49.1392
14.3701,49.8159
14.0091,50.2180
12.7527,51.6989
11.5629,53.2055
10.4550,54.7173
9.4439,56.2140
8.6580,57.4824
8.4921,57.7583
8.3816,57.9278
8.3160,58.0033
8.2844,57.9971
8.2762,57.9215
8.2762,57.9207
8.3020,57.7931
8.3822,57.6002
8.5212,57.3347
8.7231,56.9892
8.9924,56.5564
9.3333,56.0290
9.7501,55.3997
9.7649,55.3775
11.2200,53.3177
12.7715,51.3491
14.4236,49.4672
16.1804,47.6674
18.0461,45.9454
19.9575,44.3499
20.3036,44.0783
20.5582,43.8874
20.7333,43.7696
20.8405,43.7173
Z" /> 
<path style="fill:#D864FF; fill-opacity:0.4000; stroke:none;fill-rule:evenodd;"
d="M 85.4048,80.3292
85.4742,80.3671
85.7358,80.5863
85.8780,80.8615
85.9137,81.1509
85.8541,81.4869
85.6865,81.7610
85.4281,81.9501
85.2893,82.0005
85.0195,82.0732
85.0195,82.5352
85.0161,82.7838
85.0067,83.1243
84.9929,83.5126
84.9760,83.9050
84.9750,83.9248
84.9536,84.3116
84.9308,84.5802
84.9040,84.7480
84.8706,84.8327
84.8354,84.8524
84.8036,84.8340
84.7816,84.7684
84.7686,84.6394
84.7641,84.4313
84.7677,84.1281
84.7788,83.7138
84.7879,83.4339
84.8034,82.9609
84.8127,82.6059
84.8150,82.3514
84.8092,82.1797
84.7942,82.0730
84.7690,82.0139
84.7325,81.9846
84.7018,81.9730
84.4588,81.8302
84.2790,81.5974
84.1740,81.3104
84.1555,81.0050
84.2353,80.7168
84.2702,80.6546
84.4918,80.4187
84.7790,80.2801
85.0955,80.2474
Z" /> 
<path style="fill:#D864FF; fill-opacity:0.4000; stroke:none;fill-rule:evenodd;"
d="M 81.4483,45.8615
81.5525,45.9371
81.7112,46.0700
81.9354,46.2689
82.2360,46.5425
82.6242,46.8997
82.6486,46.9222
84.2831,48.5142
85.8631,50.2204
87.3775,52.0260
88.8151,53.9165
90.1648,55.8774
91.4156,57.8939
92.5460,59.9318
92.8407,60.5052
93.1146,61.0565
93.3616,61.5716
93.5752,62.0363
93.7492,62.4366
93.8772,62.7585
93.9528,62.9878
93.9708,63.1047
93.9488,63.1557
93.9011,63.1135
93.8204,62.9674
93.6995,62.7063
93.6835,62.6702
92.8395,60.8807
91.8858,59.0726
90.8399,57.2742
89.7194,55.5140
88.5420,53.8204
87.3253,52.2219
86.8538,51.6422
86.1946,50.8679
85.4778,50.0626
84.7261,49.2501
83.9623,48.4542
83.2092,47.6986
82.4897,47.0071
81.8445,46.4195
81.6325,46.2233
81.4663,46.0517
81.3685,45.9291
81.3521,45.8902
81.3591,45.8468
81.3875,45.8343
Z" /> 
<path style="fill:#D864FF; fill-opacity:0.4000; stroke:none;fill-rule:evenodd;"
d="M 27.3760,55.1147
27.3947,55.1183
27.3826,55.1676
27.2773,55.2902
27.0909,55.4738
26.8356,55.7060
26.7061,55.8190
25.9708,56.4835
25.1928,57.2410
24.3956,58.0658
23.6030,58.9325
22.8387,59.8154
22.1262,60.6889
21.7438,61.1842
20.9050,62.3585
20.0805,63.6335
19.2899,64.9744
18.5531,66.3462
17.8896,67.7139
17.3489,68.9687
16.9495,69.9617
17.2304,70.2154
17.4783,70.5187
17.6101,70.8602
17.6237,71.2148
17.5170,71.5573
17.3605,71.7870
17.1563,71.9926
16.9563,72.1165
16.7053,72.1869
16.5326,72.2122
16.1882,72.2543
16.0349,72.8316
15.5910,74.6668
15.2503,76.4539
15.0088,78.2265
14.8625,80.0180
14.8073,81.8622
14.8162,83.0017
14.8269,83.5661
14.8324,84.0080
14.8325,84.3411
14.8268,84.5785
14.8147,84.7339
14.7961,84.8204
14.7705,84.8516
14.7647,84.8524
14.7284,84.8206
14.6985,84.7153
14.6731,84.5217
14.6502,84.2248
14.6281,83.8098
14.6238,83.7148
14.5953,81.5822
14.6984,79.4330
14.9317,77.2789
15.2938,75.1311
15.7834,73.0014
15.9869,72.2540
15.9794,72.1348
15.8663,72.0255
15.8174,71.9950
15.5788,71.7803
15.4213,71.4855
15.3522,71.1449
15.3787,70.7927
15.4935,70.4885
15.7059,70.2335
16.0037,70.0374
16.3406,69.9265
16.5104,69.9112
16.7072,69.8882
16.8021,69.8121
16.8103,69.7924
16.9185,69.5000
17.0744,69.1124
17.2663,68.6567
17.4824,68.1597
17.7111,67.6484
17.9404,67.1498
18.1588,66.6908
18.1946,66.6174
19.1707,64.7664
20.2570,62.9784
21.4610,61.2418
22.7902,59.5449
22.8106,59.5203
23.1742,59.0980
23.6150,58.6107
24.1086,58.0833
24.6307,57.5409
25.1570,57.0084
25.6633,56.5109
26.1251,56.0734
26.4324,55.7954
26.7395,55.5270
26.9631,55.3370
27.1210,55.2132
27.2307,55.1431
27.3099,55.1144
Z" /> 
<path style="fill:#C83434; fill-opacity:1.0000; 
stroke:#C83434; stroke-width:0.2000; stroke-opacity:1; 
stroke-linecap:round; stroke-linejoin:round;fill-rule:evenodd;"
d="M 20.8915,43.7229
20.8987,43.7390
20.8622,43.8639
20.7289,43.9970
20.1237,44.4539
19.4502,44.9980
18.7266,45.6124
17.9716,46.2799
17.2035,46.9834
16.4408,47.7059
15.7021,48.4302
15.0057,49.1392
14.3701,49.8159
14.0091,50.2180
12.7527,51.6989
11.5629,53.2055
10.4550,54.7173
9.4439,56.2140
8.6580,57.4824
8.4921,57.7583
8.3816,57.9278
8.3160,58.0033
8.2844,57.9971
8.2762,57.9215
8.2762,57.9207
8.3020,57.7931
8.3822,57.6002
8.5212,57.3347
8.7231,56.9892
8.9924,56.5564
9.3333,56.0290
9.7501,55.3997
9.7649,55.3775
11.2200,53.3177
12.7715,51.3491
14.4236,49.4672
16.1804,47.6674
18.0461,45.9454
19.9575,44.3499
20.3036,44.0783
20.5582,43.8874
20.7333,43.7696
20.8405,43.7173
Z" /> 
<path style="fill:#C83434; fill-opacity:1.0000; 
stroke:#C83434; stroke-width:0.2000; stroke-opacity:1; 
stroke-linecap:round; stroke-linejoin:round;fill-rule:evenodd;"
d="M 85.4048,80.3292
85.4742,80.3671
85.7358,80.5863
85.8780,80.8615
85.9137,81.1509
85.8541,81.4869
85.6865,81.7610
85.4281,81.9501
85.2893,82.0005
85.0195,82.0732
85.0195,82.5352
85.0161,82.7838
85.0067,83.1243
84.9929,83.5126
84.9760,83.9050
84.9750,83.9248
84.9536,84.3116
84.9308,84.5802
84.9040,84.7480
84.8706,84.8327
84.8354,84.8524
84.8036,84.8340
84.7816,84.7684
84.7686,84.6394
84.7641,84.4313
84.7677,84.1281
84.7788,83.7138
84.7879,83.4339
84.8034,82.9609
84.8127,82.6059
84.8150,82.3514
84.8092,82.1797
84.7942,82.0730
84.7690,82.0139
84.7325,81.9846
84.7018,81.9730
84.4588,81.8302
84.2790,81.5974
84.1740,81.3104
84.1555,81.0050
84.2353,80.7168
84.2702,80.6546
84.4918,80.4187
84.7790,80.2801
85.0955,80.2474
Z" /> 
<path style="fill:#C83434; fill-opacity:1.0000; 
stroke:#C83434; stroke-width:0.2000; stroke-opacity:1; 
stroke-linecap:round; stroke-linejoin:round;fill-rule:evenodd;"
d="M 81.4483,45.8615
81.5525,45.9371
81.7112,46.0700
81.9354,46.2689
82.2360,46.5425
82.6242,46.8997
82.6486,46.9222
84.2831,48.5142
85.8631,50.2204
87.3775,52.0260
88.8151,53.9165
90.1648,55.8774
91.4156,57.8939
92.5460,59.9318
92.8407,60.5052
93.1146,61.0565
93.3616,61.5716
93.5752,62.0363
93.7492,62.4366
93.8772,62.7585
93.9528,62.9878
93.9708,63.1047
93.9488,63.1557
93.9011,63.1135
93.8204,62.9674
93.6995,62.7063
93.6835,62.6702
92.8395,60.8807
91.8858,59.0726
90.8399,57.2742
89.7194,55.5140
88.5420,53.8204
87.3253,52.2219
86.8538,51.6422
86.1946,50.8679
85.4778,50.0626
84.7261,49.2501
83.9623,48.4542
83.2092,47.6986
82.4897,47.0071
81.8445,46.4195
81.6325,46.2233
81.4663,46.0517
81.3685,45.9291
81.3521,45.8902
81.3591,45.8468
81.3875,45.8343
Z" /> 
<path style="fill:#C83434; fill-opacity:1.0000; 
stroke:#C83434; stroke-width:0.2000; stroke-opacity:1; 
stroke-linecap:round; stroke-linejoin:round;fill-rule:evenodd;"
d="M 27.3760,55.1147
27.3947,55.1183
27.3826,55.1676
27.2773,55.2902
27.0909,55.4738
26.8356,55.7060
26.7061,55.8190
25.9708,56.4835
25.1928,57.2410
24.3956,58.0658
23.6030,58.9325
22.8387,59.8154
22.1262,60.6889
21.7438,61.1842
20.9050,62.3585
20.0805,63.6335
19.2899,64.9744
18.5531,66.3462
17.8896,67.7139
17.3489,68.9687
16.9495,69.9617
17.2304,70.2154
17.4783,70.5187
17.6101,70.8602
17.6237,71.2148
17.5170,71.5573
17.3605,71.7870
17.1563,71.9926
16.9563,72.1165
16.7053,72.1869
16.5326,72.2122
16.1882,72.2543
16.0349,72.8316
15.5910,74.6668
15.2503,76.4539
15.0088,78.2265
14.8625,80.0180
14.8073,81.8622
14.8162,83.0017
14.8269,83.5661
14.8324,84.0080
14.8325,84.3411
14.8268,84.5785
14.8147,84.7339
14.7961,84.8204
14.7705,84.8516
14.7647,84.8524
14.7284,84.8206
14.6985,84.7153
14.6731,84.5217
14.6502,84.2248
14.6281,83.8098
14.6238,83.7148
14.5953,81.5822
14.6984,79.4330
14.9317,77.2789
15.2938,75.1311
15.7834,73.0014
15.9869,72.2540
15.9794,72.1348
15.8663,72.0255
15.8174,71.9950
15.5788,71.7803
15.4213,71.4855
15.3522,71.1449
15.3787,70.7927
15.4935,70.4885
15.7059,70.2335
16.0037,70.0374
16.3406,69.9265
16.5104,69.9112
16.7072,69.8882
16.8021,69.8121
16.8103,69.7924
16.9185,69.5000
17.0744,69.1124
17.2663,68.6567
17.4824,68.1597
17.7111,67.6484
17.9404,67.1498
18.1588,66.6908
18.1946,66.6174
19.1707,64.7664
20.2570,62.9784
21.4610,61.2418
22.7902,59.5449
22.8106,59.5203
23.1742,59.0980
23.6150,58.6107
24.1086,58.0833
24.6307,57.5409
25.1570,57.0084
25.6633,56.5109
26.1251,56.0734
26.4324,55.7954
26.7395,55.5270
26.9631,55.3370
27.1210,55.2132
27.2307,55.1431
27.3099,55.1144
Z" /> 
<path style="fill:#D864FF; fill-opacity:0.4000; stroke:none;fill-rule:evenodd;"
d="M 45.4652,81.2120
45.3942,81.2594
45.3105,81.2761
45.2268,81.2594
45.1559,81.2120
44.8465,80.9026
44.7991,80.8317
44.7824,80.7480
44.7991,80.6643
44.8465,80.5933
45.2089,80.2309
45.2799,80.1835
45.3636,80.1668
45.4473,80.1835
45.5182,80.2309
45.8276,80.5403
45.8750,80.6112
45.8917,80.6949
45.8750,80.7786
45.8276,80.8496
Z" /> 
<path style="fill:#D864FF; fill-opacity:0.4000; stroke:none;fill-rule:evenodd;"
d="M 44.3515,80.0983
44.2805,80.1457
44.1968,80.1624
44.1131,80.1457
44.0422,80.0983
43.7328,79.7889
43.6854,79.7180
43.6687,79.6343
43.6854,79.5506
43.7328,79.4796
44.0952,79.1172
44.1662,79.0698
44.2499,79.0531
44.3336,79.0698
44.4045,79.1172
44.7139,79.4266
44.7613,79.4975
44.7780,79.5812
44.7613,79.6649
44.7139,79.7359
Z" /> 
<path style="fill:#D864FF; fill-opacity:0.4000; stroke:none;fill-rule:evenodd;"
d="M 48.0052,65.9720
47.9342,66.0194
47.8505,66.0361
47.7668,66.0194
47.6959,65.9720
47.3865,65.6626
47.3391,65.5917
47.3224,65.5080
47.3391,65.4243
47.3865,65.3533
47.7489,64.9909
47.8199,64.9435
47.9036,64.9268
47.9873,64.9435
48.0582,64.9909
48.3676,65.3003
48.4150,65.3712
48.4317,65.4549
48.4150,65.5386
48.3676,65.6096
Z" /> 
<path style="fill:#D864FF; fill-opacity:0.4000; stroke:none;fill-rule:evenodd;"
d="M 46.8915,64.8583
46.8205,64.9057
46.7368,64.9224
46.6531,64.9057
46.5822,64.8583
46.2728,64.5489
46.2254,64.4780
46.2087,64.3943
46.2254,64.3106
46.2728,64.2396
46.6352,63.8772
46.7062,63.8298
46.7899,63.8131
46.8736,63.8298
46.9445,63.8772
47.2539,64.1866
47.3013,64.2575
47.3180,64.3412
47.3013,64.4249
47.2539,64.4959
Z" /> 
<path style="fill:#D864FF; fill-opacity:0.4000; stroke:none;fill-rule:evenodd;"
d="M 55.6252,63.4320
55.5542,63.4794
55.4705,63.4961
55.3868,63.4794
55.3159,63.4320
55.0065,63.1226
54.9591,63.0517
54.9424,62.9680
54.9591,62.8843
55.0065,62.8133
55.3689,62.4509
55.4399,62.4035
55.5236,62.3868
55.6073,62.4035
55.6782,62.4509
55.9876,62.7603
56.0350,62.8312
56.0517,62.9149
56.0350,62.9986
55.9876,63.0696
Z" /> 
<path style="fill:#D864FF; fill-opacity:0.4000; stroke:none;fill-rule:evenodd;"
d="M 54.5115,62.3183
54.4405,62.3657
54.3568,62.3824
54.2731,62.3657
54.2022,62.3183
53.8928,62.0089
53.8454,61.9380
53.8287,61.8543
53.8454,61.7706
53.8928,61.6996
54.2552,61.3372
54.3262,61.2898
54.4099,61.2731
54.4936,61.2898
54.5645,61.3372
54.8739,61.6466
54.9213,61.7175
54.9380,61.8012
54.9213,61.8849
54.8739,61.9559
Z" /> 
<path style="fill:#D864FF; fill-opacity:0.4000; stroke:none;fill-rule:evenodd;"
d="M 58.1652,63.4320
58.0942,63.4794
58.0105,63.4961
57.9268,63.4794
57.8559,63.4320
57.5465,63.1226
57.4991,63.0517
57.4824,62.9680
57.4991,62.8843
57.5465,62.8133
57.9089,62.4509
57.9799,62.4035
58.0636,62.3868
58.1473,62.4035
58.2182,62.4509
58.5276,62.7603
58.5750,62.8312
58.5917,62.9149
58.5750,62.9986
58.5276,63.0696
Z" /> 
<path style="fill:#D864FF; fill-opacity:0.4000; stroke:none;fill-rule:evenodd;"
d="M 57.0515,62.3183
56.9805,62.3657
56.8968,62.3824
56.8131,62.3657
56.7422,62.3183
56.4328,62.0089
56.3854,61.9380
56.3687,61.8543
56.3854,61.7706
56.4328,61.6996
56.7952,61.3372
56.8662,61.2898
56.9499,61.2731
57.0336,61.2898
57.1045,61.3372
57.4139,61.6466
57.4613,61.7175
57.4780,61.8012
57.4613,61.8849
57.4139,61.9559
Z" /> 
<path style="fill:#D864FF; fill-opacity:0.4000; stroke:none;fill-rule:evenodd;"
d="M 53.0852,78.6720
53.0142,78.7194
52.9305,78.7361
52.8468,78.7194
52.7759,78.6720
52.4665,78.3626
52.4191,78.2917
52.4024,78.2080
52.4191,78.1243
52.4665,78.0533
52.8289,77.6909
52.8999,77.6435
52.9836,77.6268
53.0673,77.6435
53.1382,77.6909
53.4476,78.0003
53.4950,78.0712
53.5117,78.1549
53.4950,78.2386
53.4476,78.3096
Z" /> 
<path style="fill:#D864FF; fill-opacity:0.4000; stroke:none;fill-rule:evenodd;"
d="M 51.9715,77.5583
51.9005,77.6057
51.8168,77.6224
51.7331,77.6057
51.6622,77.5583
51.3528,77.2489
51.3054,77.1780
51.2887,77.0943
51.3054,77.0106
51.3528,76.9396
51.7152,76.5772
51.7862,76.5298
51.8699,76.5131
51.9536,76.5298
52.0245,76.5772
52.3339,76.8866
52.3813,76.9575
52.3980,77.0412
52.3813,77.1249
52.3339,77.1959
Z" /> 
<path style="fill:#D864FF; fill-opacity:0.4000; stroke:none;fill-rule:evenodd;"
d="M 45.4652,78.6720
45.3942,78.7194
45.3105,78.7361
45.2268,78.7194
45.1559,78.6720
44.8465,78.3626
44.7991,78.2917
44.7824,78.2080
44.7991,78.1243
44.8465,78.0533
45.2089,77.6909
45.2799,77.6435
45.3636,77.6268
45.4473,77.6435
45.5182,77.6909
45.8276,78.0003
45.8750,78.0712
45.8917,78.1549
45.8750,78.2386
45.8276,78.3096
Z" /> 
<path style="fill:#D864FF; fill-opacity:0.4000; stroke:none;fill-rule:evenodd;"
d="M 44.3515,77.5583
44.2805,77.6057
44.1968,77.6224
44.1131,77.6057
44.0422,77.5583
43.7328,77.2489
43.6854,77.1780
43.6687,77.0943
43.6854,77.0106
43.7328,76.9396
44.0952,76.5772
44.1662,76.5298
44.2499,76.5131
44.3336,76.5298
44.4045,76.5772
44.7139,76.8866
44.7613,76.9575
44.7780,77.0412
44.7613,77.1249
44.7139,77.1959
Z" /> 
<path style="fill:#D864FF; fill-opacity:0.4000; stroke:none;fill-rule:evenodd;"
d="M 53.0852,68.5120
53.0142,68.5594
52.9305,68.5761
52.8468,68.5594
52.7759,68.5120
52.4665,68.2026
52.4191,68.1317
52.4024,68.0480
52.4191,67.9643
52.4665,67.8933
52.8289,67.5309
52.8999,67.4835
52.9836,67.4668
53.0673,67.4835
53.1382,67.5309
53.4476,67.8403
53.4950,67.9112
53.5117,67.9949
53.4950,68.0786
53.4476,68.1496
Z" /> 
<path style="fill:#D864FF; fill-opacity:0.4000; stroke:none;fill-rule:evenodd;"
d="M 51.9715,67.3983
51.9005,67.4457
51.8168,67.4624
51.7331,67.4457
51.6622,67.3983
51.3528,67.0889
51.3054,67.0180
51.2887,66.9343
51.3054,66.8506
51.3528,66.7796
51.7152,66.4172
51.7862,66.3698
51.8699,66.3531
51.9536,66.3698
52.0245,66.4172
52.3339,66.7266
52.3813,66.7975
52.3980,66.8812
52.3813,66.9649
52.3339,67.0359
Z" /> 
<path style="fill:#D864FF; fill-opacity:0.4000; stroke:none;fill-rule:evenodd;"
d="M 64.4482,71.7495
64.3811,71.6662
64.3220,71.5368
64.3018,71.3959
64.3220,71.2551
64.3811,71.1256
64.4482,71.0424
65.1553,70.3353
65.2386,70.2682
65.3680,70.2091
65.5089,70.1888
65.6497,70.2091
65.7792,70.2682
65.8624,70.3353
66.5695,71.0424
66.6366,71.1256
66.6957,71.2551
66.7160,71.3959
66.6957,71.5368
66.6366,71.6662
66.5695,71.7495
65.8624,72.4566
65.7792,72.5237
65.6497,72.5828
65.5089,72.6030
65.3680,72.5828
65.2386,72.5237
65.1553,72.4566
Z" /> 
<path style="fill:#D864FF; fill-opacity:0.4000; stroke:none;fill-rule:evenodd;"
d="M 68.6909,67.5068
68.6238,67.4236
68.5647,67.2941
68.5444,67.1533
68.5647,67.0124
68.6238,66.8830
68.6909,66.7997
69.3980,66.0926
69.4812,66.0255
69.6107,65.9664
69.7515,65.9462
69.8924,65.9664
70.0218,66.0255
70.1051,66.0926
70.8122,66.7997
70.8793,66.8830
70.9384,67.0124
70.9586,67.1533
70.9384,67.2941
70.8793,67.4236
70.8122,67.5068
70.1051,68.2139
70.0218,68.2810
69.8924,68.3401
69.7515,68.3604
69.6107,68.3401
69.4812,68.2810
69.3980,68.2139
Z" /> 
<path style="fill:#D864FF; fill-opacity:0.4000; stroke:none;fill-rule:evenodd;"
d="M 55.6252,81.2120
55.5542,81.2594
55.4705,81.2761
55.3868,81.2594
55.3159,81.2120
55.0065,80.9026
54.9591,80.8317
54.9424,80.7480
54.9591,80.6643
55.0065,80.5933
55.3689,80.2309
55.4399,80.1835
55.5236,80.1668
55.6073,80.1835
55.6782,80.2309
55.9876,80.5403
56.0350,80.6112
56.0517,80.6949
56.0350,80.7786
55.9876,80.8496
Z" /> 
<path style="fill:#D864FF; fill-opacity:0.4000; stroke:none;fill-rule:evenodd;"
d="M 54.5115,80.0983
54.4405,80.1457
54.3568,80.1624
54.2731,80.1457
54.2022,80.0983
53.8928,79.7889
53.8454,79.7180
53.8287,79.6343
53.8454,79.5506
53.8928,79.4796
54.2552,79.1172
54.3262,79.0698
54.4099,79.0531
54.4936,79.0698
54.5645,79.1172
54.8739,79.4266
54.9213,79.4975
54.9380,79.5812
54.9213,79.6649
54.8739,79.7359
Z" /> 
</g>
<g style="fill:#D864FF; fill-opacity:0.4000; stroke:none;">
<circle cx="22.6302" cy="63.2746" r="0.8000" /> 
<circle cx="34.6302" cy="75.2746" r="0.8000" /> 
</g>
<g style="fill:none; 
stroke:#D864FF; stroke-width:1.6016; stroke-opacity:1; 
stroke-linecap:round; stroke-linejoin:round;">
<path d="M26.6302 61.0246
L26.6302 59.5246
" />
<path d="M28.6302 61.0246
L28.6302 59.5246
" />
<path d="M30.6302 61.0246
L30.6302 59.5246
" />
<path d="M36.8802 67.2746
L38.3802 67.2746
" />
<path d="M36.8802 69.2746
L38.3802 69.2746
" />
<path d="M36.8802 71.2746
L38.3802 71.2746
" />
<path style="fill:#D864FF; fill-opacity:0.4000; stroke:none;fill-rule:evenodd;"
d="M 60.7052,76.1320
60.6342,76.1794
60.5505,76.1961
60.4668,76.1794
60.3959,76.1320
60.0865,75.8226
60.0391,75.7517
60.0224,75.6680
60.0391,75.5843
60.0865,75.5133
60.4489,75.1509
60.5199,75.1035
60.6036,75.0868
60.6873,75.1035
60.7582,75.1509
61.0676,75.4603
61.1150,75.5312
61.1317,75.6149
61.1150,75.6986
61.0676,75.7696
Z" /> 
<path style="fill:#D864FF; fill-opacity:0.4000; stroke:none;fill-rule:evenodd;"
d="M 59.5915,75.0183
59.5205,75.0657
59.4368,75.0824
59.3531,75.0657
59.2822,75.0183
58.9728,74.7089
58.9254,74.6380
58.9087,74.5543
58.9254,74.4706
58.9728,74.3996
59.3352,74.0372
59.4062,73.9898
59.4899,73.9731
59.5736,73.9898
59.6445,74.0372
59.9539,74.3466
60.0013,74.4175
60.0180,74.5012
60.0013,74.5849
59.9539,74.6559
Z" /> 
<path style="fill:#D864FF; fill-opacity:0.4000; stroke:none;fill-rule:evenodd;"
d="M 42.9252,71.0520
42.8542,71.0994
42.7705,71.1161
42.6868,71.0994
42.6159,71.0520
42.3065,70.7426
42.2591,70.6717
42.2424,70.5880
42.2591,70.5043
42.3065,70.4333
42.6689,70.0709
42.7399,70.0235
42.8236,70.0068
42.9073,70.0235
42.9782,70.0709
43.2876,70.3803
43.3350,70.4512
43.3517,70.5349
43.3350,70.6186
43.2876,70.6896
Z" /> 
<path style="fill:#D864FF; fill-opacity:0.4000; stroke:none;fill-rule:evenodd;"
d="M 41.8115,69.9383
41.7405,69.9857
41.6568,70.0024
41.5731,69.9857
41.5022,69.9383
41.1928,69.6289
41.1454,69.5580
41.1287,69.4743
41.1454,69.3906
41.1928,69.3196
41.5552,68.9572
41.6262,68.9098
41.7099,68.8931
41.7936,68.9098
41.8645,68.9572
42.1739,69.2666
42.2213,69.3375
42.2380,69.4212
42.2213,69.5049
42.1739,69.5759
Z" /> 
<path style="fill:#D864FF; fill-opacity:0.4000; stroke:none;fill-rule:evenodd;"
d="M 53.0852,65.9720
53.0142,66.0194
52.9305,66.0361
52.8468,66.0194
52.7759,65.9720
52.4665,65.6626
52.4191,65.5917
52.4024,65.5080
52.4191,65.4243
52.4665,65.3533
52.8289,64.9909
52.8999,64.9435
52.9836,64.9268
53.0673,64.9435
53.1382,64.9909
53.4476,65.3003
53.4950,65.3712
53.5117,65.4549
53.4950,65.5386
53.4476,65.6096
Z" /> 
<path style="fill:#D864FF; fill-opacity:0.4000; stroke:none;fill-rule:evenodd;"
d="M 51.9715,64.8583
51.9005,64.9057
51.8168,64.9224
51.7331,64.9057
51.6622,64.8583
51.3528,64.5489
51.3054,64.4780
51.2887,64.3943
51.3054,64.3106
51.3528,64.2396
51.7152,63.8772
51.7862,63.8298
51.8699,63.8131
51.9536,63.8298
52.0245,63.8772
52.3339,64.1866
52.3813,64.2575
52.3980,64.3412
52.3813,64.4249
52.3339,64.4959
Z" /> 
<path style="fill:#D864FF; fill-opacity:0.4000; stroke:none;fill-rule:evenodd;"
d="M 55.6252,71.0520
55.5542,71.0994
55.4705,71.1161
55.3868,71.0994
55.3159,71.0520
55.0065,70.7426
54.9591,70.6717
54.9424,70.5880
54.9591,70.5043
55.0065,70.4333
55.3689,70.0709
55.4399,70.0235
55.5236,70.0068
55.6073,70.0235
55.6782,70.0709
55.9876,70.3803
56.0350,70.4512
56.0517,70.5349
56.0350,70.6186
55.9876,70.6896
Z" /> 
<path style="fill:#D864FF; fill-opacity:0.4000; stroke:none;fill-rule:evenodd;"
d="M 54.5115,69.9383
54.4405,69.9857
54.3568,70.0024
54.2731,69.9857
54.2022,69.9383
53.8928,69.6289
53.8454,69.5580
53.8287,69.4743
53.8454,69.3906
53.8928,69.3196
54.2552,68.9572
54.3262,68.9098
54.4099,68.8931
54.4936,68.9098
54.5645,68.9572
54.8739,69.2666
54.9213,69.3375
54.9380,69.4212
54.9213,69.5049
54.8739,69.5759
Z" /> 
<path style="fill:#D864FF; fill-opacity:0.4000; stroke:none;fill-rule:evenodd;"
d="M 58.1652,81.2120
58.0942,81.2594
58.0105,81.2761
57.9268,81.2594
57.8559,81.2120
57.5465,80.9026
57.4991,80.8317
57.4824,80.7480
57.4991,80.6643
57.5465,80.5933
57.9089,80.2309
57.9799,80.1835
58.0636,80.1668
58.1473,80.1835
58.2182,80.2309
58.5276,80.5403
58.5750,80.6112
58.5917,80.6949
58.5750,80.7786
58.5276,80.8496
Z" /> 
<path style="fill:#D864FF; fill-opacity:0.4000; stroke:none;fill-rule:evenodd;"
d="M 57.0515,80.0983
56.9805,80.1457
56.8968,80.1624
56.8131,80.1457
56.7422,80.0983
56.4328,79.7889
56.3854,79.7180
56.3687,79.6343
56.3854,79.5506
56.4328,79.4796
56.7952,79.1172
56.8662,79.0698
56.9499,79.0531
57.0336,79.0698
57.1045,79.1172
57.4139,79.4266
57.4613,79.4975
57.4780,79.5812
57.4613,79.6649
57.4139,79.7359
Z" /> 
<path style="fill:#D864FF; fill-opacity:0.4000; stroke:none;fill-rule:evenodd;"
d="M 53.0852,81.2120
53.0142,81.2594
52.9305,81.2761
52.8468,81.2594
52.7759,81.2120
52.4665,80.9026
52.4191,80.8317
52.4024,80.7480
52.4191,80.6643
52.4665,80.5933
52.8289,80.2309
52.8999,80.1835
52.9836,80.1668
53.0673,80.1835
53.1382,80.2309
53.4476,80.5403
53.4950,80.6112
53.5117,80.6949
53.4950,80.7786
53.4476,80.8496
Z" /> 
<path style="fill:#D864FF; fill-opacity:0.4000; stroke:none;fill-rule:evenodd;"
d="M 51.9715,80.0983
51.9005,80.1457
51.8168,80.1624
51.7331,80.1457
51.6622,80.0983
51.3528,79.7889
51.3054,79.7180
51.2887,79.6343
51.3054,79.5506
51.3528,79.4796
51.7152,79.1172
51.7862,79.0698
51.8699,79.0531
51.9536,79.0698
52.0245,79.1172
52.3339,79.4266
52.3813,79.4975
52.3980,79.5812
52.3813,79.6649
52.3339,79.7359
Z" /> 
<path style="fill:#D864FF; fill-opacity:0.4000; stroke:none;fill-rule:evenodd;"
d="M 55.6252,76.1320
55.5542,76.1794
55.4705,76.1961
55.3868,76.1794
55.3159,76.1320
55.0065,75.8226
54.9591,75.7517
54.9424,75.6680
54.9591,75.5843
55.0065,75.5133
55.3689,75.1509
55.4399,75.1035
55.5236,75.0868
55.6073,75.1035
55.6782,75.1509
55.9876,75.4603
56.0350,75.5312
56.0517,75.6149
56.0350,75.6986
55.9876,75.7696
Z" /> 
<path style="fill:#D864FF; fill-opacity:0.4000; stroke:none;fill-rule:evenodd;"
d="M 54.5115,75.0183
54.4405,75.0657
54.3568,75.0824
54.2731,75.0657
54.2022,75.0183
53.8928,74.7089
53.8454,74.6380
53.8287,74.5543
53.8454,74.4706
53.8928,74.3996
54.2552,74.0372
54.3262,73.9898
54.4099,73.9731
54.4936,73.9898
54.5645,74.0372
54.8739,74.3466
54.9213,74.4175
54.9380,74.5012
54.9213,74.5849
54.8739,74.6559
Z" /> 
<path style="fill:#D864FF; fill-opacity:0.4000; stroke:none;fill-rule:evenodd;"
d="M 42.9252,81.2120
42.8542,81.2594
42.7705,81.2761
42.6868,81.2594
42.6159,81.2120
42.3065,80.9026
42.2591,80.8317
42.2424,80.7480
42.2591,80.6643
42.3065,80.5933
42.6689,80.2309
42.7399,80.1835
42.8236,80.1668
42.9073,80.1835
42.9782,80.2309
43.2876,80.5403
43.3350,80.6112
43.3517,80.6949
43.3350,80.7786
43.2876,80.8496
Z" /> 
<path style="fill:#D864FF; fill-opacity:0.4000; stroke:none;fill-rule:evenodd;"
d="M 41.8115,80.0983
41.7405,80.1457
41.6568,80.1624
41.5731,80.1457
41.5022,80.0983
41.1928,79.7889
41.1454,79.7180
41.1287,79.6343
41.1454,79.5506
41.1928,79.4796
41.5552,79.1172
41.6262,79.0698
41.7099,79.0531
41.7936,79.0698
41.8645,79.1172
42.1739,79.4266
42.2213,79.4975
42.2380,79.5812
42.2213,79.6649
42.1739,79.7359
Z" /> 
<path style="fill:#D864FF; fill-opacity:0.4000; stroke:none;fill-rule:evenodd;"
d="M 42.5790,16.3246
42.5980,16.2289
42.6522,16.1478
42.7333,16.0936
42.8290,16.0746
43.3540,16.0746
43.4497,16.0936
43.5308,16.1478
43.5850,16.2289
43.6040,16.3246
43.6040,17.2246
43.5850,17.3203
43.5308,17.4014
43.4497,17.4556
43.3540,17.4746
42.8290,17.4746
42.7333,17.4556
42.6522,17.4014
42.5980,17.3203
42.5790,17.2246
Z" /> 
<path style="fill:#D864FF; fill-opacity:0.4000; stroke:none;fill-rule:evenodd;"
d="M 44.4040,16.3246
44.4230,16.2289
44.4772,16.1478
44.5583,16.0936
44.6540,16.0746
45.1790,16.0746
45.2747,16.0936
45.3558,16.1478
45.4100,16.2289
45.4290,16.3246
45.4290,17.2246
45.4100,17.3203
45.3558,17.4014
45.2747,17.4556
45.1790,17.4746
44.6540,17.4746
44.5583,17.4556
44.4772,17.4014
44.4230,17.3203
44.4040,17.2246
Z" /> 
<path style="fill:#D864FF; fill-opacity:0.4000; stroke:none;fill-rule:evenodd;"
d="M 48.0052,71.0520
47.9342,71.0994
47.8505,71.1161
47.7668,71.0994
47.6959,71.0520
47.3865,70.7426
47.3391,70.6717
47.3224,70.5880
47.3391,70.5043
47.3865,70.4333
47.7489,70.0709
47.8199,70.0235
47.9036,70.0068
47.9873,70.0235
48.0582,70.0709
48.3676,70.3803
48.4150,70.4512
48.4317,70.5349
48.4150,70.6186
48.3676,70.6896
Z" /> 
<path style="fill:#D864FF; fill-opacity:0.4000; stroke:none;fill-rule:evenodd;"
d="M 46.8915,69.9383
46.8205,69.9857
46.7368,70.0024
46.6531,69.9857
46.5822,69.9383
46.2728,69.6289
46.2254,69.5580
46.2087,69.4743
46.2254,69.3906
46.2728,69.3196
46.6352,68.9572
46.7062,68.9098
46.7899,68.8931
46.8736,68.9098
46.9445,68.9572
47.2539,69.2666
47.3013,69.3375
47.3180,69.4212
47.3013,69.5049
47.2539,69.5759
Z" /> 
<path style="fill:#D864FF; fill-opacity:0.4000; stroke:none;fill-rule:evenodd;"
d="M 52.5128,16.3246
52.5318,16.2289
52.5860,16.1478
52.6671,16.0936
52.7628,16.0746
53.2878,16.0746
53.3835,16.0936
53.4646,16.1478
53.5188,16.2289
53.5378,16.3246
53.5378,17.2246
53.5188,17.3203
53.4646,17.4014
53.3835,17.4556
53.2878,17.4746
52.7628,17.4746
52.6671,17.4556
52.5860,17.4014
52.5318,17.3203
52.5128,17.2246
Z" /> 
<path style="fill:#D864FF; fill-opacity:0.4000; stroke:none;fill-rule:evenodd;"
d="M 54.3378,16.3246
54.3568,16.2289
54.4110,16.1478
54.4921,16.0936
54.5878,16.0746
55.1128,16.0746
55.2085,16.0936
55.2896,16.1478
55.3438,16.2289
55.3628,16.3246
55.3628,17.2246
55.3438,17.3203
55.2896,17.4014
55.2085,17.4556
55.1128,17.4746
54.5878,17.4746
54.4921,17.4556
54.4110,17.4014
54.3568,17.3203
54.3378,17.2246
Z" /> 
<path style="fill:#D864FF; fill-opacity:0.4000; stroke:none;fill-rule:evenodd;"
d="M 60.7052,68.5120
60.6342,68.5594
60.5505,68.5761
60.4668,68.5594
60.3959,68.5120
60.0865,68.2026
60.0391,68.1317
60.0224,68.0480
60.0391,67.9643
60.0865,67.8933
60.4489,67.5309
60.5199,67.4835
60.6036,67.4668
60.6873,67.4835
60.7582,67.5309
61.0676,67.8403
61.1150,67.9112
61.1317,67.9949
61.1150,68.0786
61.0676,68.1496
Z" /> 
<path style="fill:#D864FF; fill-opacity:0.4000; stroke:none;fill-rule:evenodd;"
d="M 59.5915,67.3983
59.5205,67.4457
59.4368,67.4624
59.3531,67.4457
59.2822,67.3983
58.9728,67.0889
58.9254,67.0180
58.9087,66.9343
58.9254,66.8506
58.9728,66.7796
59.3352,66.4172
59.4062,66.3698
59.4899,66.3531
59.5736,66.3698
59.6445,66.4172
59.9539,66.7266
60.0013,66.7975
60.0180,66.8812
60.0013,66.9649
59.9539,67.0359
Z" /> 
<path style="fill:#D864FF; fill-opacity:0.4000; stroke:none;fill-rule:evenodd;"
d="M 50.5452,68.5120
50.4742,68.5594
50.3905,68.5761
50.3068,68.5594
50.2359,68.5120
49.9265,68.2026
49.8791,68.1317
49.8624,68.0480
49.8791,67.9643
49.9265,67.8933
50.2889,67.5309
50.3599,67.4835
50.4436,67.4668
50.5273,67.4835
50.5982,67.5309
50.9076,67.8403
50.9550,67.9112
50.9717,67.9949
50.9550,68.0786
50.9076,68.1496
Z" /> 
<path style="fill:#D864FF; fill-opacity:0.4000; stroke:none;fill-rule:evenodd;"
d="M 49.4315,67.3983
49.3605,67.4457
49.2768,67.4624
49.1931,67.4457
49.1222,67.3983
48.8128,67.0889
48.7654,67.0180
48.7487,66.9343
48.7654,66.8506
48.8128,66.7796
49.1752,66.4172
49.2462,66.3698
49.3299,66.3531
49.4136,66.3698
49.4845,66.4172
49.7939,66.7266
49.8413,66.7975
49.8580,66.8812
49.8413,66.9649
49.7939,67.0359
Z" /> 
<path style="fill:#D864FF; fill-opacity:0.4000; stroke:none;fill-rule:evenodd;"
d="M 45.4652,63.4320
45.3942,63.4794
45.3105,63.4961
45.2268,63.4794
45.1559,63.4320
44.8465,63.1226
44.7991,63.0517
44.7824,62.9680
44.7991,62.8843
44.8465,62.8133
45.2089,62.4509
45.2799,62.4035
45.3636,62.3868
45.4473,62.4035
45.5182,62.4509
45.8276,62.7603
45.8750,62.8312
45.8917,62.9149
45.8750,62.9986
45.8276,63.0696
Z" /> 
<path style="fill:#D864FF; fill-opacity:0.4000; stroke:none;fill-rule:evenodd;"
d="M 44.3515,62.3183
44.2805,62.3657
44.1968,62.3824
44.1131,62.3657
44.0422,62.3183
43.7328,62.0089
43.6854,61.9380
43.6687,61.8543
43.6854,61.7706
43.7328,61.6996
44.0952,61.3372
44.1662,61.2898
44.2499,61.2731
44.3336,61.2898
44.4045,61.3372
44.7139,61.6466
44.7613,61.7175
44.7780,61.8012
44.7613,61.8849
44.7139,61.9559
Z" /> 
<path style="fill:#D864FF; fill-opacity:0.4000; stroke:none;fill-rule:evenodd;"
d="M 58.1652,76.1320
58.0942,76.1794
58.0105,76.1961
57.9268,76.1794
57.8559,76.1320
57.5465,75.8226
57.4991,75.7517
57.4824,75.6680
57.4991,75.5843
57.5465,75.5133
57.9089,75.1509
57.9799,75.1035
58.0636,75.0868
58.1473,75.1035
58.2182,75.1509
58.5276,75.4603
58.5750,75.5312
58.5917,75.6149
58.5750,75.6986
58.5276,75.7696
Z" /> 
<path style="fill:#D864FF; fill-opacity:0.4000; stroke:none;fill-rule:evenodd;"
d="M 57.0515,75.0183
56.9805,75.0657
56.8968,75.0824
56.8131,75.0657
56.7422,75.0183
56.4328,74.7089
56.3854,74.6380
56.3687,74.5543
56.3854,74.4706
56.4328,74.3996
56.7952,74.0372
56.8662,73.9898
56.9499,73.9731
57.0336,73.9898
57.1045,74.0372
57.4139,74.3466
57.4613,74.4175
57.4780,74.5012
57.4613,74.5849
57.4139,74.6559
Z" /> 
<path style="fill:#D864FF; fill-opacity:0.4000; stroke:none;fill-rule:evenodd;"
d="M 45.4652,71.0520
45.3942,71.0994
45.3105,71.1161
45.2268,71.0994
45.1559,71.0520
44.8465,70.7426
44.7991,70.6717
44.7824,70.5880
44.7991,70.5042
44.8465,70.4333
45.2089,70.0709
45.2799,70.0235
45.3636,70.0068
45.4473,70.0235
45.5182,70.0709
45.8276,70.3803
45.8750,70.4512
45.8917,70.5349
45.8750,70.6186
45.8276,70.6896
Z" /> 
<path style="fill:#D864FF; fill-opacity:0.4000; stroke:none;fill-rule:evenodd;"
d="M 44.3515,69.9383
44.2805,69.9857
44.1968,70.0024
44.1131,69.9857
44.0422,69.9383
43.7328,69.6289
43.6854,69.5580
43.6687,69.4743
43.6854,69.3906
43.7328,69.3196
44.0952,68.9572
44.1662,68.9098
44.2499,68.8931
44.3336,68.9098
44.4045,68.9572
44.7139,69.2666
44.7613,69.3375
44.7780,69.4212
44.7613,69.5049
44.7139,69.5759
Z" /> 
<path style="fill:#D864FF; fill-opacity:0.4000; stroke:none;fill-rule:evenodd;"
d="M 42.9252,68.5120
42.8542,68.5594
42.7705,68.5761
42.6868,68.5594
42.6159,68.5120
42.3065,68.2026
42.2591,68.1317
42.2424,68.0480
42.2591,67.9643
42.3065,67.8933
42.6689,67.5309
42.7399,67.4835
42.8236,67.4668
42.9073,67.4835
42.9782,67.5309
43.2876,67.8403
43.3350,67.9112
43.3517,67.9949
43.3350,68.0786
43.2876,68.1496
Z" /> 
<path style="fill:#D864FF; fill-opacity:0.4000; stroke:none;fill-rule:evenodd;"
d="M 41.8115,67.3983
41.7405,67.4457
41.6568,67.4624
41.5731,67.4457
41.5022,67.3983
41.1928,67.0889
41.1454,67.0180
41.1287,66.9343
41.1454,66.8506
41.1928,66.7796
41.5552,66.4172
41.6262,66.3698
41.7099,66.3531
41.7936,66.3698
41.8645,66.4172
42.1739,66.7266
42.2213,66.7975
42.2380,66.8812
42.2213,66.9649
42.1739,67.0359
Z" /> 
<path style="fill:#D864FF; fill-opacity:0.4000; stroke:none;fill-rule:evenodd;"
d="M 50.5452,71.0520
50.4742,71.0994
50.3905,71.1161
50.3068,71.0994
50.2359,71.0520
49.9265,70.7426
49.8791,70.6717
49.8624,70.5880
49.8791,70.5043
49.9265,70.4333
50.2889,70.0709
50.3599,70.0235
50.4436,70.0068
50.5273,70.0235
50.5982,70.0709
50.9076,70.3803
50.9550,70.4512
50.9717,70.5349
50.9550,70.6186
50.9076,70.6896
Z" /> 
<path style="fill:#D864FF; fill-opacity:0.4000; stroke:none;fill-rule:evenodd;"
d="M 49.4315,69.9383
49.3605,69.9857
49.2768,70.0024
49.1931,69.9857
49.1222,69.9383
48.8128,69.6289
48.7654,69.5580
48.7487,69.4743
48.7654,69.3906
48.8128,69.3196
49.1752,68.9572
49.2462,68.9098
49.3299,68.8931
49.4136,68.9098
49.4845,68.9572
49.7939,69.2666
49.8413,69.3375
49.8580,69.4212
49.8413,69.5049
49.7939,69.5759
Z" /> 
<path style="fill:#D864FF; fill-opacity:0.4000; stroke:none;fill-rule:evenodd;"
d="M 55.6252,68.5120
55.5542,68.5594
55.4705,68.5761
55.3868,68.5594
55.3159,68.5120
55.0065,68.2026
54.9591,68.1317
54.9424,68.0480
54.9591,67.9643
55.0065,67.8933
55.3689,67.5309
55.4399,67.4835
55.5236,67.4668
55.6073,67.4835
55.6782,67.5309
55.9876,67.8403
56.0350,67.9112
56.0517,67.9949
56.0350,68.0786
55.9876,68.1496
Z" /> 
<path style="fill:#D864FF; fill-opacity:0.4000; stroke:none;fill-rule:evenodd;"
d="M 54.5115,67.3983
54.4405,67.4457
54.3568,67.4624
54.2731,67.4457
54.2022,67.3983
53.8928,67.0889
53.8454,67.0180
53.8287,66.9343
53.8454,66.8506
53.8928,66.7796
54.2552,66.4172
54.3262,66.3698
54.4099,66.3531
54.4936,66.3698
54.5645,66.4172
54.8739,66.7266
54.9213,66.7975
54.9380,66.8812
54.9213,66.9649
54.8739,67.0359
Z" /> 
<path style="fill:#D864FF; fill-opacity:0.4000; stroke:none;fill-rule:evenodd;"
d="M 55.6252,78.6720
55.5542,78.7194
55.4705,78.7361
55.3868,78.7194
55.3159,78.6720
55.0065,78.3626
54.9591,78.2917
54.9424,78.2080
54.9591,78.1243
55.0065,78.0533
55.3689,77.6909
55.4399,77.6435
55.5236,77.6268
55.6073,77.6435
55.6782,77.6909
55.9876,78.0003
56.0350,78.0712
56.0517,78.1549
56.0350,78.2386
55.9876,78.3096
Z" /> 
<path style="fill:#D864FF; fill-opacity:0.4000; stroke:none;fill-rule:evenodd;"
d="M 54.5115,77.5583
54.4405,77.6057
54.3568,77.6224
54.2731,77.6057
54.2022,77.5583
53.8928,77.2489
53.8454,77.1780
53.8287,77.0943
53.8454,77.0106
53.8928,76.9396
54.2552,76.5772
54.3262,76.5298
54.4099,76.5131
54.4936,76.5298
54.5645,76.5772
54.8739,76.8866
54.9213,76.9575
54.9380,77.0412
54.9213,77.1249
54.8739,77.1959
Z" /> 
<path style="fill:#D864FF; fill-opacity:0.4000; stroke:none;fill-rule:evenodd;"
d="M 60.7052,71.0520
60.6342,71.0994
60.5505,71.1161
60.4668,71.0994
60.3959,71.0520
60.0865,70.7426
60.0391,70.6717
60.0224,70.5880
60.0391,70.5043
60.0865,70.4333
60.4489,70.0709
60.5199,70.0235
60.6036,70.0068
60.6873,70.0235
60.7582,70.0709
61.0676,70.3803
61.1150,70.4512
61.1317,70.5349
61.1150,70.6186
61.0676,70.6896
Z" /> 
<path style="fill:#D864FF; fill-opacity:0.4000; stroke:none;fill-rule:evenodd;"
d="M 59.5915,69.9383
59.5205,69.9857
59.4368,70.0024
59.3531,69.9857
59.2822,69.9383
58.9728,69.6289
58.9254,69.5580
58.9087,69.4743
58.9254,69.3906
58.9728,69.3196
59.3352,68.9572
59.4062,68.9098
59.4899,68.8931
59.5736,68.9098
59.6445,68.9572
59.9539,69.2666
60.0013,69.3375
60.0180,69.4212
60.0013,69.5049
59.9539,69.5759
Z" /> 
<path style="fill:#D864FF; fill-opacity:0.4000; stroke:none;fill-rule:evenodd;"
d="M 50.5452,63.4320
50.4742,63.4794
50.3905,63.4961
50.3068,63.4794
50.2359,63.4320
49.9265,63.1226
49.8791,63.0517
49.8624,62.9680
49.8791,62.8843
49.9265,62.8133
50.2889,62.4509
50.3599,62.4035
50.4436,62.3868
50.5273,62.4035
50.5982,62.4509
50.9076,62.7603
50.9550,62.8312
50.9717,62.9149
50.9550,62.9986
50.9076,63.0696
Z" /> 
<path style="fill:#D864FF; fill-opacity:0.4000; stroke:none;fill-rule:evenodd;"
d="M 49.4315,62.3183
49.3605,62.3657
49.2768,62.3824
49.1931,62.3657
49.1222,62.3183
48.8128,62.0089
48.7654,61.9380
48.7487,61.8543
48.7654,61.7706
48.8128,61.6996
49.1752,61.3372
49.2462,61.2898
49.3299,61.2731
49.4136,61.2898
49.4845,61.3372
49.7939,61.6466
49.8413,61.7175
49.8580,61.8012
49.8413,61.8849
49.7939,61.9559
Z" /> 
<path style="fill:#D864FF; fill-opacity:0.4000; stroke:none;fill-rule:evenodd;"
d="M 45.4652,73.5920
45.3942,73.6394
45.3105,73.6561
45.2268,73.6394
45.1559,73.5920
44.8465,73.2826
44.7991,73.2117
44.7824,73.1280
44.7991,73.0443
44.8465,72.9733
45.2089,72.6109
45.2799,72.5635
45.3636,72.5468
45.4473,72.5635
45.5182,72.6109
45.8276,72.9203
45.8750,72.9912
45.8917,73.0749
45.8750,73.1586
45.8276,73.2296
Z" /> 
<path style="fill:#D864FF; fill-opacity:0.4000; stroke:none;fill-rule:evenodd;"
d="M 44.3515,72.4783
44.2805,72.5257
44.1968,72.5424
44.1131,72.5257
44.0422,72.4783
43.7328,72.1689
43.6854,72.0980
43.6687,72.0143
43.6854,71.9306
43.7328,71.8596
44.0952,71.4972
44.1662,71.4498
44.2499,71.4331
44.3336,71.4498
44.4045,71.4972
44.7139,71.8066
44.7613,71.8775
44.7780,71.9612
44.7613,72.0450
44.7139,72.1159
Z" /> 
<path style="fill:#D864FF; fill-opacity:0.4000; stroke:none;fill-rule:evenodd;"
d="M 53.0852,76.1320
53.0142,76.1794
52.9305,76.1961
52.8468,76.1794
52.7759,76.1320
52.4665,75.8226
52.4191,75.7517
52.4024,75.6680
52.4191,75.5843
52.4665,75.5133
52.8289,75.1509
52.8999,75.1035
52.9836,75.0868
53.0673,75.1035
53.1382,75.1509
53.4476,75.4603
53.4950,75.5312
53.5117,75.6149
53.4950,75.6986
53.4476,75.7696
Z" /> 
<path style="fill:#D864FF; fill-opacity:0.4000; stroke:none;fill-rule:evenodd;"
d="M 51.9715,75.0183
51.9005,75.0657
51.8168,75.0824
51.7331,75.0657
51.6622,75.0183
51.3528,74.7089
51.3054,74.6380
51.2887,74.5543
51.3054,74.4706
51.3528,74.3996
51.7152,74.0372
51.7862,73.9898
51.8699,73.9731
51.9536,73.9898
52.0245,74.0372
52.3339,74.3466
52.3813,74.4175
52.3980,74.5012
52.3813,74.5849
52.3339,74.6559
Z" /> 
<path style="fill:#D864FF; fill-opacity:0.4000; stroke:none;fill-rule:evenodd;"
d="M 58.1652,73.5920
58.0942,73.6394
58.0105,73.6561
57.9268,73.6394
57.8559,73.5920
57.5465,73.2826
57.4991,73.2117
57.4824,73.1280
57.4991,73.0443
57.5465,72.9733
57.9089,72.6109
57.9799,72.5635
58.0636,72.5468
58.1473,72.5635
58.2182,72.6109
58.5276,72.9203
58.5750,72.9912
58.5917,73.0749
58.5750,73.1586
58.5276,73.2296
Z" /> 
<path style="fill:#D864FF; fill-opacity:0.4000; stroke:none;fill-rule:evenodd;"
d="M 57.0515,72.4783
56.9805,72.5257
56.8968,72.5424
56.8131,72.5257
56.7422,72.4783
56.4328,72.1689
56.3854,72.0980
56.3687,72.0143
56.3854,71.9306
56.4328,71.8596
56.7952,71.4972
56.8662,71.4498
56.9499,71.4331
57.0336,71.4498
57.1045,71.4972
57.4139,71.8066
57.4613,71.8775
57.4780,71.9612
57.4613,72.0450
57.4139,72.1159
Z" /> 
<path style="fill:#D864FF; fill-opacity:0.4000; stroke:none;fill-rule:evenodd;"
d="M 50.5452,65.9720
50.4742,66.0194
50.3905,66.0361
50.3068,66.0194
50.2358,65.9720
49.9265,65.6626
49.8791,65.5917
49.8624,65.5080
49.8791,65.4243
49.9265,65.3533
50.2889,64.9909
50.3598,64.9435
50.4436,64.9268
50.5273,64.9435
50.5982,64.9909
50.9076,65.3003
50.9550,65.3712
50.9717,65.4549
50.9550,65.5386
50.9076,65.6096
Z" /> 
<path style="fill:#D864FF; fill-opacity:0.4000; stroke:none;fill-rule:evenodd;"
d="M 49.4315,64.8583
49.3605,64.9057
49.2768,64.9224
49.1931,64.9057
49.1222,64.8583
48.8128,64.5489
48.7654,64.4780
48.7487,64.3943
48.7654,64.3106
48.8128,64.2396
49.1752,63.8772
49.2462,63.8298
49.3299,63.8131
49.4136,63.8298
49.4845,63.8772
49.7939,64.1866
49.8413,64.2575
49.8580,64.3412
49.8413,64.4249
49.7939,64.4959
Z" /> 
<path style="fill:#D864FF; fill-opacity:0.4000; stroke:none;fill-rule:evenodd;"
d="M 58.1652,78.6720
58.0942,78.7194
58.0105,78.7361
57.9268,78.7194
57.8559,78.6720
57.5465,78.3626
57.4991,78.2917
57.4824,78.2080
57.4991,78.1243
57.5465,78.0533
57.9089,77.6909
57.9799,77.6435
58.0636,77.6268
58.1473,77.6435
58.2182,77.6909
58.5276,78.0003
58.5750,78.0712
58.5917,78.1549
58.5750,78.2386
58.5276,78.3096
Z" /> 
<path style="fill:#D864FF; fill-opacity:0.4000; stroke:none;fill-rule:evenodd;"
d="M 57.0515,77.5583
56.9805,77.6057
56.8968,77.6224
56.8131,77.6057
56.7422,77.5583
56.4328,77.2489
56.3854,77.1780
56.3687,77.0943
56.3854,77.0106
56.4328,76.9396
56.7952,76.5772
56.8662,76.5298
56.9499,76.5131
57.0336,76.5298
57.1045,76.5772
57.4139,76.8866
57.4613,76.9575
57.4780,77.0412
57.4613,77.1249
57.4139,77.1959
Z" /> 
<path style="fill:#D864FF; fill-opacity:0.4000; stroke:none;fill-rule:evenodd;"
d="M 55.6252,73.5920
55.5542,73.6394
55.4705,73.6561
55.3868,73.6394
55.3159,73.5920
55.0065,73.2826
54.9591,73.2117
54.9424,73.1280
54.9591,73.0443
55.0065,72.9733
55.3689,72.6109
55.4399,72.5635
55.5236,72.5468
55.6073,72.5635
55.6782,72.6109
55.9876,72.9203
56.0350,72.9912
56.0517,73.0749
56.0350,73.1586
55.9876,73.2296
Z" /> 
<path style="fill:#D864FF; fill-opacity:0.4000; stroke:none;fill-rule:evenodd;"
d="M 54.5115,72.4783
54.4405,72.5257
54.3568,72.5424
54.2731,72.5257
54.2022,72.4783
53.8928,72.1689
53.8454,72.0980
53.8287,72.0143
53.8454,71.9306
53.8928,71.8596
54.2552,71.4972
54.3262,71.4498
54.4099,71.4331
54.4936,71.4498
54.5645,71.4972
54.8739,71.8066
54.9213,71.8775
54.9380,71.9612
54.9213,72.0449
54.8739,72.1159
Z" /> 
<path style="fill:#D864FF; fill-opacity:0.4000; stroke:none;fill-rule:evenodd;"
d="M 42.9252,76.1320
42.8542,76.1794
42.7705,76.1961
42.6868,76.1794
42.6159,76.1320
42.3065,75.8226
42.2591,75.7517
42.2424,75.6680
42.2591,75.5843
42.3065,75.5133
42.6689,75.1509
42.7399,75.1035
42.8236,75.0868
42.9073,75.1035
42.9782,75.1509
43.2876,75.4603
43.3350,75.5312
43.3517,75.6149
43.3350,75.6986
43.2876,75.7696
Z" /> 
<path style="fill:#D864FF; fill-opacity:0.4000; stroke:none;fill-rule:evenodd;"
d="M 41.8115,75.0183
41.7405,75.0657
41.6568,75.0824
41.5731,75.0657
41.5022,75.0183
41.1928,74.7089
41.1454,74.6380
41.1287,74.5543
41.1454,74.4706
41.1928,74.3996
41.5552,74.0372
41.6262,73.9898
41.7099,73.9731
41.7936,73.9898
41.8645,74.0372
42.1739,74.3466
42.2213,74.4175
42.2380,74.5012
42.2213,74.5849
42.1739,74.6559
Z" /> 
<path style="fill:#D864FF; fill-opacity:0.4000; stroke:none;fill-rule:evenodd;"
d="M 53.0852,71.0520
53.0142,71.0994
52.9305,71.1161
52.8468,71.0994
52.7759,71.0520
52.4665,70.7426
52.4191,70.6717
52.4024,70.5880
52.4191,70.5043
52.4665,70.4333
52.8289,70.0709
52.8999,70.0235
52.9836,70.0068
53.0673,70.0235
53.1382,70.0709
53.4476,70.3803
53.4950,70.4512
53.5117,70.5349
53.4950,70.6186
53.4476,70.6896
Z" /> 
<path style="fill:#D864FF; fill-opacity:0.4000; stroke:none;fill-rule:evenodd;"
d="M 51.9715,69.9383
51.9005,69.9857
51.8168,70.0024
51.7331,69.9857
51.6622,69.9383
51.3528,69.6289
51.3054,69.5580
51.2887,69.4743
51.3054,69.3906
51.3528,69.3196
51.7152,68.9572
51.7862,68.9098
51.8699,68.8931
51.9536,68.9098
52.0245,68.9572
52.3339,69.2666
52.3813,69.3375
52.3980,69.4212
52.3813,69.5049
52.3339,69.5759
Z" /> 
<path style="fill:#D864FF; fill-opacity:0.4000; stroke:none;fill-rule:evenodd;"
d="M 58.1652,71.0520
58.0942,71.0994
58.0105,71.1161
57.9268,71.0994
57.8559,71.0520
57.5465,70.7426
57.4991,70.6717
57.4824,70.5880
57.4991,70.5042
57.5465,70.4333
57.9089,70.0709
57.9799,70.0235
58.0636,70.0068
58.1473,70.0235
58.2182,70.0709
58.5276,70.3803
58.5750,70.4512
58.5917,70.5349
58.5750,70.6186
58.5276,70.6896
Z" /> 
<path style="fill:#D864FF; fill-opacity:0.4000; stroke:none;fill-rule:evenodd;"
d="M 57.0515,69.9383
56.9805,69.9857
56.8968,70.0024
56.8131,69.9857
56.7422,69.9383
56.4328,69.6289
56.3854,69.5580
56.3687,69.4743
56.3854,69.3906
56.4328,69.3196
56.7952,68.9572
56.8662,68.9098
56.9499,68.8931
57.0336,68.9098
57.1045,68.9572
57.4139,69.2666
57.4613,69.3375
57.4780,69.4212
57.4613,69.5049
57.4139,69.5759
Z" /> 
<path style="fill:#D864FF; fill-opacity:0.4000; stroke:none;fill-rule:evenodd;"
d="M 48.0052,68.5120
47.9342,68.5594
47.8505,68.5761
47.7668,68.5594
47.6959,68.5120
47.3865,68.2026
47.3391,68.1317
47.3224,68.0480
47.3391,67.9643
47.3865,67.8933
47.7489,67.5309
47.8199,67.4835
47.9036,67.4668
47.9873,67.4835
48.0582,67.5309
48.3676,67.8403
48.4150,67.9112
48.4317,67.9949
48.4150,68.0786
48.3676,68.1496
Z" /> 
<path style="fill:#D864FF; fill-opacity:0.4000; stroke:none;fill-rule:evenodd;"
d="M 46.8915,67.3983
46.8205,67.4457
46.7368,67.4624
46.6531,67.4457
46.5822,67.3983
46.2728,67.0889
46.2254,67.0180
46.2087,66.9343
46.2254,66.8506
46.2728,66.7796
46.6352,66.4172
46.7062,66.3698
46.7899,66.3531
46.8736,66.3698
46.9445,66.4172
47.2539,66.7266
47.3013,66.7975
47.3180,66.8812
47.3013,66.9649
47.2539,67.0359
Z" /> 
<path style="fill:#D864FF; fill-opacity:0.4000; stroke:none;fill-rule:evenodd;"
d="M 48.0052,81.2120
47.9342,81.2594
47.8505,81.2761
47.7668,81.2594
47.6959,81.2120
47.3865,80.9026
47.3391,80.8317
47.3224,80.7480
47.3391,80.6643
47.3865,80.5933
47.7489,80.2309
47.8199,80.1835
47.9036,80.1668
47.9873,80.1835
48.0582,80.2309
48.3676,80.5403
48.4150,80.6112
48.4317,80.6949
48.4150,80.7786
48.3676,80.8496
Z" /> 
<path style="fill:#D864FF; fill-opacity:0.4000; stroke:none;fill-rule:evenodd;"
d="M 46.8915,80.0983
46.8205,80.1457
46.7368,80.1624
46.6531,80.1457
46.5822,80.0983
46.2728,79.7889
46.2254,79.7180
46.2087,79.6343
46.2254,79.5506
46.2728,79.4796
46.6352,79.1172
46.7062,79.0698
46.7899,79.0531
46.8736,79.0698
46.9445,79.1172
47.2539,79.4266
47.3013,79.4975
47.3180,79.5812
47.3013,79.6649
47.2539,79.7359
Z" /> 
<path style="fill:#D864FF; fill-opacity:0.4000; stroke:none;fill-rule:evenodd;"
d="M 42.9252,78.6720
42.8542,78.7194
42.7705,78.7361
42.6868,78.7194
42.6159,78.6720
42.3065,78.3626
42.2591,78.2917
42.2424,78.2080
42.2591,78.1243
42.3065,78.0533
42.6689,77.6909
42.7399,77.6435
42.8236,77.6268
42.9073,77.6435
42.9782,77.6909
43.2876,78.0003
43.3350,78.0712
43.3517,78.1549
43.3350,78.2386
43.2876,78.3096
Z" /> 
<path style="fill:#D864FF; fill-opacity:0.4000; stroke:none;fill-rule:evenodd;"
d="M 41.8115,77.5583
41.7405,77.6057
41.6568,77.6224
41.5731,77.6057
41.5022,77.5583
41.1928,77.2489
41.1454,77.1780
41.1287,77.0943
41.1454,77.0106
41.1928,76.9396
41.5552,76.5772
41.6262,76.5298
41.7099,76.5131
41.7936,76.5298
41.8645,76.5772
42.1739,76.8866
42.2213,76.9575
42.2380,77.0412
42.2213,77.1249
42.1739,77.1959
Z" /> 
<path style="fill:#D864FF; fill-opacity:0.4000; stroke:none;fill-rule:evenodd;"
d="M 60.7052,73.5920
60.6342,73.6394
60.5505,73.6561
60.4668,73.6394
60.3959,73.5920
60.0865,73.2826
60.0391,73.2117
60.0224,73.1280
60.0391,73.0443
60.0865,72.9733
60.4489,72.6109
60.5199,72.5635
60.6036,72.5468
60.6873,72.5635
60.7582,72.6109
61.0676,72.9203
61.1150,72.9912
61.1317,73.0749
61.1150,73.1586
61.0676,73.2296
Z" /> 
<path style="fill:#D864FF; fill-opacity:0.4000; stroke:none;fill-rule:evenodd;"
d="M 59.5915,72.4783
59.5205,72.5257
59.4368,72.5424
59.3531,72.5257
59.2822,72.4783
58.9728,72.1689
58.9254,72.0980
58.9087,72.0143
58.9254,71.9306
58.9728,71.8596
59.3352,71.4972
59.4062,71.4498
59.4899,71.4331
59.5736,71.4498
59.6445,71.4972
59.9539,71.8066
60.0013,71.8775
60.0180,71.9612
60.0013,72.0449
59.9539,72.1159
Z" /> 
<path style="fill:#D864FF; fill-opacity:0.4000; stroke:none;fill-rule:evenodd;"
d="M 45.4652,76.1320
45.3942,76.1794
45.3105,76.1961
45.2268,76.1794
45.1559,76.1320
44.8465,75.8226
44.7991,75.7517
44.7824,75.6680
44.7991,75.5843
44.8465,75.5133
45.2089,75.1509
45.2799,75.1035
45.3636,75.0868
45.4473,75.1035
45.5182,75.1509
45.8276,75.4603
45.8750,75.5312
45.8917,75.6149
45.8750,75.6986
45.8276,75.7696
Z" /> 
<path style="fill:#D864FF; fill-opacity:0.4000; stroke:none;fill-rule:evenodd;"
d="M 44.3515,75.0183
44.2805,75.0657
44.1968,75.0824
44.1131,75.0657
44.0422,75.0183
43.7328,74.7089
43.6854,74.6380
43.6687,74.5543
43.6854,74.4706
43.7328,74.3996
44.0952,74.0372
44.1662,73.9898
44.2499,73.9731
44.3336,73.9898
44.4045,74.0372
44.7139,74.3466
44.7613,74.4175
44.7780,74.5012
44.7613,74.5849
44.7139,74.6559
Z" /> 
<path style="fill:#D864FF; fill-opacity:0.4000; stroke:none;fill-rule:evenodd;"
d="M 60.7052,78.6720
60.6342,78.7194
60.5505,78.7361
60.4668,78.7194
60.3959,78.6720
60.0865,78.3626
60.0391,78.2917
60.0224,78.2080
60.0391,78.1243
60.0865,78.0533
60.4489,77.6909
60.5199,77.6435
60.6036,77.6268
60.6873,77.6435
60.7582,77.6909
61.0676,78.0003
61.1150,78.0712
61.1317,78.1549
61.1150,78.2386
61.0676,78.3096
Z" /> 
<path style="fill:#D864FF; fill-opacity:0.4000; stroke:none;fill-rule:evenodd;"
d="M 59.5915,77.5583
59.5205,77.6057
59.4368,77.6224
59.3531,77.6057
59.2822,77.5583
58.9728,77.2489
58.9254,77.1780
58.9087,77.0943
58.9254,77.0106
58.9728,76.9396
59.3352,76.5772
59.4062,76.5298
59.4899,76.5131
59.5736,76.5298
59.6445,76.5772
59.9539,76.8866
60.0013,76.9575
60.0180,77.0412
60.0013,77.1249
59.9539,77.1959
Z" /> 
<path style="fill:#D864FF; fill-opacity:0.4000; stroke:none;fill-rule:evenodd;"
d="M 42.9252,73.5920
42.8542,73.6394
42.7705,73.6561
42.6868,73.6394
42.6159,73.5920
42.3065,73.2826
42.2591,73.2117
42.2424,73.1280
42.2591,73.0443
42.3065,72.9733
42.6689,72.6109
42.7399,72.5635
42.8236,72.5468
42.9073,72.5635
42.9782,72.6109
43.2876,72.9203
43.3350,72.9912
43.3517,73.0749
43.3350,73.1586
43.2876,73.2296
Z" /> 
<path style="fill:#D864FF; fill-opacity:0.4000; stroke:none;fill-rule:evenodd;"
d="M 41.8115,72.4783
41.7405,72.5257
41.6568,72.5424
41.5731,72.5257
41.5022,72.4783
41.1928,72.1689
41.1454,72.0980
41.1287,72.0143
41.1454,71.9306
41.1928,71.8596
41.5552,71.4972
41.6262,71.4498
41.7099,71.4331
41.7936,71.4498
41.8645,71.4972
42.1739,71.8066
42.2213,71.8775
42.2380,71.9612
42.2213,72.0449
42.1739,72.1159
Z" /> 
<path style="fill:#D864FF; fill-opacity:0.4000; stroke:none;fill-rule:evenodd;"
d="M 50.5452,78.6720
50.4742,78.7194
50.3905,78.7361
50.3068,78.7194
50.2358,78.6720
49.9265,78.3626
49.8791,78.2917
49.8624,78.2080
49.8791,78.1243
49.9265,78.0533
50.2889,77.6909
50.3598,77.6435
50.4436,77.6268
50.5273,77.6435
50.5982,77.6909
50.9076,78.0003
50.9550,78.0712
50.9717,78.1549
50.9550,78.2386
50.9076,78.3096
Z" /> 
<path style="fill:#D864FF; fill-opacity:0.4000; stroke:none;fill-rule:evenodd;"
d="M 49.4315,77.5583
49.3605,77.6057
49.2768,77.6224
49.1931,77.6057
49.1222,77.5583
48.8128,77.2489
48.7654,77.1780
48.7487,77.0943
48.7654,77.0106
48.8128,76.9396
49.1752,76.5772
49.2462,76.5298
49.3299,76.5131
49.4136,76.5298
49.4845,76.5772
49.7939,76.8866
49.8413,76.9575
49.8580,77.0412
49.8413,77.1249
49.7939,77.1959
Z" /> 
<path style="fill:#D864FF; fill-opacity:0.4000; stroke:none;fill-rule:evenodd;"
d="M 58.1652,65.9720
58.0942,66.0194
58.0105,66.0361
57.9268,66.0194
57.8559,65.9720
57.5465,65.6626
57.4991,65.5917
57.4824,65.5080
57.4991,65.4243
57.5465,65.3533
57.9089,64.9909
57.9799,64.9435
58.0636,64.9268
58.1473,64.9435
58.2182,64.9909
58.5276,65.3003
58.5750,65.3712
58.5917,65.4549
58.5750,65.5386
58.5276,65.6096
Z" /> 
<path style="fill:#D864FF; fill-opacity:0.4000; stroke:none;fill-rule:evenodd;"
d="M 57.0515,64.8583
56.9805,64.9057
56.8968,64.9224
56.8131,64.9057
56.7422,64.8583
56.4328,64.5489
56.3854,64.4780
56.3687,64.3943
56.3854,64.3106
56.4328,64.2396
56.7952,63.8772
56.8662,63.8298
56.9499,63.8131
57.0336,63.8298
57.1045,63.8772
57.4139,64.1866
57.4613,64.2575
57.4780,64.3412
57.4613,64.4249
57.4139,64.4959
Z" /> 
<path style="fill:#D864FF; fill-opacity:0.4000; stroke:none;fill-rule:evenodd;"
d="M 48.0052,63.4320
47.9342,63.4794
47.8505,63.4961
47.7668,63.4794
47.6959,63.4320
47.3865,63.1226
47.3391,63.0517
47.3224,62.9680
47.3391,62.8843
47.3865,62.8133
47.7489,62.4509
47.8199,62.4035
47.9036,62.3868
47.9873,62.4035
48.0582,62.4509
48.3676,62.7603
48.4150,62.8312
48.4317,62.9149
48.4150,62.9986
48.3676,63.0696
Z" /> 
<path style="fill:#D864FF; fill-opacity:0.4000; stroke:none;fill-rule:evenodd;"
d="M 46.8915,62.3183
46.8205,62.3657
46.7368,62.3824
46.6531,62.3657
46.5822,62.3183
46.2728,62.0089
46.2254,61.9380
46.2087,61.8543
46.2254,61.7706
46.2728,61.6996
46.6352,61.3372
46.7062,61.2898
46.7899,61.2731
46.8736,61.2898
46.9445,61.3372
47.2539,61.6466
47.3013,61.7175
47.3180,61.8012
47.3013,61.8849
47.2539,61.9559
Z" /> 
<path style="fill:#D864FF; fill-opacity:0.4000; stroke:none;fill-rule:evenodd;"
d="M 60.7052,65.9720
60.6342,66.0194
60.5505,66.0361
60.4668,66.0194
60.3959,65.9720
60.0865,65.6626
60.0391,65.5917
60.0224,65.5080
60.0391,65.4243
60.0865,65.3533
60.4489,64.9909
60.5199,64.9435
60.6036,64.9268
60.6873,64.9435
60.7582,64.9909
61.0676,65.3003
61.1150,65.3712
61.1317,65.4549
61.1150,65.5386
61.0676,65.6096
Z" /> 
<path style="fill:#D864FF; fill-opacity:0.4000; stroke:none;fill-rule:evenodd;"
d="M 59.5915,64.8583
59.5205,64.9057
59.4368,64.9224
59.3531,64.9057
59.2822,64.8583
58.9728,64.5489
58.9254,64.4780
58.9087,64.3943
58.9254,64.3106
58.9728,64.2396
59.3352,63.8772
59.4062,63.8298
59.4899,63.8131
59.5736,63.8298
59.6445,63.8772
59.9539,64.1866
60.0013,64.2575
60.0180,64.3412
60.0013,64.4249
59.9539,64.4959
Z" /> 
<path style="fill:#D864FF; fill-opacity:0.4000; stroke:none;fill-rule:evenodd;"
d="M 60.7584,63.2652
60.6874,63.3126
60.6037,63.3292
60.5200,63.3126
60.4490,63.2652
60.1396,62.9558
60.0922,62.8848
60.0756,62.8011
60.0922,62.7174
60.1396,62.6464
60.5020,62.2840
60.5730,62.2366
60.6567,62.2200
60.7404,62.2366
60.8114,62.2840
61.1208,62.5934
61.1682,62.6644
61.1848,62.7481
61.1682,62.8318
61.1208,62.9028
Z" /> 
<path style="fill:#D864FF; fill-opacity:0.4000; stroke:none;fill-rule:evenodd;"
d="M 59.6447,62.1515
59.5737,62.1989
59.4900,62.2155
59.4063,62.1989
59.3353,62.1515
59.0260,61.8421
58.9785,61.7711
58.9619,61.6874
58.9785,61.6037
59.0260,61.5327
59.3883,61.1704
59.4593,61.1229
59.5430,61.1063
59.6267,61.1229
59.6977,61.1704
60.0071,61.4797
60.0545,61.5507
60.0711,61.6344
60.0545,61.7181
60.0071,61.7891
Z" /> 
<path style="fill:#D864FF; fill-opacity:0.4000; stroke:none;fill-rule:evenodd;"
d="M 48.0052,76.1320
47.9342,76.1794
47.8505,76.1961
47.7668,76.1794
47.6959,76.1320
47.3865,75.8226
47.3391,75.7517
47.3224,75.6680
47.3391,75.5843
47.3865,75.5133
47.7489,75.1509
47.8199,75.1035
47.9036,75.0868
47.9873,75.1035
48.0582,75.1509
48.3676,75.4603
48.4150,75.5312
48.4317,75.6149
48.4150,75.6986
48.3676,75.7696
Z" /> 
<path style="fill:#D864FF; fill-opacity:0.4000; stroke:none;fill-rule:evenodd;"
d="M 46.8915,75.0183
46.8205,75.0657
46.7368,75.0824
46.6531,75.0657
46.5822,75.0183
46.2728,74.7089
46.2254,74.6380
46.2087,74.5543
46.2254,74.4706
46.2728,74.3996
46.6352,74.0372
46.7062,73.9898
46.7899,73.9731
46.8736,73.9898
46.9445,74.0372
47.2539,74.3466
47.3013,74.4175
47.3180,74.5012
47.3013,74.5849
47.2539,74.6559
Z" /> 
<path style="fill:#D864FF; fill-opacity:0.4000; stroke:none;fill-rule:evenodd;"
d="M 55.6252,65.9720
55.5542,66.0194
55.4705,66.0361
55.3868,66.0194
55.3159,65.9720
55.0065,65.6626
54.9591,65.5917
54.9424,65.5080
54.9591,65.4243
55.0065,65.3533
55.3689,64.9909
55.4399,64.9435
55.5236,64.9268
55.6073,64.9435
55.6782,64.9909
55.9876,65.3003
56.0350,65.3712
56.0517,65.4549
56.0350,65.5386
55.9876,65.6096
Z" /> 
<path style="fill:#D864FF; fill-opacity:0.4000; stroke:none;fill-rule:evenodd;"
d="M 54.5115,64.8583
54.4405,64.9057
54.3568,64.9224
54.2731,64.9057
54.2022,64.8583
53.8928,64.5489
53.8454,64.4780
53.8287,64.3943
53.8454,64.3106
53.8928,64.2396
54.2552,63.8772
54.3262,63.8298
54.4099,63.8131
54.4936,63.8298
54.5645,63.8772
54.8739,64.1866
54.9213,64.2575
54.9380,64.3412
54.9213,64.4249
54.8739,64.4959
Z" /> 
<path style="fill:#D864FF; fill-opacity:0.4000; stroke:none;fill-rule:evenodd;"
d="M 45.4652,68.5120
45.3942,68.5594
45.3105,68.5761
45.2268,68.5594
45.1559,68.5120
44.8465,68.2026
44.7991,68.1317
44.7824,68.0480
44.7991,67.9643
44.8465,67.8933
45.2089,67.5309
45.2799,67.4835
45.3636,67.4668
45.4473,67.4835
45.5182,67.5309
45.8276,67.8403
45.8750,67.9112
45.8917,67.9949
45.8750,68.0786
45.8276,68.1496
Z" /> 
<path style="fill:#D864FF; fill-opacity:0.4000; stroke:none;fill-rule:evenodd;"
d="M 44.3515,67.3983
44.2805,67.4457
44.1968,67.4624
44.1131,67.4457
44.0422,67.3983
43.7328,67.0889
43.6854,67.0180
43.6687,66.9343
43.6854,66.8506
43.7328,66.7796
44.0952,66.4172
44.1662,66.3698
44.2499,66.3531
44.3336,66.3698
44.4045,66.4172
44.7139,66.7266
44.7613,66.7975
44.7780,66.8812
44.7613,66.9649
44.7139,67.0359
Z" /> 
<path style="fill:#D864FF; fill-opacity:0.4000; stroke:none;fill-rule:evenodd;"
d="M 49.6640,17.3396
49.6537,17.3913
49.6245,17.4351
49.5807,17.4643
49.5290,17.4746
48.8990,17.4746
48.8473,17.4643
48.8035,17.4351
48.7743,17.3913
48.7640,17.3396
48.7640,16.2096
48.7743,16.1579
48.8035,16.1141
48.8473,16.0849
48.8990,16.0746
49.5290,16.0746
49.5807,16.0849
49.6245,16.1141
49.6537,16.1579
49.6640,16.2096
Z" /> 
<path style="fill:#D864FF; fill-opacity:0.4000; stroke:none;fill-rule:evenodd;"
d="M 46.9640,17.3396
46.9537,17.3913
46.9245,17.4351
46.8807,17.4643
46.8290,17.4746
46.1990,17.4746
46.1473,17.4643
46.1035,17.4351
46.0743,17.3913
46.0640,17.3396
46.0640,16.2096
46.0743,16.1579
46.1035,16.1141
46.1473,16.0849
46.1990,16.0746
46.8290,16.0746
46.8807,16.0849
46.9245,16.1141
46.9537,16.1579
46.9640,16.2096
Z" /> 
<path style="fill:#D864FF; fill-opacity:0.4000; stroke:none;fill-rule:evenodd;"
d="M 82.8122,66.7997
82.8793,66.8830
82.9384,67.0124
82.9586,67.1533
82.9384,67.2941
82.8793,67.4236
82.8122,67.5068
82.1051,68.2139
82.0218,68.2810
81.8924,68.3401
81.7515,68.3604
81.6107,68.3401
81.4812,68.2810
81.3980,68.2139
80.6909,67.5068
80.6238,67.4236
80.5647,67.2941
80.5444,67.1533
80.5647,67.0124
80.6238,66.8830
80.6909,66.7997
81.3980,66.0926
81.4812,66.0255
81.6107,65.9664
81.7515,65.9462
81.8924,65.9664
82.0218,66.0255
82.1051,66.0926
Z" /> 
<path style="fill:#D864FF; fill-opacity:0.4000; stroke:none;fill-rule:evenodd;"
d="M 78.5695,71.0424
78.6366,71.1256
78.6957,71.2551
78.7160,71.3959
78.6957,71.5368
78.6366,71.6662
78.5695,71.7495
77.8624,72.4566
77.7792,72.5237
77.6497,72.5828
77.5089,72.6030
77.3680,72.5828
77.2386,72.5237
77.1553,72.4566
76.4482,71.7495
76.3811,71.6662
76.3220,71.5368
76.3018,71.3959
76.3220,71.2551
76.3811,71.1256
76.4482,71.0424
77.1553,70.3353
77.2386,70.2682
77.3680,70.2091
77.5089,70.1888
77.6497,70.2091
77.7792,70.2682
77.8624,70.3353
Z" /> 
<path style="fill:#D864FF; fill-opacity:0.4000; stroke:none;fill-rule:evenodd;"
d="M 53.0852,63.4320
53.0142,63.4794
52.9305,63.4961
52.8468,63.4794
52.7759,63.4320
52.4665,63.1226
52.4191,63.0517
52.4024,62.9680
52.4191,62.8843
52.4665,62.8133
52.8289,62.4509
52.8999,62.4035
52.9836,62.3868
53.0673,62.4035
53.1382,62.4509
53.4476,62.7603
53.4950,62.8312
53.5117,62.9149
53.4950,62.9986
53.4476,63.0696
Z" /> 
<path style="fill:#D864FF; fill-opacity:0.4000; stroke:none;fill-rule:evenodd;"
d="M 51.9715,62.3183
51.9005,62.3657
51.8168,62.3824
51.7331,62.3657
51.6622,62.3183
51.3528,62.0089
51.3054,61.9380
51.2887,61.8543
51.3054,61.7706
51.3528,61.6996
51.7152,61.3372
51.7862,61.2898
51.8699,61.2731
51.9536,61.2898
52.0245,61.3372
52.3339,61.6466
52.3813,61.7175
52.3980,61.8012
52.3813,61.8849
52.3339,61.9559
Z" /> 
<path style="fill:#D864FF; fill-opacity:0.4000; stroke:none;fill-rule:evenodd;"
d="M 50.5452,73.5920
50.4742,73.6394
50.3905,73.6561
50.3068,73.6394
50.2359,73.5920
49.9265,73.2826
49.8791,73.2117
49.8624,73.1280
49.8791,73.0443
49.9265,72.9733
50.2889,72.6109
50.3599,72.5635
50.4436,72.5468
50.5273,72.5635
50.5982,72.6109
50.9076,72.9203
50.9550,72.9912
50.9717,73.0749
50.9550,73.1586
50.9076,73.2296
Z" /> 
<path style="fill:#D864FF; fill-opacity:0.4000; stroke:none;fill-rule:evenodd;"
d="M 49.4315,72.4783
49.3605,72.5257
49.2768,72.5424
49.1931,72.5257
49.1222,72.4783
48.8128,72.1689
48.7654,72.0980
48.7487,72.0143
48.7654,71.9306
48.8128,71.8596
49.1752,71.4972
49.2462,71.4498
49.3299,71.4331
49.4136,71.4498
49.4845,71.4972
49.7939,71.8066
49.8413,71.8775
49.8580,71.9612
49.8413,72.0449
49.7939,72.1159
Z" /> 
<path style="fill:#D864FF; fill-opacity:0.4000; stroke:none;fill-rule:evenodd;"
d="M 48.0052,78.6720
47.9342,78.7194
47.8505,78.7361
47.7668,78.7194
47.6959,78.6720
47.3865,78.3626
47.3391,78.2917
47.3224,78.2080
47.3391,78.1243
47.3865,78.0533
47.7489,77.6909
47.8199,77.6435
47.9036,77.6268
47.9873,77.6435
48.0582,77.6909
48.3676,78.0003
48.4150,78.0712
48.4317,78.1549
48.4150,78.2386
48.3676,78.3096
Z" /> 
<path style="fill:#D864FF; fill-opacity:0.4000; stroke:none;fill-rule:evenodd;"
d="M 46.8915,77.5583
46.8205,77.6057
46.7368,77.6224
46.6531,77.6057
46.5822,77.5583
46.2728,77.2489
46.2254,77.1780
46.2087,77.0943
46.2254,77.0106
46.2728,76.9396
46.6352,76.5772
46.7062,76.5298
46.7899,76.5131
46.8736,76.5298
46.9445,76.5772
47.2539,76.8866
47.3013,76.9575
47.3180,77.0412
47.3013,77.1249
47.2539,77.1959
Z" /> 
<path style="fill:#D864FF; fill-opacity:0.4000; stroke:none;fill-rule:evenodd;"
d="M 58.1652,68.5120
58.0942,68.5594
58.0105,68.5761
57.9268,68.5594
57.8559,68.5120
57.5465,68.2026
57.4991,68.1317
57.4824,68.0480
57.4991,67.9643
57.5465,67.8933
57.9089,67.5309
57.9799,67.4835
58.0636,67.4668
58.1473,67.4835
58.2182,67.5309
58.5276,67.8403
58.5750,67.9112
58.5917,67.9949
58.5750,68.0786
58.5276,68.1496
Z" /> 
<path style="fill:#D864FF; fill-opacity:0.4000; stroke:none;fill-rule:evenodd;"
d="M 57.0515,67.3983
56.9805,67.4457
56.8968,67.4624
56.8131,67.4457
56.7422,67.3983
56.4328,67.0889
56.3854,67.0180
56.3687,66.9343
56.3854,66.8506
56.4328,66.7796
56.7952,66.4172
56.8662,66.3698
56.9499,66.3531
57.0336,66.3698
57.1045,66.4172
57.4139,66.7266
57.4613,66.7975
57.4780,66.8812
57.4613,66.9649
57.4139,67.0359
Z" /> 
<path style="fill:#D864FF; fill-opacity:0.4000; stroke:none;fill-rule:evenodd;"
d="M 71.1553,71.5926
71.2386,71.5255
71.3680,71.4664
71.5089,71.4462
71.6497,71.4664
71.7792,71.5255
71.8624,71.5926
72.5695,72.2997
72.6366,72.3830
72.6957,72.5124
72.7160,72.6533
72.6957,72.7941
72.6366,72.9236
72.5695,73.0068
71.8624,73.7139
71.7792,73.7810
71.6497,73.8401
71.5089,73.8604
71.3680,73.8401
71.2386,73.7810
71.1553,73.7139
70.4482,73.0068
70.3811,72.9236
70.3220,72.7941
70.3018,72.6533
70.3220,72.5124
70.3811,72.3830
70.4482,72.2997
Z" /> 
<path style="fill:#D864FF; fill-opacity:0.4000; stroke:none;fill-rule:evenodd;"
d="M 75.3980,75.8353
75.4812,75.7682
75.6107,75.7091
75.7515,75.6888
75.8924,75.7091
76.0218,75.7682
76.1051,75.8353
76.8122,76.5424
76.8793,76.6256
76.9384,76.7551
76.9586,76.8959
76.9384,77.0368
76.8793,77.1662
76.8122,77.2495
76.1051,77.9566
76.0218,78.0237
75.8924,78.0828
75.7515,78.1030
75.6107,78.0828
75.4812,78.0237
75.3980,77.9566
74.6909,77.2495
74.6238,77.1662
74.5647,77.0368
74.5444,76.8959
74.5647,76.7551
74.6238,76.6256
74.6909,76.5424
Z" /> 
<path style="fill:#D864FF; fill-opacity:0.4000; stroke:none;fill-rule:evenodd;"
d="M 60.7052,81.2120
60.6342,81.2594
60.5505,81.2761
60.4668,81.2594
60.3959,81.2120
60.0865,80.9026
60.0391,80.8317
60.0224,80.7480
60.0391,80.6643
60.0865,80.5933
60.4489,80.2309
60.5199,80.1835
60.6036,80.1668
60.6873,80.1835
60.7582,80.2309
61.0676,80.5403
61.1150,80.6112
61.1317,80.6949
61.1150,80.7786
61.0676,80.8496
Z" /> 
<path style="fill:#D864FF; fill-opacity:0.4000; stroke:none;fill-rule:evenodd;"
d="M 59.5915,80.0983
59.5205,80.1457
59.4368,80.1624
59.3531,80.1457
59.2822,80.0983
58.9728,79.7889
58.9254,79.7180
58.9087,79.6343
58.9254,79.5506
58.9728,79.4796
59.3352,79.1172
59.4062,79.0698
59.4899,79.0531
59.5736,79.0698
59.6445,79.1172
59.9539,79.4266
60.0013,79.4975
60.0180,79.5812
60.0013,79.6649
59.9539,79.7359
Z" /> 
<path style="fill:#D864FF; fill-opacity:0.4000; stroke:none;fill-rule:evenodd;"
d="M 50.5452,76.1320
50.4742,76.1794
50.3905,76.1961
50.3068,76.1794
50.2359,76.1320
49.9265,75.8226
49.8791,75.7517
49.8624,75.6680
49.8791,75.5843
49.9265,75.5133
50.2889,75.1509
50.3599,75.1035
50.4436,75.0868
50.5273,75.1035
50.5982,75.1509
50.9076,75.4603
50.9550,75.5312
50.9717,75.6149
50.9550,75.6986
50.9076,75.7696
Z" /> 
<path style="fill:#D864FF; fill-opacity:0.4000; stroke:none;fill-rule:evenodd;"
d="M 49.4315,75.0183
49.3605,75.0657
49.2768,75.0824
49.1931,75.0657
49.1222,75.0183
48.8128,74.7089
48.7654,74.6380
48.7487,74.5543
48.7654,74.4706
48.8128,74.3996
49.1752,74.0372
49.2462,73.9898
49.3299,73.9731
49.4136,73.9898
49.4845,74.0372
49.7939,74.3466
49.8413,74.4175
49.8580,74.5012
49.8413,74.5849
49.7939,74.6559
Z" /> 
<path style="fill:#D864FF; fill-opacity:0.4000; stroke:none;fill-rule:evenodd;"
d="M 53.0852,73.5920
53.0142,73.6394
52.9305,73.6561
52.8468,73.6394
52.7759,73.5920
52.4665,73.2826
52.4191,73.2117
52.4024,73.1280
52.4191,73.0443
52.4665,72.9733
52.8289,72.6109
52.8999,72.5635
52.9836,72.5468
53.0673,72.5635
53.1382,72.6109
53.4476,72.9203
53.4950,72.9912
53.5117,73.0749
53.4950,73.1586
53.4476,73.2296
Z" /> 
<path style="fill:#D864FF; fill-opacity:0.4000; stroke:none;fill-rule:evenodd;"
d="M 51.9715,72.4783
51.9005,72.5257
51.8168,72.5424
51.7331,72.5257
51.6622,72.4783
51.3528,72.1689
51.3054,72.0980
51.2887,72.0143
51.3054,71.9306
51.3528,71.8596
51.7152,71.4972
51.7862,71.4498
51.8699,71.4331
51.9536,71.4498
52.0245,71.4972
52.3339,71.8066
52.3813,71.8775
52.3980,71.9612
52.3813,72.0449
52.3339,72.1159
Z" /> 
<path style="fill:#D864FF; fill-opacity:0.4000; stroke:none;fill-rule:evenodd;"
d="M 42.9252,65.9720
42.8542,66.0194
42.7705,66.0361
42.6868,66.0194
42.6159,65.9720
42.3065,65.6626
42.2591,65.5917
42.2424,65.5080
42.2591,65.4243
42.3065,65.3533
42.6689,64.9909
42.7399,64.9435
42.8236,64.9268
42.9073,64.9435
42.9782,64.9909
43.2876,65.3003
43.3350,65.3712
43.3517,65.4549
43.3350,65.5386
43.2876,65.6096
Z" /> 
<path style="fill:#D864FF; fill-opacity:0.4000; stroke:none;fill-rule:evenodd;"
d="M 41.8115,64.8583
41.7405,64.9057
41.6568,64.9224
41.5731,64.9057
41.5022,64.8583
41.1928,64.5489
41.1454,64.4780
41.1287,64.3943
41.1454,64.3106
41.1928,64.2396
41.5552,63.8772
41.6262,63.8298
41.7099,63.8131
41.7936,63.8298
41.8645,63.8772
42.1739,64.1866
42.2213,64.2575
42.2380,64.3412
42.2213,64.4249
42.1739,64.4959
Z" /> 
<path style="fill:#D864FF; fill-opacity:0.4000; stroke:none;fill-rule:evenodd;"
d="M 45.4652,65.9720
45.3942,66.0194
45.3105,66.0361
45.2268,66.0194
45.1559,65.9720
44.8465,65.6626
44.7991,65.5917
44.7824,65.5080
44.7991,65.4243
44.8465,65.3533
45.2089,64.9909
45.2799,64.9435
45.3636,64.9268
45.4473,64.9435
45.5182,64.9909
45.8276,65.3003
45.8750,65.3712
45.8917,65.4549
45.8750,65.5386
45.8276,65.6096
Z" /> 
<path style="fill:#D864FF; fill-opacity:0.4000; stroke:none;fill-rule:evenodd;"
d="M 44.3515,64.8583
44.2805,64.9057
44.1968,64.9224
44.1131,64.9057
44.0422,64.8583
43.7328,64.5489
43.6854,64.4780
43.6687,64.3943
43.6854,64.3106
43.7328,64.2396
44.0952,63.8772
44.1662,63.8298
44.2499,63.8131
44.3336,63.8298
44.4045,63.8772
44.7139,64.1866
44.7613,64.2575
44.7780,64.3412
44.7613,64.4249
44.7139,64.4959
Z" /> 
<path style="fill:#D864FF; fill-opacity:0.4000; stroke:none;fill-rule:evenodd;"
d="M 50.5452,81.2120
50.4742,81.2594
50.3905,81.2761
50.3068,81.2594
50.2359,81.2120
49.9265,80.9026
49.8791,80.8317
49.8624,80.7480
49.8791,80.6643
49.9265,80.5933
50.2889,80.2309
50.3599,80.1835
50.4436,80.1668
50.5273,80.1835
50.5982,80.2309
50.9076,80.5403
50.9550,80.6112
50.9717,80.6949
50.9550,80.7786
50.9076,80.8496
Z" /> 
<path style="fill:#D864FF; fill-opacity:0.4000; stroke:none;fill-rule:evenodd;"
d="M 49.4315,80.0983
49.3605,80.1457
49.2768,80.1624
49.1931,80.1457
49.1222,80.0983
48.8128,79.7889
48.7654,79.7180
48.7487,79.6343
48.7654,79.5506
48.8128,79.4796
49.1752,79.1172
49.2462,79.0698
49.3299,79.0531
49.4136,79.0698
49.4845,79.1172
49.7939,79.4266
49.8413,79.4975
49.8580,79.5812
49.8413,79.6649
49.7939,79.7359
Z" /> 
<path style="fill:#D864FF; fill-opacity:0.4000; stroke:none;fill-rule:evenodd;"
d="M 48.0052,73.5920
47.9342,73.6394
47.8505,73.6561
47.7668,73.6394
47.6959,73.5920
47.3865,73.2826
47.3391,73.2117
47.3224,73.1280
47.3391,73.0443
47.3865,72.9733
47.7489,72.6109
47.8199,72.5635
47.9036,72.5468
47.9873,72.5635
48.0582,72.6109
48.3676,72.9203
48.4150,72.9912
48.4317,73.0749
48.4150,73.1586
48.3676,73.2296
Z" /> 
<path style="fill:#D864FF; fill-opacity:0.4000; stroke:none;fill-rule:evenodd;"
d="M 46.8915,72.4783
46.8205,72.5257
46.7368,72.5424
46.6531,72.5257
46.5822,72.4783
46.2728,72.1689
46.2254,72.0980
46.2087,72.0143
46.2254,71.9306
46.2728,71.8596
46.6352,71.4972
46.7062,71.4498
46.7899,71.4331
46.8736,71.4498
46.9445,71.4972
47.2539,71.8066
47.3013,71.8775
47.3180,71.9612
47.3013,72.0449
47.2539,72.1159
Z" /> 
<path style="fill:#D864FF; fill-opacity:0.4000; stroke:none;fill-rule:evenodd;"
d="M 71.1553,60.5926
71.2386,60.5255
71.3680,60.4664
71.5089,60.4462
71.6497,60.4664
71.7792,60.5255
71.8624,60.5926
72.5695,61.2997
72.6366,61.3830
72.6957,61.5124
72.7160,61.6533
72.6957,61.7941
72.6366,61.9236
72.5695,62.0068
71.8624,62.7139
71.7792,62.7810
71.6497,62.8401
71.5089,62.8604
71.3680,62.8401
71.2386,62.7810
71.1553,62.7139
70.4482,62.0068
70.3811,61.9236
70.3220,61.7941
70.3018,61.6533
70.3220,61.5124
70.3811,61.3830
70.4482,61.2997
Z" /> 
<path style="fill:#D864FF; fill-opacity:0.4000; stroke:none;fill-rule:evenodd;"
d="M 75.3980,64.8353
75.4812,64.7682
75.6107,64.7091
75.7515,64.6888
75.8924,64.7091
76.0218,64.7682
76.1051,64.8353
76.8122,65.5424
76.8793,65.6256
76.9384,65.7551
76.9586,65.8959
76.9384,66.0368
76.8793,66.1662
76.8122,66.2495
76.1051,66.9566
76.0218,67.0237
75.8924,67.0828
75.7515,67.1030
75.6107,67.0828
75.4812,67.0237
75.3980,66.9566
74.6909,66.2495
74.6238,66.1662
74.5647,66.0368
74.5444,65.8959
74.5647,65.7551
74.6238,65.6256
74.6909,65.5424
Z" /> 
<path style="fill:#D864FF; fill-opacity:0.4000; stroke:none;fill-rule:evenodd;"
d="M 42.9252,63.4320
42.8542,63.4794
42.7705,63.4961
42.6868,63.4794
42.6159,63.4320
42.3065,63.1226
42.2591,63.0517
42.2424,62.9680
42.2591,62.8843
42.3065,62.8133
42.6689,62.4509
42.7399,62.4035
42.8236,62.3868
42.9073,62.4035
42.9782,62.4509
43.2876,62.7603
43.3350,62.8312
43.3517,62.9149
43.3350,62.9986
43.2876,63.0696
Z" /> 
<path style="fill:#D864FF; fill-opacity:0.4000; stroke:none;fill-rule:evenodd;"
d="M 41.8115,62.3183
41.7405,62.3657
41.6568,62.3824
41.5731,62.3657
41.5022,62.3183
41.1928,62.0089
41.1454,61.9380
41.1287,61.8543
41.1454,61.7706
41.1928,61.6996
41.5552,61.3372
41.6262,61.2898
41.7099,61.2731
41.7936,61.2898
41.8645,61.3372
42.1739,61.6466
42.2213,61.7175
42.2380,61.8012
42.2213,61.8849
42.1739,61.9559
Z" /> 
<path style="fill:#D864FF; fill-opacity:0.4000; stroke:none;fill-rule:evenodd;"
d="M 59.6490,17.3396
59.6387,17.3913
59.6095,17.4351
59.5657,17.4643
59.5140,17.4746
58.8840,17.4746
58.8323,17.4643
58.7885,17.4351
58.7593,17.3913
58.7490,17.3396
58.7490,16.2096
58.7593,16.1579
58.7885,16.1141
58.8323,16.0849
58.8840,16.0746
59.5140,16.0746
59.5657,16.0849
59.6095,16.1141
59.6387,16.1579
59.6490,16.2096
Z" /> 
<path style="fill:#D864FF; fill-opacity:0.4000; stroke:none;fill-rule:evenodd;"
d="M 56.9490,17.3396
56.9387,17.3913
56.9095,17.4351
56.8657,17.4643
56.8140,17.4746
56.1840,17.4746
56.1323,17.4643
56.0885,17.4351
56.0593,17.3913
56.0490,17.3396
56.0490,16.2096
56.0593,16.1579
56.0885,16.1141
56.1323,16.0849
56.1840,16.0746
56.8140,16.0746
56.8657,16.0849
56.9095,16.1141
56.9387,16.1579
56.9490,16.2096
Z" /> 
<path style="fill:#D864FF; fill-opacity:0.4000; stroke:none;fill-rule:evenodd;"
d="M 55.7548,55.8320
54.0548,55.8320
54.0548,54.1320
55.7548,54.1320
Z" /> 
</g>
<g style="fill:#D864FF; fill-opacity:0.4000; stroke:none;">
<circle cx="52.3648" cy="54.9820" r="0.8500" /> 
<circle cx="47.2848" cy="54.9820" r="0.8500" /> 
<circle cx="49.8248" cy="54.9820" r="0.8500" /> 
<circle cx="47.7740" cy="22.9260" r="0.4000" /> 
<circle cx="13.6402" cy="32.9846" r="0.3000" /> 
<circle cx="13.6402" cy="27.2046" r="0.3000" /> 
</g>
<g style="fill:none; 
stroke:#D864FF; stroke-width:0.9000; stroke-opacity:1; 
stroke-linecap:round; stroke-linejoin:round;">
<path d="M9.5502 34.4146
L10.3502 34.4146
" />
<path d="M13.5702 34.4146
L14.6702 34.4146
" />
<path d="M9.5502 25.7746
L10.3502 25.7746
" />
<path d="M13.5702 25.7746
L14.6702 25.7746
" />
</g> 
</svg>
