<?xml version="1.0" standalone="no"?>
 <!DOCTYPE svg PUBLIC "-//W3C//DTD SVG 1.1//EN" 
 "http://www.w3.org/Graphics/SVG/1.1/DTD/svg11.dtd"> 
<svg
  xmlns:svg="http://www.w3.org/2000/svg"
  xmlns="http://www.w3.org/2000/svg"
  xmlns:xlink="http://www.w3.org/1999/xlink"
  xmlns:inkscape="http://www.inkscape.org/namespaces/inkscape"
  version="1.1"
  width="101.0920mm" height="86.7918mm" viewBox="0.0000 0.0000 101.0920 86.7918">
<title>SVG Image created as v0-Replay-26_PCB-A-F_Courtyard.svg date 2026-04-06T07:18:33 </title>
  <desc>Image generated by PCBNEW </desc>
<g style="fill:#000000; fill-opacity:1.0000;stroke:#000000; stroke-opacity:1.0000;
stroke-linecap:round; stroke-linejoin:round;"
 transform="translate(0 0) scale(1 1)">
</g>
<g style="fill:none; 
stroke:#FF26E2; stroke-width:0.0500; stroke-opacity:1; 
stroke-linecap:round; stroke-linejoin:round;">
<path d="M43.2175 79.6343
L44.2499 78.6019
" />
<path d="M44.2499 78.6019
L46.3429 80.6949
" />
<path d="M45.3105 81.7273
L43.2175 79.6343
" />
<path d="M46.3429 80.6949
L45.3105 81.7273
" />
<path d="M45.7575 64.3943
L46.7899 63.3619
" />
<path d="M46.7899 63.3619
L48.8829 65.4549
" />
<path d="M47.8505 66.4873
L45.7575 64.3943
" />
<path d="M48.8829 65.4549
L47.8505 66.4873
" />
<path d="M53.3775 61.8543
L54.4099 60.8219
" />
<path d="M54.4099 60.8219
L56.5029 62.9149
" />
<path d="M55.4705 63.9473
L53.3775 61.8543
" />
<path d="M56.5029 62.9149
L55.4705 63.9473
" />
<path d="M55.9175 61.8543
L56.9499 60.8219
" />
<path d="M56.9499 60.8219
L59.0429 62.9149
" />
<path d="M58.0105 63.9473
L55.9175 61.8543
" />
<path d="M59.0429 62.9149
L58.0105 63.9473
" />
<path d="M50.8375 77.0943
L51.8699 76.0619
" />
<path d="M51.8699 76.0619
L53.9629 78.1549
" />
<path d="M52.9305 79.1873
L50.8375 77.0943
" />
<path d="M53.9629 78.1549
L52.9305 79.1873
" />
<path d="M43.2175 77.0943
L44.2499 76.0619
" />
<path d="M44.2499 76.0619
L46.3429 78.1549
" />
<path d="M45.3105 79.1873
L43.2175 77.0943
" />
<path d="M46.3429 78.1549
L45.3105 79.1873
" />
<path d="M50.8375 66.9343
L51.8699 65.9019
" />
<path d="M51.8699 65.9019
L53.9629 67.9949
" />
<path d="M52.9305 69.0273
L50.8375 66.9343
" />
<path d="M53.9629 67.9949
L52.9305 69.0273
" />
<path d="M63.7411 71.3959
L65.5089 73.1637
" />
<path d="M63.8825 68.4261
L63.8825 70.1231
" />
<path d="M63.8825 70.1231
L64.4482 70.6888
" />
<path d="M64.4482 70.6888
L63.7411 71.3959
" />
<path d="M65.5089 73.1637
L66.2160 72.4566
" />
<path d="M66.2160 72.4566
L66.7817 73.0223
" />
<path d="M66.7817 65.5269
L63.8825 68.4261
" />
<path d="M66.7817 73.0223
L68.4787 73.0223
" />
<path d="M68.4787 65.5269
L66.7817 65.5269
" />
<path d="M68.4787 73.0223
L71.3779 70.1231
" />
<path d="M69.0444 66.0926
L68.4787 65.5269
" />
<path d="M69.7515 65.3855
L69.0444 66.0926
" />
<path d="M70.8122 67.8604
L71.5193 67.1533
" />
<path d="M71.3779 68.4261
L70.8122 67.8604
" />
<path d="M71.3779 70.1231
L71.3779 68.4261
" />
<path d="M71.5193 67.1533
L69.7515 65.3855
" />
<path d="M53.3775 79.6343
L54.4099 78.6019
" />
<path d="M54.4099 78.6019
L56.5029 80.6949
" />
<path d="M55.4705 81.7273
L53.3775 79.6343
" />
<path d="M56.5029 80.6949
L55.4705 81.7273
" />
<path d="M58.4575 74.5543
L59.4899 73.5219
" />
<path d="M59.4899 73.5219
L61.5829 75.6149
" />
<path d="M60.5505 76.6473
L58.4575 74.5543
" />
<path d="M61.5829 75.6149
L60.5505 76.6473
" />
<path d="M40.6775 69.4743
L41.7099 68.4419
" />
<path d="M41.7099 68.4419
L43.8029 70.5349
" />
<path d="M42.7705 71.5673
L40.6775 69.4743
" />
<path d="M43.8029 70.5349
L42.7705 71.5673
" />
<path d="M50.8375 64.3943
L51.8699 63.3619
" />
<path d="M51.8699 63.3619
L53.9629 65.4549
" />
<path d="M52.9305 66.4873
L50.8375 64.3943
" />
<path d="M53.9629 65.4549
L52.9305 66.4873
" />
<path d="M53.3775 69.4743
L54.4099 68.4419
" />
<path d="M54.4099 68.4419
L56.5029 70.5349
" />
<path d="M55.4705 71.5673
L53.3775 69.4743
" />
<path d="M56.5029 70.5349
L55.4705 71.5673
" />
<path d="M55.9175 79.6343
L56.9499 78.6019
" />
<path d="M56.9499 78.6019
L59.0429 80.6949
" />
<path d="M58.0105 81.7273
L55.9175 79.6343
" />
<path d="M59.0429 80.6949
L58.0105 81.7273
" />
<path d="M50.8375 79.6343
L51.8699 78.6019
" />
<path d="M51.8699 78.6019
L53.9629 80.6949
" />
<path d="M52.9305 81.7273
L50.8375 79.6343
" />
<path d="M53.9629 80.6949
L52.9305 81.7273
" />
<path d="M53.3775 74.5543
L54.4099 73.5219
" />
<path d="M54.4099 73.5219
L56.5029 75.6149
" />
<path d="M55.4705 76.6473
L53.3775 74.5543
" />
<path d="M56.5029 75.6149
L55.4705 76.6473
" />
<path d="M40.6775 79.6343
L41.7099 78.6019
" />
<path d="M41.7099 78.6019
L43.8029 80.6949
" />
<path d="M42.7705 81.7273
L40.6775 79.6343
" />
<path d="M43.8029 80.6949
L42.7705 81.7273
" />
<path d="M42.3240 15.8246
L45.6840 15.8246
" />
<path d="M42.3240 17.7246
L42.3240 15.8246
" />
<path d="M45.6840 15.8246
L45.6840 17.7246
" />
<path d="M45.6840 17.7246
L42.3240 17.7246
" />
<path d="M45.7575 69.4743
L46.7899 68.4419
" />
<path d="M46.7899 68.4419
L48.8829 70.5349
" />
<path d="M47.8505 71.5673
L45.7575 69.4743
" />
<path d="M48.8829 70.5349
L47.8505 71.5673
" />
<path d="M52.2578 15.8246
L55.6178 15.8246
" />
<path d="M52.2578 17.7246
L52.2578 15.8246
" />
<path d="M55.6178 15.8246
L55.6178 17.7246
" />
<path d="M55.6178 17.7246
L52.2578 17.7246
" />
<path d="M58.4575 66.9343
L59.4899 65.9019
" />
<path d="M59.4899 65.9019
L61.5829 67.9949
" />
<path d="M60.5505 69.0273
L58.4575 66.9343
" />
<path d="M61.5829 67.9949
L60.5505 69.0273
" />
<path d="M48.2975 66.9343
L49.3299 65.9019
" />
<path d="M49.3299 65.9019
L51.4229 67.9949
" />
<path d="M50.3905 69.0273
L48.2975 66.9343
" />
<path d="M51.4229 67.9949
L50.3905 69.0273
" />
<path d="M43.2175 61.8543
L44.2499 60.8219
" />
<path d="M44.2499 60.8219
L46.3429 62.9149
" />
<path d="M45.3105 63.9473
L43.2175 61.8543
" />
<path d="M46.3429 62.9149
L45.3105 63.9473
" />
<path d="M55.9175 74.5543
L56.9499 73.5219
" />
<path d="M56.9499 73.5219
L59.0429 75.6149
" />
<path d="M58.0105 76.6473
L55.9175 74.5543
" />
<path d="M59.0429 75.6149
L58.0105 76.6473
" />
<path d="M43.2175 69.4743
L44.2499 68.4419
" />
<path d="M44.2499 68.4419
L46.3429 70.5349
" />
<path d="M45.3105 71.5673
L43.2175 69.4743
" />
<path d="M46.3429 70.5349
L45.3105 71.5673
" />
<path d="M40.6775 66.9343
L41.7099 65.9019
" />
<path d="M41.7099 65.9019
L43.8029 67.9949
" />
<path d="M42.7705 69.0273
L40.6775 66.9343
" />
<path d="M43.8029 67.9949
L42.7705 69.0273
" />
<path d="M48.2975 69.4743
L49.3299 68.4419
" />
<path d="M49.3299 68.4419
L51.4229 70.5349
" />
<path d="M50.3905 71.5673
L48.2975 69.4743
" />
<path d="M51.4229 70.5349
L50.3905 71.5673
" />
<path d="M53.3775 66.9343
L54.4099 65.9019
" />
<path d="M54.4099 65.9019
L56.5029 67.9949
" />
<path d="M55.4705 69.0273
L53.3775 66.9343
" />
<path d="M56.5029 67.9949
L55.4705 69.0273
" />
<path d="M53.3775 77.0943
L54.4099 76.0619
" />
<path d="M54.4099 76.0619
L56.5029 78.1549
" />
<path d="M55.4705 79.1873
L53.3775 77.0943
" />
<path d="M56.5029 78.1549
L55.4705 79.1873
" />
<path d="M58.4575 69.4743
L59.4899 68.4419
" />
<path d="M59.4899 68.4419
L61.5829 70.5349
" />
<path d="M60.5505 71.5673
L58.4575 69.4743
" />
<path d="M61.5829 70.5349
L60.5505 71.5673
" />
<path d="M48.2975 61.8543
L49.3299 60.8219
" />
<path d="M49.3299 60.8219
L51.4229 62.9149
" />
<path d="M50.3905 63.9473
L48.2975 61.8543
" />
<path d="M51.4229 62.9149
L50.3905 63.9473
" />
<path d="M43.2175 72.0143
L44.2499 70.9819
" />
<path d="M44.2499 70.9819
L46.3429 73.0749
" />
<path d="M45.3105 74.1073
L43.2175 72.0143
" />
<path d="M46.3429 73.0749
L45.3105 74.1073
" />
<path d="M50.8375 74.5543
L51.8699 73.5219
" />
<path d="M51.8699 73.5219
L53.9629 75.6149
" />
<path d="M52.9305 76.6473
L50.8375 74.5543
" />
<path d="M53.9629 75.6149
L52.9305 76.6473
" />
<path d="M55.9175 72.0143
L56.9499 70.9819
" />
<path d="M56.9499 70.9819
L59.0429 73.0749
" />
<path d="M58.0105 74.1073
L55.9175 72.0143
" />
<path d="M59.0429 73.0749
L58.0105 74.1073
" />
<path d="M48.2975 64.3943
L49.3299 63.3619
" />
<path d="M49.3299 63.3619
L51.4229 65.4549
" />
<path d="M50.3905 66.4873
L48.2975 64.3943
" />
<path d="M51.4229 65.4549
L50.3905 66.4873
" />
<path d="M55.9175 77.0943
L56.9499 76.0619
" />
<path d="M56.9499 76.0619
L59.0429 78.1549
" />
<path d="M58.0105 79.1873
L55.9175 77.0943
" />
<path d="M59.0429 78.1549
L58.0105 79.1873
" />
<path d="M53.3775 72.0143
L54.4099 70.9819
" />
<path d="M54.4099 70.9819
L56.5029 73.0749
" />
<path d="M55.4705 74.1073
L53.3775 72.0143
" />
<path d="M56.5029 73.0749
L55.4705 74.1073
" />
<path d="M40.6775 74.5543
L41.7099 73.5219
" />
<path d="M41.7099 73.5219
L43.8029 75.6149
" />
<path d="M42.7705 76.6473
L40.6775 74.5543
" />
<path d="M43.8029 75.6149
L42.7705 76.6473
" />
<path d="M50.8375 69.4743
L51.8699 68.4419
" />
<path d="M51.8699 68.4419
L53.9629 70.5349
" />
<path d="M52.9305 71.5673
L50.8375 69.4743
" />
<path d="M53.9629 70.5349
L52.9305 71.5673
" />
<path d="M55.9175 69.4743
L56.9499 68.4419
" />
<path d="M56.9499 68.4419
L59.0429 70.5349
" />
<path d="M58.0105 71.5673
L55.9175 69.4743
" />
<path d="M59.0429 70.5349
L58.0105 71.5673
" />
<path d="M45.7575 66.9343
L46.7899 65.9019
" />
<path d="M46.7899 65.9019
L48.8829 67.9949
" />
<path d="M47.8505 69.0273
L45.7575 66.9343
" />
<path d="M48.8829 67.9949
L47.8505 69.0273
" />
<path d="M45.7575 79.6343
L46.7899 78.6019
" />
<path d="M46.7899 78.6019
L48.8829 80.6949
" />
<path d="M47.8505 81.7273
L45.7575 79.6343
" />
<path d="M48.8829 80.6949
L47.8505 81.7273
" />
<path d="M40.6775 77.0943
L41.7099 76.0619
" />
<path d="M41.7099 76.0619
L43.8029 78.1549
" />
<path d="M42.7705 79.1873
L40.6775 77.0943
" />
<path d="M43.8029 78.1549
L42.7705 79.1873
" />
<path d="M58.4575 72.0143
L59.4899 70.9819
" />
<path d="M59.4899 70.9819
L61.5829 73.0749
" />
<path d="M60.5505 74.1073
L58.4575 72.0143
" />
<path d="M61.5829 73.0749
L60.5505 74.1073
" />
<path d="M43.2175 74.5543
L44.2499 73.5219
" />
<path d="M44.2499 73.5219
L46.3429 75.6149
" />
<path d="M45.3105 76.6473
L43.2175 74.5543
" />
<path d="M46.3429 75.6149
L45.3105 76.6473
" />
<path d="M58.4575 77.0943
L59.4899 76.0619
" />
<path d="M59.4899 76.0619
L61.5829 78.1549
" />
<path d="M60.5505 79.1873
L58.4575 77.0943
" />
<path d="M61.5829 78.1549
L60.5505 79.1873
" />
<path d="M40.6775 72.0143
L41.7099 70.9819
" />
<path d="M41.7099 70.9819
L43.8029 73.0749
" />
<path d="M42.7705 74.1073
L40.6775 72.0143
" />
<path d="M43.8029 73.0749
L42.7705 74.1073
" />
<path d="M48.2975 77.0943
L49.3299 76.0619
" />
<path d="M49.3299 76.0619
L51.4229 78.1549
" />
<path d="M50.3905 79.1873
L48.2975 77.0943
" />
<path d="M51.4229 78.1549
L50.3905 79.1873
" />
<path d="M55.9175 64.3943
L56.9499 63.3619
" />
<path d="M56.9499 63.3619
L59.0429 65.4549
" />
<path d="M58.0105 66.4873
L55.9175 64.3943
" />
<path d="M59.0429 65.4549
L58.0105 66.4873
" />
<path d="M45.7575 61.8543
L46.7899 60.8219
" />
<path d="M46.7899 60.8219
L48.8829 62.9149
" />
<path d="M47.8505 63.9473
L45.7575 61.8543
" />
<path d="M48.8829 62.9149
L47.8505 63.9473
" />
<path d="M58.4575 64.3943
L59.4899 63.3619
" />
<path d="M59.4899 63.3619
L61.5829 65.4549
" />
<path d="M60.5505 66.4873
L58.4575 64.3943
" />
<path d="M61.5829 65.4549
L60.5505 66.4873
" />
<path d="M58.5106 61.6874
L59.5430 60.6550
" />
<path d="M59.5430 60.6550
L61.6361 62.7481
" />
<path d="M60.6037 63.7805
L58.5106 61.6874
" />
<path d="M61.6361 62.7481
L60.6037 63.7805
" />
<path d="M45.7575 74.5543
L46.7899 73.5219
" />
<path d="M46.7899 73.5219
L48.8829 75.6149
" />
<path d="M47.8505 76.6473
L45.7575 74.5543
" />
<path d="M48.8829 75.6149
L47.8505 76.6473
" />
<path d="M53.3775 64.3943
L54.4099 63.3619
" />
<path d="M54.4099 63.3619
L56.5029 65.4549
" />
<path d="M55.4705 66.4873
L53.3775 64.3943
" />
<path d="M56.5029 65.4549
L55.4705 66.4873
" />
<path d="M43.2175 66.9343
L44.2499 65.9019
" />
<path d="M44.2499 65.9019
L46.3429 67.9949
" />
<path d="M45.3105 69.0273
L43.2175 66.9343
" />
<path d="M46.3429 67.9949
L45.3105 69.0273
" />
<path d="M75.7411 71.3959
L77.5089 73.1637
" />
<path d="M75.8825 68.4261
L75.8825 70.1231
" />
<path d="M75.8825 70.1231
L76.4482 70.6888
" />
<path d="M76.4482 70.6888
L75.7411 71.3959
" />
<path d="M77.5089 73.1637
L78.2160 72.4566
" />
<path d="M78.2160 72.4566
L78.7817 73.0223
" />
<path d="M78.7817 65.5269
L75.8825 68.4261
" />
<path d="M78.7817 73.0223
L80.4787 73.0223
" />
<path d="M80.4787 65.5269
L78.7817 65.5269
" />
<path d="M80.4787 73.0223
L83.3779 70.1231
" />
<path d="M81.0444 66.0926
L80.4787 65.5269
" />
<path d="M81.7515 65.3855
L81.0444 66.0926
" />
<path d="M82.8122 67.8604
L83.5193 67.1533
" />
<path d="M83.3779 68.4261
L82.8122 67.8604
" />
<path d="M83.3779 70.1231
L83.3779 68.4261
" />
<path d="M83.5193 67.1533
L81.7515 65.3855
" />
<path d="M50.8375 61.8543
L51.8699 60.8219
" />
<path d="M51.8699 60.8219
L53.9629 62.9149
" />
<path d="M52.9305 63.9473
L50.8375 61.8543
" />
<path d="M53.9629 62.9149
L52.9305 63.9473
" />
<path d="M48.2975 72.0143
L49.3299 70.9819
" />
<path d="M49.3299 70.9819
L51.4229 73.0749
" />
<path d="M50.3905 74.1073
L48.2975 72.0143
" />
<path d="M51.4229 73.0749
L50.3905 74.1073
" />
<path d="M45.7575 77.0943
L46.7899 76.0619
" />
<path d="M46.7899 76.0619
L48.8829 78.1549
" />
<path d="M47.8505 79.1873
L45.7575 77.0943
" />
<path d="M48.8829 78.1549
L47.8505 79.1873
" />
<path d="M55.9175 66.9343
L56.9499 65.9019
" />
<path d="M56.9499 65.9019
L59.0429 67.9949
" />
<path d="M58.0105 69.0273
L55.9175 66.9343
" />
<path d="M59.0429 67.9949
L58.0105 69.0273
" />
<path d="M69.7411 72.6533
L70.4482 73.3604
" />
<path d="M69.8825 73.9261
L69.8825 75.6231
" />
<path d="M69.8825 75.6231
L72.7817 78.5223
" />
<path d="M70.4482 73.3604
L69.8825 73.9261
" />
<path d="M71.5089 70.8855
L69.7411 72.6533
" />
<path d="M72.2160 71.5926
L71.5089 70.8855
" />
<path d="M72.7817 71.0269
L72.2160 71.5926
" />
<path d="M72.7817 78.5223
L74.4787 78.5223
" />
<path d="M74.4787 71.0269
L72.7817 71.0269
" />
<path d="M74.4787 78.5223
L75.0444 77.9566
" />
<path d="M75.0444 77.9566
L75.7515 78.6637
" />
<path d="M75.7515 78.6637
L77.5193 76.8959
" />
<path d="M76.8122 76.1888
L77.3779 75.6231
" />
<path d="M77.3779 73.9261
L74.4787 71.0269
" />
<path d="M77.3779 75.6231
L77.3779 73.9261
" />
<path d="M77.5193 76.8959
L76.8122 76.1888
" />
<path d="M58.4575 79.6343
L59.4899 78.6019
" />
<path d="M59.4899 78.6019
L61.5829 80.6949
" />
<path d="M60.5505 81.7273
L58.4575 79.6343
" />
<path d="M61.5829 80.6949
L60.5505 81.7273
" />
<path d="M48.2975 74.5543
L49.3299 73.5219
" />
<path d="M49.3299 73.5219
L51.4229 75.6149
" />
<path d="M50.3905 76.6473
L48.2975 74.5543
" />
<path d="M51.4229 75.6149
L50.3905 76.6473
" />
<path d="M50.8375 72.0143
L51.8699 70.9819
" />
<path d="M51.8699 70.9819
L53.9629 73.0749
" />
<path d="M52.9305 74.1073
L50.8375 72.0143
" />
<path d="M53.9629 73.0749
L52.9305 74.1073
" />
<path d="M40.6775 64.3943
L41.7099 63.3619
" />
<path d="M41.7099 63.3619
L43.8029 65.4549
" />
<path d="M42.7705 66.4873
L40.6775 64.3943
" />
<path d="M43.8029 65.4549
L42.7705 66.4873
" />
<path d="M43.2175 64.3943
L44.2499 63.3619
" />
<path d="M44.2499 63.3619
L46.3429 65.4549
" />
<path d="M45.3105 66.4873
L43.2175 64.3943
" />
<path d="M46.3429 65.4549
L45.3105 66.4873
" />
<path d="M48.2975 79.6343
L49.3299 78.6019
" />
<path d="M49.3299 78.6019
L51.4229 80.6949
" />
<path d="M50.3905 81.7273
L48.2975 79.6343
" />
<path d="M51.4229 80.6949
L50.3905 81.7273
" />
<path d="M45.7575 72.0143
L46.7899 70.9819
" />
<path d="M46.7899 70.9819
L48.8829 73.0749
" />
<path d="M47.8505 74.1073
L45.7575 72.0143
" />
<path d="M48.8829 73.0749
L47.8505 74.1073
" />
<path d="M69.7411 61.6533
L70.4482 62.3604
" />
<path d="M69.8825 62.9261
L69.8825 64.6231
" />
<path d="M69.8825 64.6231
L72.7817 67.5223
" />
<path d="M70.4482 62.3604
L69.8825 62.9261
" />
<path d="M71.5089 59.8855
L69.7411 61.6533
" />
<path d="M72.2160 60.5926
L71.5089 59.8855
" />
<path d="M72.7817 60.0269
L72.2160 60.5926
" />
<path d="M72.7817 67.5223
L74.4787 67.5223
" />
<path d="M74.4787 60.0269
L72.7817 60.0269
" />
<path d="M74.4787 67.5223
L75.0444 66.9566
" />
<path d="M75.0444 66.9566
L75.7515 67.6637
" />
<path d="M75.7515 67.6637
L77.5193 65.8959
" />
<path d="M76.8122 65.1888
L77.3779 64.6231
" />
<path d="M77.3779 62.9261
L74.4787 60.0269
" />
<path d="M77.3779 64.6231
L77.3779 62.9261
" />
<path d="M77.5193 65.8959
L76.8122 65.1888
" />
<path d="M40.6775 61.8543
L41.7099 60.8219
" />
<path d="M41.7099 60.8219
L43.8029 62.9149
" />
<path d="M42.7705 63.9473
L40.6775 61.8543
" />
<path d="M43.8029 62.9149
L42.7705 63.9473
" />
<path d="M41.8300 28.6362
L41.8300 34.0362
" />
<path d="M41.8300 34.0362
L60.4300 34.0362
" />
<path d="M44.7300 27.1362
L44.7300 28.6362
" />
<path d="M44.7300 28.6362
L41.8300 28.6362
" />
<path d="M57.5300 27.1362
L44.7300 27.1362
" />
<path d="M57.5300 28.6362
L57.5300 27.1362
" />
<path d="M60.4300 28.6362
L57.5300 28.6362
" />
<path d="M60.4300 34.0362
L60.4300 28.6362
" />
</g> 
</svg>
